{"glyphs":{"0":{"ha":772,"x_min":58,"x_max":704,"o":"m 381 998 l 381 998 q 526 998 607 895 l 607 895 q 704 773 704 490 l 704 490 q 704 208 606 85 l 606 85 q 526 -17 381 -17 l 381 -17 q 236 -17 147 95 q 58 206 58 492 l 58 492 q 58 773 156 897 l 156 897 q 237 998 381 998 z m 381 840 l 381 840 q 347 840 319 818 q 292 796 277 739 l 277 739 q 258 665 258 490 l 258 490 q 258 315 275 250 q 293 184 320 163 q 347 141 381 141 l 381 141 q 416 141 443 163 q 470 185 485 242 l 485 242 q 505 315 505 490 l 505 490 q 505 665 487 731 q 469 796 443 818 q 416 840 381 840 z "},"1":{"ha":772,"x_min":110,"x_max":547,"o":"m 547 998 l 547 0 l 356 0 l 356 718 q 252 621 110 574 l 110 574 l 110 747 q 184 771 272 839 q 359 907 392 998 l 392 998 l 547 998 z "},"2":{"ha":772,"x_min":35,"x_max":703,"o":"m 324 177 l 703 177 l 703 0 l 35 0 q 45 100 100 190 q 154 280 314 429 l 314 429 q 443 549 472 591 l 472 591 q 511 650 511 708 l 511 708 q 511 772 477 806 q 443 840 382 840 l 382 840 q 323 840 288 804 q 252 768 247 685 l 247 685 l 57 704 q 74 861 163 930 q 253 998 387 998 l 387 998 q 534 998 618 919 q 703 840 703 722 l 703 722 q 703 654 679 594 q 654 533 602 467 l 602 467 q 568 422 477 340 q 387 257 363 230 q 339 203 324 177 l 324 177 z "},"3":{"ha":772,"x_min":52,"x_max":713,"o":"m 52 264 l 52 264 l 237 286 q 245 216 284 178 q 323 141 378 141 l 378 141 q 437 141 477 186 q 517 231 517 307 l 517 307 q 517 378 479 420 q 440 463 385 463 l 385 463 q 348 463 297 448 l 297 448 l 318 604 q 395 602 436 637 q 477 673 477 732 l 477 732 q 477 782 447 812 q 417 842 368 842 l 368 842 q 319 842 284 808 q 250 774 242 709 l 242 709 l 66 739 q 85 829 122 883 q 159 937 225 967 q 291 998 373 998 l 373 998 q 513 998 598 909 l 598 909 q 668 836 668 743 l 668 743 q 668 612 525 534 l 525 534 q 610 516 662 452 q 713 389 713 298 l 713 298 q 713 168 617 75 q 522 -17 379 -17 l 379 -17 q 244 -17 155 61 q 66 138 52 264 z "},"4":{"ha":772,"x_min":26,"x_max":741,"o":"m 617 0 l 433 0 l 433 200 l 26 200 l 26 367 l 457 998 l 617 998 l 617 368 l 741 368 l 741 200 l 617 200 l 617 0 z m 204 368 l 433 368 l 433 707 l 204 368 z "},"5":{"ha":772,"x_min":62,"x_max":730,"o":"m 62 256 l 62 256 l 252 275 q 260 211 300 173 q 340 136 392 136 l 392 136 q 452 136 493 184 q 534 233 534 330 l 534 330 q 534 422 493 468 q 452 513 387 513 l 387 513 q 304 513 239 441 l 239 441 l 85 463 l 182 981 l 686 981 l 686 802 l 327 802 l 297 633 q 361 665 427 665 l 427 665 q 554 665 642 573 q 730 481 730 334 l 730 334 q 730 211 659 115 l 659 115 q 562 -17 390 -17 l 390 -17 q 252 -17 165 57 q 79 131 62 256 z "},"6":{"ha":772,"x_min":59,"x_max":723,"o":"m 705 751 l 705 751 l 520 730 q 513 787 485 814 q 456 842 411 842 l 411 842 q 351 842 309 787 q 267 733 256 562 l 256 562 q 328 646 433 646 l 433 646 q 553 646 638 555 q 723 464 723 320 l 723 320 q 723 168 633 75 q 544 -17 404 -17 l 404 -17 q 253 -17 156 100 q 59 217 59 484 l 59 484 q 59 757 160 878 q 261 998 422 998 l 422 998 q 536 998 610 935 q 684 871 705 751 z m 273 335 l 273 335 q 273 242 315 192 q 358 141 413 141 l 413 141 q 466 141 501 182 q 536 224 536 318 l 536 318 q 536 415 498 460 q 460 505 404 505 l 404 505 q 349 505 311 462 q 273 419 273 335 z "},"7":{"ha":772,"x_min":59,"x_max":711,"o":"m 492 804 l 59 804 l 59 981 l 711 981 l 711 842 q 630 763 547 614 q 463 466 419 299 q 376 132 376 0 l 376 0 l 193 0 q 197 206 278 420 q 358 635 492 804 l 492 804 z "},"8":{"ha":772,"x_min":56,"x_max":710,"o":"m 222 536 l 222 536 q 149 568 115 622 q 81 677 81 742 l 81 742 q 81 853 159 926 q 237 998 380 998 l 380 998 q 522 998 600 926 q 678 853 678 742 l 678 742 q 678 673 642 619 q 606 565 541 536 l 541 536 q 624 503 667 439 q 710 376 710 292 l 710 292 q 710 155 622 68 q 534 -18 389 -18 l 389 -18 q 253 -18 163 54 l 163 54 q 56 138 56 284 l 56 284 q 56 365 96 432 q 136 500 222 536 z m 262 728 l 262 728 q 262 671 294 640 q 326 608 380 608 l 380 608 q 434 608 467 640 q 499 672 499 729 l 499 729 q 499 783 467 815 q 435 847 382 847 l 382 847 q 327 847 294 814 q 262 782 262 728 z m 244 302 l 244 302 q 244 224 284 180 q 325 136 385 136 l 385 136 q 444 136 483 178 q 522 220 522 300 l 522 300 q 522 370 482 413 q 443 455 382 455 l 382 455 q 313 455 278 407 q 244 359 244 302 z "},"9":{"ha":772,"x_min":44,"x_max":708,"o":"m 63 230 l 63 230 l 248 250 q 254 194 283 167 q 311 140 358 140 l 358 140 q 417 140 458 194 q 500 248 511 419 l 511 419 q 439 336 332 336 l 332 336 q 214 336 129 426 q 44 517 44 662 l 44 662 q 44 813 134 906 q 224 998 363 998 l 363 998 q 514 998 611 881 q 708 764 708 496 l 708 496 q 708 224 607 103 q 506 -18 344 -18 l 344 -18 q 227 -18 155 44 q 83 106 63 230 z m 494 646 l 494 646 q 494 739 452 789 q 410 840 354 840 l 354 840 q 301 840 266 799 q 231 757 231 662 l 231 662 q 231 566 269 520 q 307 475 364 475 l 364 475 q 419 475 457 519 q 494 562 494 646 z "}," ":{"ha":386,"x_min":0,"x_max":0,"o":""},"!":{"ha":463,"x_min":125,"x_max":331,"o":"m 282 256 l 174 256 l 125 761 l 125 994 l 331 994 l 331 761 l 282 256 z m 323 0 l 133 0 l 133 191 l 323 191 l 323 0 z "},"\"":{"ha":659,"x_min":76,"x_max":589,"o":"m 252 641 l 112 641 l 76 826 l 76 994 l 283 994 l 283 826 l 252 641 z m 558 641 l 418 641 l 382 826 l 382 994 l 589 994 l 589 826 l 558 641 z "},"#":{"ha":772,"x_min":12,"x_max":756,"o":"m 51 -17 l 104 248 l 12 248 l 12 397 l 134 397 l 175 597 l 12 597 l 12 747 l 205 747 l 259 1011 l 411 1011 l 357 747 l 507 747 l 559 1011 l 717 1011 l 663 747 l 756 747 l 756 597 l 632 597 l 591 397 l 756 397 l 756 248 l 561 248 l 507 -17 l 356 -17 l 408 248 l 258 248 l 204 -17 l 51 -17 z m 477 597 l 328 597 l 288 397 l 438 397 l 477 597 z "},"$":{"ha":772,"x_min":47,"x_max":711,"o":"m 332 147 l 332 147 l 332 431 q 199 469 137 546 q 75 623 75 733 l 75 733 q 75 844 145 920 q 215 996 332 1007 l 332 1007 l 332 1074 l 430 1074 l 430 1007 q 538 994 602 933 q 665 873 683 771 l 683 771 l 511 749 q 496 829 430 857 l 430 857 l 430 592 q 593 548 652 478 q 711 408 711 298 l 711 298 q 711 175 636 91 q 562 7 430 -12 l 430 -12 l 430 -139 l 332 -139 l 332 -16 q 214 -1 141 72 q 68 145 47 279 l 47 279 l 224 298 q 235 243 265 204 q 295 165 332 147 z m 332 625 l 332 859 q 292 846 268 813 q 244 781 244 741 l 244 741 q 244 705 266 674 q 288 644 332 625 l 332 625 z m 430 402 l 430 138 q 481 147 513 185 q 545 222 545 273 l 545 273 q 545 319 518 352 q 491 385 430 402 l 430 402 z "},"%":{"ha":1235,"x_min":60,"x_max":1170,"o":"m 60 749 l 60 749 q 60 882 119 947 q 178 1011 278 1011 l 278 1011 q 382 1011 440 947 q 499 883 499 749 l 499 749 q 499 615 440 551 q 382 486 281 486 l 281 486 q 178 486 119 550 q 60 614 60 749 z m 209 750 l 209 750 q 209 653 231 620 l 231 620 q 248 595 278 595 l 278 595 q 309 595 326 620 l 326 620 q 347 653 347 750 l 347 750 q 347 847 326 880 l 326 880 q 309 905 278 905 l 278 905 q 248 905 231 880 l 231 880 q 209 847 209 750 z m 949 1011 l 423 -38 l 282 -38 l 812 1011 l 949 1011 z m 731 223 l 731 223 q 731 357 790 421 q 848 486 950 486 l 950 486 q 1053 486 1111 421 q 1170 357 1170 223 l 1170 223 q 1170 89 1111 24 q 1053 -40 952 -40 l 952 -40 q 848 -40 790 24 q 731 89 731 223 z m 880 224 l 880 224 q 880 127 902 94 l 902 94 q 919 69 949 69 l 949 69 q 979 69 996 94 l 996 94 q 1018 127 1018 224 l 1018 224 q 1018 321 996 354 l 996 354 q 979 378 949 378 l 949 378 q 918 378 902 354 l 902 354 q 880 321 880 224 z "},"&":{"ha":1003,"x_min":61,"x_max":981,"o":"m 981 121 l 981 121 l 865 -26 q 781 16 703 88 l 703 88 q 642 34 574 8 q 507 -18 413 -18 l 413 -18 q 227 -18 134 87 l 134 87 q 61 168 61 273 l 61 273 q 61 368 118 445 q 175 521 288 577 l 288 577 q 237 637 212 692 q 186 747 186 795 l 186 795 q 186 886 258 948 q 330 1011 464 1011 l 464 1011 q 593 1011 665 945 q 738 880 738 785 l 738 785 q 738 724 702 670 q 666 616 557 547 l 557 547 l 695 365 q 720 408 737 478 l 737 478 l 909 439 q 884 347 865 305 q 846 262 824 234 l 824 234 q 856 204 906 169 q 957 133 981 121 z m 415 716 l 462 662 l 513 701 q 570 745 570 789 l 570 789 q 570 825 543 851 q 515 877 469 877 l 469 877 q 423 877 397 854 q 372 831 372 802 l 372 802 q 372 766 415 716 l 415 716 z m 581 216 l 387 455 q 321 422 289 375 q 256 328 256 279 l 256 279 q 256 218 297 179 q 337 140 405 140 l 405 140 q 450 140 491 157 q 532 175 581 216 l 581 216 z "},"'":{"ha":330,"x_min":62,"x_max":270,"o":"m 239 641 l 98 641 l 62 826 l 62 994 l 270 994 l 270 826 l 239 641 z "},"(":{"ha":463,"x_min":73,"x_max":418,"o":"m 416 -292 l 416 -292 l 285 -292 q 181 -136 127 33 q 73 202 73 360 l 73 360 q 73 556 140 731 l 140 731 q 198 883 288 1011 l 288 1011 l 418 1011 q 325 806 290 662 q 255 517 255 356 l 255 356 q 255 245 276 128 q 296 12 332 -94 l 332 -94 q 356 -163 416 -292 z "},")":{"ha":463,"x_min":45,"x_max":391,"o":"m 178 -292 l 47 -292 q 103 -172 126 -107 q 149 -43 169 41 q 189 125 198 201 q 208 277 208 356 l 208 356 q 208 517 173 662 q 138 806 45 1011 l 45 1011 l 175 1011 q 277 865 334 702 q 391 538 391 370 l 391 370 q 391 229 346 66 l 346 66 q 295 -115 178 -292 l 178 -292 z "},"*":{"ha":541,"x_min":19,"x_max":511,"o":"m 166 537 l 166 537 l 64 616 q 113 671 165 722 l 165 722 q 186 742 192 747 l 192 747 q 175 750 95 770 l 95 770 q 37 784 19 791 l 19 791 l 59 910 q 148 874 218 831 l 218 831 q 201 941 201 1011 l 201 1011 l 322 1011 q 322 962 304 829 l 304 829 q 317 835 362 856 l 362 856 q 423 884 475 903 l 475 903 l 511 781 q 435 764 336 747 l 336 747 l 418 656 q 442 628 456 610 l 456 610 l 353 542 l 261 693 q 220 620 166 537 z "},"+":{"ha":811,"x_min":58,"x_max":753,"o":"m 492 143 l 318 143 l 318 401 l 58 401 l 58 580 l 318 580 l 318 838 l 492 838 l 492 580 l 753 580 l 753 401 l 492 401 l 492 143 z "},",":{"ha":386,"x_min":79,"x_max":286,"o":"m 95 0 l 95 191 l 286 191 l 286 54 q 286 -28 271 -76 q 257 -124 217 -162 q 178 -200 117 -222 l 117 -222 l 79 -143 q 137 -124 161 -91 q 186 -58 187 0 l 187 0 l 95 0 z "},"-":{"ha":463,"x_min":78,"x_max":452,"o":"m 452 265 l 78 265 l 78 456 l 452 456 l 452 265 z "},".":{"ha":386,"x_min":100,"x_max":290,"o":"m 290 0 l 100 0 l 100 191 l 290 191 l 290 0 z "},"/":{"ha":386,"x_min":-2,"x_max":387,"o":"m 138 -17 l -2 -17 l 244 1011 l 387 1011 l 138 -17 z "},":":{"ha":463,"x_min":136,"x_max":327,"o":"m 327 530 l 136 530 l 136 720 l 327 720 l 327 530 z m 327 0 l 136 0 l 136 191 l 327 191 l 327 0 z "},";":{"ha":463,"x_min":115,"x_max":321,"o":"m 321 530 l 131 530 l 131 720 l 321 720 l 321 530 z m 131 0 l 131 191 l 321 191 l 321 54 q 321 -28 307 -76 q 293 -124 253 -162 q 214 -200 153 -222 l 153 -222 l 115 -143 q 173 -124 197 -90 q 222 -56 223 0 l 223 0 l 131 0 z "},"<":{"ha":811,"x_min":64,"x_max":746,"o":"m 746 305 l 746 113 l 64 410 l 64 574 l 746 869 l 746 675 l 271 494 l 746 305 z "},"=":{"ha":811,"x_min":58,"x_max":753,"o":"m 753 553 l 58 553 l 58 728 l 753 728 l 753 553 z m 753 252 l 58 252 l 58 428 l 753 428 l 753 252 z "},">":{"ha":811,"x_min":64,"x_max":747,"o":"m 747 410 l 64 113 l 64 304 l 541 492 l 64 677 l 64 867 l 747 572 l 747 410 z "},"?":{"ha":848,"x_min":72,"x_max":785,"o":"m 509 256 l 509 256 l 336 256 q 336 294 336 302 l 336 302 q 336 386 363 440 q 391 494 475 562 q 558 630 574 651 l 574 651 q 600 684 600 724 l 600 724 q 600 780 555 820 q 511 859 435 859 l 435 859 q 363 859 314 818 q 265 777 247 692 l 247 692 l 72 713 q 79 835 175 920 q 271 1004 427 1004 l 427 1004 q 591 1004 688 919 q 785 833 785 719 l 785 719 q 785 656 750 600 q 714 543 597 446 l 597 446 q 537 396 523 366 q 508 335 509 256 z m 527 0 l 336 0 l 336 191 l 527 191 l 527 0 z "},"@":{"ha":1354,"x_min":41,"x_max":1350,"o":"m 1205 13 l 1205 13 l 1350 13 q 1282 -125 1141 -203 l 1141 -203 q 981 -292 749 -292 l 749 -292 q 526 -292 363 -217 q 200 -141 121 6 q 41 154 41 328 l 41 328 q 41 518 132 683 q 222 847 378 929 q 535 1012 736 1012 l 736 1012 q 907 1012 1040 945 q 1173 879 1243 756 q 1314 634 1314 489 l 1314 489 q 1314 316 1207 176 l 1207 176 q 1074 0 865 0 l 865 0 q 808 0 780 20 q 751 39 742 77 l 742 77 q 662 0 557 0 l 557 0 q 445 0 371 78 q 296 155 296 284 l 296 284 q 296 444 386 575 l 386 575 q 494 735 664 735 l 664 735 q 785 735 842 643 l 842 643 l 859 718 l 1038 718 l 936 232 q 926 186 926 172 l 926 172 q 926 155 934 147 q 942 138 953 138 l 953 138 q 985 138 1037 178 l 1037 178 q 1106 229 1149 316 q 1192 403 1192 496 l 1192 496 q 1192 663 1071 775 q 950 887 734 887 l 734 887 q 550 887 422 812 q 294 737 230 601 q 165 465 165 318 l 165 318 q 165 175 237 58 q 309 -60 440 -114 q 570 -168 739 -168 l 739 -168 q 901 -168 1017 -122 q 1134 -77 1205 13 z m 472 292 l 472 292 q 472 205 507 165 q 542 124 593 124 l 593 124 q 632 124 666 143 l 666 143 q 692 157 717 186 l 717 186 q 753 227 779 307 q 805 386 805 454 l 805 454 q 805 531 769 572 q 734 613 680 613 l 680 613 q 621 613 572 568 q 522 523 497 439 q 472 356 472 292 z "},"A":{"ha":1003,"x_min":0,"x_max":998,"o":"m 600 994 l 998 0 l 779 0 l 692 226 l 295 226 l 213 0 l 0 0 l 387 994 l 600 994 z m 357 393 l 628 393 l 491 762 l 357 393 z "},"B":{"ha":1003,"x_min":102,"x_max":935,"o":"m 102 0 l 102 994 l 499 994 q 617 994 675 984 q 733 975 779 943 q 825 912 855 860 q 886 808 886 744 l 886 744 q 886 674 848 616 q 810 557 746 528 l 746 528 q 837 502 886 438 q 935 374 935 288 l 935 288 q 935 220 903 156 q 871 92 817 54 q 762 16 682 7 l 682 7 q 632 1 440 0 l 440 0 l 102 0 z m 418 829 l 302 829 l 302 599 l 434 599 q 551 599 580 602 l 580 602 q 631 608 661 638 q 690 667 690 715 l 690 715 q 690 762 665 790 q 640 819 589 825 l 589 825 q 559 829 418 829 l 418 829 z m 465 433 l 302 433 l 302 168 l 488 168 q 597 168 626 174 l 626 174 q 671 182 699 213 q 727 245 727 298 l 727 298 q 727 342 705 374 q 684 405 643 419 q 602 433 465 433 l 465 433 z "},"C":{"ha":1003,"x_min":66,"x_max":932,"o":"m 737 366 l 737 366 l 932 304 q 887 141 783 62 q 679 -17 519 -17 l 519 -17 q 321 -17 193 118 q 66 254 66 488 l 66 488 q 66 736 194 874 q 322 1011 531 1011 l 531 1011 q 713 1011 827 903 l 827 903 q 895 840 929 720 l 929 720 l 730 673 q 713 750 657 795 q 601 840 521 840 l 521 840 q 410 840 341 760 q 273 681 273 503 l 273 503 q 273 315 340 235 q 408 155 517 155 l 517 155 q 597 155 654 205 q 712 256 737 366 z "},"D":{"ha":1003,"x_min":100,"x_max":934,"o":"m 100 0 l 100 994 l 467 994 q 591 994 656 975 l 656 975 q 744 949 806 884 q 869 818 901 723 q 934 627 934 488 l 934 488 q 934 365 903 276 l 903 276 q 866 168 797 100 l 797 100 q 745 50 656 21 l 656 21 q 589 0 478 0 l 478 0 l 100 0 z m 391 826 l 301 826 l 301 168 l 451 168 q 535 168 572 177 l 572 177 q 621 189 653 218 q 686 248 706 314 q 726 381 726 496 l 726 496 q 726 612 706 673 q 686 735 649 770 q 612 804 556 817 l 556 817 q 514 826 391 826 l 391 826 z "},"E":{"ha":926,"x_min":101,"x_max":857,"o":"m 857 0 l 101 0 l 101 994 l 838 994 l 838 826 l 302 826 l 302 606 l 801 606 l 801 438 l 302 438 l 302 168 l 857 168 l 857 0 z "},"F":{"ha":848,"x_min":102,"x_max":784,"o":"m 303 0 l 102 0 l 102 994 l 784 994 l 784 826 l 303 826 l 303 591 l 718 591 l 718 422 l 303 422 l 303 0 z "},"G":{"ha":1080,"x_min":66,"x_max":996,"o":"m 793 366 l 564 366 l 564 533 l 996 533 l 996 137 q 933 76 813 30 q 694 -17 571 -17 l 571 -17 q 415 -17 299 48 q 183 114 125 236 q 66 357 66 500 l 66 500 q 66 656 132 777 q 197 897 322 962 l 322 962 q 418 1011 560 1011 l 560 1011 q 745 1011 849 933 q 954 856 983 719 l 983 719 l 784 682 q 763 755 705 797 q 647 840 560 840 l 560 840 q 429 840 351 756 q 273 673 273 509 l 273 509 q 273 332 352 243 q 431 155 558 155 l 558 155 q 621 155 685 179 q 748 204 793 239 l 793 239 l 793 366 z "},"H":{"ha":1003,"x_min":102,"x_max":897,"o":"m 302 0 l 102 0 l 102 994 l 302 994 l 302 603 l 696 603 l 696 994 l 897 994 l 897 0 l 696 0 l 696 435 l 302 435 l 302 0 z "},"I":{"ha":386,"x_min":95,"x_max":296,"o":"m 296 0 l 95 0 l 95 994 l 296 994 l 296 0 z "},"J":{"ha":772,"x_min":24,"x_max":660,"o":"m 460 352 l 460 994 l 660 994 l 660 365 q 660 241 638 175 l 638 175 q 609 88 532 36 q 456 -17 330 -17 l 330 -17 q 183 -17 104 65 q 24 148 24 307 l 24 307 l 213 329 q 216 243 238 208 l 238 208 q 271 155 337 155 l 337 155 q 404 155 432 193 q 460 231 460 352 l 460 352 z "},"K":{"ha":1003,"x_min":104,"x_max":1000,"o":"m 304 0 l 104 0 l 104 994 l 304 994 l 304 553 l 710 994 l 980 994 l 606 607 l 1000 0 l 741 0 l 467 467 l 304 300 l 304 0 z "},"L":{"ha":848,"x_min":106,"x_max":806,"o":"m 806 0 l 106 0 l 106 986 l 307 986 l 307 168 l 806 168 l 806 0 z "},"M":{"ha":1157,"x_min":98,"x_max":1059,"o":"m 285 0 l 98 0 l 98 994 l 399 994 l 579 316 l 758 994 l 1059 994 l 1059 0 l 872 0 l 872 783 l 675 0 l 481 0 l 285 783 l 285 0 z "},"N":{"ha":1003,"x_min":103,"x_max":892,"o":"m 290 0 l 103 0 l 103 994 l 298 994 l 705 330 l 705 994 l 892 994 l 892 0 l 690 0 l 290 648 l 290 0 z "},"O":{"ha":1080,"x_min":60,"x_max":1025,"o":"m 60 491 l 60 491 q 60 643 106 746 l 106 746 q 140 822 198 882 q 257 943 327 972 l 327 972 q 420 1011 541 1011 l 541 1011 q 761 1011 893 875 q 1025 739 1025 496 l 1025 496 q 1025 255 894 119 q 763 -17 544 -17 l 544 -17 q 322 -17 191 118 q 60 254 60 491 z m 267 498 l 267 498 q 267 329 345 242 q 423 155 543 155 l 543 155 q 663 155 740 241 q 817 328 817 500 l 817 500 q 817 671 742 755 q 667 840 543 840 l 543 840 q 419 840 343 754 q 267 669 267 498 z "},"P":{"ha":926,"x_min":101,"x_max":863,"o":"m 302 0 l 101 0 l 101 994 l 423 994 q 606 994 662 979 l 662 979 q 747 957 805 882 q 863 807 863 688 l 863 688 q 863 597 829 534 q 796 472 745 436 q 694 401 641 389 l 641 389 q 569 375 433 375 l 433 375 l 302 375 l 302 0 z m 399 826 l 302 826 l 302 544 l 412 544 q 530 544 570 559 q 610 575 633 608 q 656 642 656 686 l 656 686 q 656 740 624 775 q 592 810 543 819 l 543 819 q 507 826 399 826 l 399 826 z "},"Q":{"ha":1080,"x_min":60,"x_max":1062,"o":"m 901 126 l 901 126 q 975 73 1062 42 l 1062 42 l 988 -100 q 943 -86 899 -62 l 899 -62 q 890 -58 766 26 l 766 26 q 668 -17 549 -17 l 549 -17 q 320 -17 190 118 q 60 253 60 497 l 60 497 q 60 741 191 876 q 321 1011 544 1011 l 544 1011 q 765 1011 895 876 q 1024 741 1024 497 l 1024 497 q 1024 368 988 271 l 988 271 q 961 196 901 126 z m 740 239 l 740 239 q 779 285 798 349 q 817 414 817 497 l 817 497 q 817 669 741 754 q 665 840 543 840 l 543 840 q 420 840 343 754 q 267 669 267 497 l 267 497 q 267 323 343 236 q 420 150 536 150 l 536 150 q 580 150 618 164 l 618 164 q 557 204 494 227 l 494 227 l 551 341 q 650 307 740 239 z "},"R":{"ha":1003,"x_min":102,"x_max":996,"o":"m 302 0 l 102 0 l 102 994 l 524 994 q 684 994 756 967 q 828 941 871 872 q 915 804 915 715 l 915 715 q 915 604 849 531 q 783 458 652 439 l 652 439 q 718 401 760 355 q 802 310 874 194 l 874 194 l 996 0 l 755 0 l 610 216 q 533 332 505 362 q 476 393 444 404 q 412 415 343 415 l 343 415 l 302 415 l 302 0 z m 302 826 l 302 574 l 451 574 q 595 574 631 586 q 667 598 688 628 q 708 658 708 703 l 708 703 q 708 753 681 784 q 654 814 606 823 l 606 823 q 581 826 459 826 l 459 826 l 302 826 z "},"S":{"ha":926,"x_min":50,"x_max":859,"o":"m 50 323 l 50 323 l 245 342 q 263 244 317 198 q 371 152 463 152 l 463 152 q 559 152 609 193 q 658 234 658 289 l 658 289 q 658 324 637 349 q 616 374 565 392 l 565 392 q 530 404 404 435 l 404 435 q 243 475 178 534 l 178 534 q 86 616 86 734 l 86 734 q 86 810 129 876 q 172 942 253 977 q 334 1011 449 1011 l 449 1011 q 636 1011 731 929 q 825 847 830 710 l 830 710 l 629 701 q 616 778 574 811 q 532 845 447 845 l 447 845 q 359 845 310 809 l 310 809 q 278 786 278 747 l 278 747 q 278 712 308 687 l 308 687 q 346 655 492 621 q 639 586 709 549 q 779 512 819 448 q 859 384 859 290 l 859 290 q 859 204 811 130 q 764 55 677 19 q 590 -18 460 -18 l 460 -18 q 272 -18 171 70 q 70 157 50 323 z "},"T":{"ha":848,"x_min":30,"x_max":820,"o":"m 526 0 l 325 0 l 325 826 l 30 826 l 30 994 l 820 994 l 820 826 l 526 826 l 526 0 z "},"U":{"ha":1003,"x_min":100,"x_max":892,"o":"m 100 464 l 100 994 l 300 994 l 300 456 q 300 328 308 290 l 308 290 q 321 229 369 192 q 418 155 502 155 l 502 155 q 587 155 631 190 q 674 224 683 275 q 692 326 692 444 l 692 444 l 692 994 l 892 994 l 892 472 q 892 293 876 219 q 860 145 816 94 q 772 43 699 13 q 626 -17 508 -17 l 508 -17 q 366 -17 292 16 q 218 49 176 101 q 133 154 119 212 l 119 212 q 100 297 100 464 l 100 464 z "},"V":{"ha":926,"x_min":-1,"x_max":925,"o":"m 569 0 l 355 0 l -1 994 l 217 994 l 469 258 l 712 994 l 925 994 l 569 0 z "},"W":{"ha":1311,"x_min":5,"x_max":1310,"o":"m 460 0 l 242 0 l 5 994 l 210 994 l 360 311 l 542 994 l 781 994 l 955 300 l 1107 994 l 1310 994 l 1068 0 l 855 0 l 657 743 l 460 0 z "},"X":{"ha":926,"x_min":0,"x_max":924,"o":"m 241 0 l 0 0 l 340 519 l 32 994 l 267 994 l 466 675 l 661 994 l 894 994 l 585 511 l 924 0 l 682 0 l 462 344 l 241 0 z "},"Y":{"ha":926,"x_min":-2,"x_max":928,"o":"m 562 0 l 362 0 l 362 418 l -2 994 l 233 994 l 467 601 l 696 994 l 928 994 l 562 417 l 562 0 z "},"Z":{"ha":848,"x_min":15,"x_max":823,"o":"m 823 0 l 15 0 l 15 181 l 537 826 l 74 826 l 74 994 l 802 994 l 802 838 l 257 168 l 823 168 l 823 0 z "},"[":{"ha":463,"x_min":99,"x_max":437,"o":"m 437 -280 l 99 -280 l 99 994 l 437 994 l 437 844 l 280 844 l 280 -130 l 437 -130 l 437 -280 z "},"\\":{"ha":386,"x_min":-2,"x_max":387,"o":"m 244 -17 l -2 1011 l 138 1011 l 387 -17 l 244 -17 z "},"]":{"ha":463,"x_min":26,"x_max":363,"o":"m 26 994 l 363 994 l 363 -280 l 26 -280 l 26 -130 l 182 -130 l 182 846 l 26 846 l 26 994 z "},"^":{"ha":811,"x_min":78,"x_max":732,"o":"m 272 469 l 78 469 l 333 1011 l 484 1011 l 732 469 l 540 469 l 406 801 l 272 469 z "},"_":{"ha":772,"x_min":-13,"x_max":779,"o":"m 779 -275 l -13 -275 l -13 -151 l 779 -151 l 779 -275 z "},"`":{"ha":463,"x_min":28,"x_max":336,"o":"m 242 1011 l 336 808 l 216 808 l 28 1011 l 242 1011 z "},"a":{"ha":772,"x_min":50,"x_max":726,"o":"m 242 500 l 242 500 l 69 532 q 98 636 170 686 q 241 736 381 736 l 381 736 q 509 736 571 706 q 633 676 659 630 q 684 583 684 459 l 684 459 l 682 237 q 682 142 691 97 q 701 52 726 0 l 726 0 l 537 0 q 530 19 519 56 l 519 56 q 514 73 512 79 l 512 79 q 463 31 408 7 q 352 -16 289 -16 l 289 -16 q 178 -16 114 44 q 50 104 50 197 l 50 197 q 50 258 79 306 q 108 353 160 379 q 213 404 312 423 l 312 423 q 446 448 497 470 l 497 470 l 497 489 q 497 544 470 567 q 443 591 368 591 l 368 591 q 317 591 288 571 q 260 551 242 500 z m 497 308 l 497 346 q 460 334 381 317 q 302 300 277 283 l 277 283 q 240 257 240 216 l 240 216 q 240 176 270 147 q 300 118 346 118 l 346 118 q 397 118 444 152 l 444 152 q 479 178 490 215 l 490 215 q 497 239 497 308 l 497 308 z "},"b":{"ha":848,"x_min":92,"x_max":795,"o":"m 269 0 l 92 0 l 92 994 l 282 994 l 282 636 q 370 736 491 736 l 491 736 q 623 736 709 641 q 795 546 795 368 l 795 368 q 795 183 707 83 q 619 -16 494 -16 l 494 -16 q 432 -16 372 15 q 312 45 269 106 l 269 106 l 269 0 z m 281 376 l 281 376 q 281 264 316 210 l 316 210 q 366 134 448 134 l 448 134 q 511 134 555 188 q 600 242 600 358 l 600 358 q 600 481 555 536 q 510 591 440 591 l 440 591 q 372 591 326 537 q 281 484 281 376 z "},"c":{"ha":772,"x_min":58,"x_max":737,"o":"m 728 507 l 728 507 l 540 473 q 530 530 497 558 q 463 587 410 587 l 410 587 q 338 587 296 537 q 254 488 254 373 l 254 373 q 254 245 297 192 q 340 139 412 139 l 412 139 q 467 139 501 170 q 536 201 550 276 l 550 276 l 737 244 q 708 115 625 50 q 543 -16 404 -16 l 404 -16 q 245 -16 152 83 q 58 183 58 359 l 58 359 q 58 538 152 637 q 246 736 407 736 l 407 736 q 538 736 616 680 q 694 623 728 507 z "},"d":{"ha":848,"x_min":57,"x_max":760,"o":"m 760 994 l 760 0 l 583 0 l 583 106 q 539 44 479 14 q 419 -16 358 -16 l 358 -16 q 234 -16 145 84 q 57 184 57 363 l 57 363 q 57 546 143 641 q 229 736 361 736 l 361 736 q 481 736 570 636 l 570 636 l 570 994 l 760 994 z m 252 376 l 252 376 q 252 260 283 209 l 283 209 q 330 134 412 134 l 412 134 q 478 134 524 190 q 570 246 570 357 l 570 357 q 570 481 526 536 q 481 591 411 591 l 411 591 q 343 591 297 537 q 252 483 252 376 z "},"e":{"ha":772,"x_min":44,"x_max":721,"o":"m 517 229 l 517 229 l 707 197 q 670 93 591 38 q 512 -16 393 -16 l 393 -16 q 205 -16 115 106 l 115 106 q 44 205 44 355 l 44 355 q 44 534 138 635 q 231 736 374 736 l 374 736 q 535 736 628 630 q 721 524 717 305 l 717 305 l 239 305 q 241 220 286 173 q 330 126 395 126 l 395 126 q 440 126 471 151 q 501 175 517 229 z m 243 422 l 528 422 q 526 505 485 548 q 444 591 386 591 l 386 591 q 323 591 283 545 l 283 545 q 242 500 243 422 l 243 422 z "},"f":{"ha":463,"x_min":16,"x_max":503,"o":"m 16 570 l 16 720 l 122 720 l 122 774 q 122 865 141 910 q 161 955 213 983 q 264 1011 344 1011 l 344 1011 q 425 1011 503 987 l 503 987 l 477 854 q 432 865 390 865 l 390 865 q 349 865 331 845 q 313 826 313 771 l 313 771 l 313 720 l 455 720 l 455 570 l 313 570 l 313 0 l 122 0 l 122 570 l 16 570 z "},"g":{"ha":848,"x_min":57,"x_max":760,"o":"m 82 -47 l 82 -47 l 300 -74 q 305 -112 325 -126 l 325 -126 q 352 -146 410 -146 l 410 -146 q 485 -146 522 -124 l 522 -124 q 547 -109 560 -76 l 560 -76 q 569 -52 569 12 l 569 12 l 569 117 q 484 0 353 0 l 353 0 q 208 0 123 123 l 123 123 q 57 220 57 364 l 57 364 q 57 545 144 641 q 231 736 361 736 l 361 736 q 494 736 581 619 l 581 619 l 581 720 l 760 720 l 760 74 q 760 -54 739 -117 q 718 -180 680 -216 q 642 -252 578 -272 q 515 -292 418 -292 l 418 -292 q 235 -292 158 -230 q 81 -167 81 -71 l 81 -71 q 81 -61 82 -47 z m 252 375 l 252 375 q 252 260 297 207 q 341 154 406 154 l 406 154 q 476 154 524 209 q 572 263 572 370 l 572 370 q 572 482 526 536 q 480 591 410 591 l 410 591 q 341 591 297 537 q 252 484 252 375 z "},"h":{"ha":848,"x_min":99,"x_max":755,"o":"m 99 994 l 290 994 l 290 629 q 382 736 510 736 l 510 736 q 576 736 629 712 q 682 688 708 650 q 735 612 745 566 q 755 519 755 422 l 755 422 l 755 0 l 564 0 l 564 380 q 564 494 553 524 q 543 555 515 573 q 488 591 446 591 l 446 591 q 399 591 361 568 q 324 545 307 498 q 290 452 290 361 l 290 361 l 290 0 l 99 0 l 99 994 z "},"i":{"ha":386,"x_min":100,"x_max":290,"o":"m 290 818 l 100 818 l 100 994 l 290 994 l 290 818 z m 290 0 l 100 0 l 100 720 l 290 720 l 290 0 z "},"j":{"ha":386,"x_min":-64,"x_max":286,"o":"m 286 818 l 96 818 l 96 994 l 286 994 l 286 818 z m 96 720 l 286 720 l 286 22 q 286 -115 268 -172 q 250 -229 199 -260 q 148 -292 68 -292 l 68 -292 q 40 -292 7 -287 q -26 -282 -64 -272 l -64 -272 l -31 -109 q -17 -112 -5 -114 q 7 -115 17 -115 l 17 -115 q 46 -115 65 -103 q 83 -90 90 -73 q 96 -55 96 33 l 96 33 l 96 720 z "},"k":{"ha":772,"x_min":93,"x_max":759,"o":"m 283 0 l 93 0 l 93 994 l 283 994 l 283 467 l 507 720 l 741 720 l 495 457 l 759 0 l 553 0 l 372 323 l 283 231 l 283 0 z "},"l":{"ha":386,"x_min":100,"x_max":290,"o":"m 290 0 l 100 0 l 100 994 l 290 994 l 290 0 z "},"m":{"ha":1235,"x_min":85,"x_max":1145,"o":"m 85 0 l 85 720 l 261 720 l 261 622 q 355 736 486 736 l 486 736 q 555 736 606 708 q 656 680 689 622 l 689 622 q 736 680 791 708 q 846 736 909 736 l 909 736 q 988 736 1043 704 q 1098 672 1125 610 l 1125 610 q 1145 564 1145 460 l 1145 460 l 1145 0 l 954 0 l 954 412 q 954 519 935 550 l 935 550 q 908 591 853 591 l 853 591 q 813 591 778 566 q 743 542 727 495 q 711 448 711 346 l 711 346 l 711 0 l 521 0 l 521 395 q 521 500 511 530 q 500 561 479 576 q 458 591 421 591 l 421 591 q 377 591 342 567 q 307 543 291 498 q 276 454 276 350 l 276 350 l 276 0 l 85 0 z "},"n":{"ha":848,"x_min":98,"x_max":755,"o":"m 755 448 l 755 0 l 564 0 l 564 368 q 564 484 552 518 q 540 553 512 572 q 485 591 446 591 l 446 591 q 397 591 357 564 q 318 536 303 492 q 289 447 289 326 l 289 326 l 289 0 l 98 0 l 98 720 l 275 720 l 275 614 q 370 736 513 736 l 513 736 q 576 736 628 714 q 680 691 707 656 q 734 621 744 576 q 755 531 755 448 l 755 448 z "},"o":{"ha":848,"x_min":56,"x_max":799,"o":"m 56 370 l 56 370 q 56 465 102 554 q 149 643 235 690 q 321 736 427 736 l 427 736 q 590 736 694 630 q 799 524 799 362 l 799 362 q 799 199 693 91 q 588 -16 428 -16 l 428 -16 q 329 -16 239 28 q 149 73 102 160 q 56 246 56 370 z m 251 360 l 251 360 q 251 253 302 196 q 353 139 427 139 l 427 139 q 502 139 552 196 q 603 253 603 361 l 603 361 q 603 467 552 524 q 502 581 427 581 l 427 581 q 353 581 302 524 q 251 467 251 360 z "},"p":{"ha":848,"x_min":94,"x_max":797,"o":"m 94 -274 l 94 720 l 272 720 l 272 614 q 307 669 366 703 q 425 736 496 736 l 496 736 q 622 736 709 638 q 797 540 797 364 l 797 364 q 797 184 709 84 q 621 -16 495 -16 l 495 -16 q 435 -16 387 7 q 338 31 285 89 l 285 89 l 285 -274 l 94 -274 z m 283 372 l 283 372 q 283 251 331 193 q 379 135 448 135 l 448 135 q 515 135 559 188 q 603 241 603 363 l 603 363 q 603 476 557 531 q 512 586 445 586 l 445 586 q 375 586 329 532 q 283 478 283 372 z "},"q":{"ha":848,"x_min":62,"x_max":761,"o":"m 761 -274 l 570 -274 l 570 88 q 533 40 477 12 q 422 -16 357 -16 l 357 -16 q 235 -16 155 76 l 155 76 q 62 184 62 368 l 62 368 q 62 542 150 639 q 237 736 368 736 l 368 736 q 439 736 492 706 q 545 675 585 614 l 585 614 l 585 720 l 761 720 l 761 -274 z m 576 369 l 576 369 q 576 479 531 533 q 486 587 418 587 l 418 587 q 349 587 303 532 q 256 477 256 358 l 256 358 q 256 239 301 187 q 346 134 412 134 l 412 134 q 477 134 527 193 q 576 252 576 369 z "},"r":{"ha":541,"x_min":92,"x_max":558,"o":"m 282 222 l 282 0 l 92 0 l 92 720 l 269 720 l 269 618 q 314 690 350 713 q 387 736 433 736 l 433 736 q 498 736 558 701 l 558 701 l 499 534 q 451 566 410 566 l 410 566 q 370 566 342 544 q 314 522 298 464 q 282 406 282 222 l 282 222 z "},"s":{"ha":772,"x_min":33,"x_max":705,"o":"m 33 205 l 33 205 l 224 235 q 236 179 273 150 q 311 121 378 121 l 378 121 q 452 121 489 149 l 489 149 q 514 168 514 199 l 514 199 q 514 221 500 235 l 500 235 q 486 249 437 260 l 437 260 q 206 311 144 353 l 144 353 q 59 412 59 515 l 59 515 q 59 609 133 673 q 207 736 362 736 l 362 736 q 510 736 582 688 q 654 640 681 546 l 681 546 l 501 513 q 490 555 457 577 q 425 600 366 600 l 366 600 q 290 600 258 578 l 258 578 q 236 564 236 540 l 236 540 q 236 519 255 505 l 255 505 q 281 486 433 452 q 585 417 646 367 l 646 367 q 705 316 705 225 l 705 225 q 705 126 623 55 q 540 -16 378 -16 l 378 -16 q 231 -16 145 43 q 59 103 33 205 z "},"t":{"ha":463,"x_min":21,"x_max":446,"o":"m 300 720 l 430 720 l 430 568 l 300 568 l 300 278 q 300 190 303 175 q 307 161 320 151 q 334 142 353 142 l 353 142 q 379 142 429 160 l 429 160 l 446 12 q 379 -16 295 -16 l 295 -16 q 243 -16 202 1 q 161 18 141 46 q 122 73 115 120 l 115 120 q 109 153 109 254 l 109 254 l 109 568 l 21 568 l 21 720 l 109 720 l 109 863 l 300 975 l 300 720 z "},"u":{"ha":848,"x_min":96,"x_max":751,"o":"m 751 0 l 574 0 l 574 108 q 534 50 470 17 q 406 -16 335 -16 l 335 -16 q 262 -16 205 16 q 147 47 121 105 q 96 163 96 264 l 96 264 l 96 720 l 286 720 l 286 389 q 286 237 297 203 q 307 169 335 149 q 363 129 406 129 l 406 129 q 454 129 493 156 q 532 182 546 222 q 560 262 560 416 l 560 416 l 560 720 l 751 720 l 751 0 z "},"v":{"ha":772,"x_min":7,"x_max":755,"o":"m 469 0 l 298 0 l 7 720 l 208 720 l 343 353 l 382 230 q 398 277 402 292 l 402 292 q 412 322 422 353 l 422 353 l 559 720 l 755 720 l 469 0 z "},"w":{"ha":1080,"x_min":6,"x_max":1080,"o":"m 419 0 l 234 0 l 6 720 l 191 720 l 326 248 l 450 720 l 634 720 l 754 248 l 892 720 l 1080 720 l 848 0 l 665 0 l 541 463 l 419 0 z "},"x":{"ha":772,"x_min":8,"x_max":760,"o":"m 231 0 l 8 0 l 268 371 l 19 720 l 252 720 l 379 522 l 513 720 l 737 720 l 493 379 l 760 0 l 526 0 l 379 223 l 231 0 z "},"y":{"ha":772,"x_min":9,"x_max":750,"o":"m 283 -2 l 9 720 l 212 720 l 385 209 l 553 720 l 750 720 l 496 27 l 450 -98 q 425 -161 402 -195 q 380 -228 350 -249 q 321 -269 278 -281 q 235 -292 180 -292 l 180 -292 q 125 -292 73 -281 l 73 -281 l 56 -132 q 100 -140 136 -140 l 136 -140 q 203 -140 235 -101 q 267 -62 283 -2 l 283 -2 z "},"z":{"ha":694,"x_min":23,"x_max":666,"o":"m 666 0 l 23 0 l 23 149 l 293 458 q 359 534 391 566 l 391 566 q 358 564 304 564 l 304 564 l 50 562 l 50 720 l 645 720 l 645 585 l 370 268 l 273 163 q 352 168 371 168 l 371 168 l 666 168 l 666 0 z "},"{":{"ha":541,"x_min":41,"x_max":505,"o":"m 41 278 l 41 278 l 41 441 q 90 444 115 456 q 140 468 159 497 q 177 526 184 569 l 184 569 q 189 602 189 682 l 189 682 q 189 814 201 866 q 214 918 245 949 q 277 981 338 999 l 338 999 q 380 1011 469 1011 l 469 1011 l 505 1011 l 505 849 q 429 849 408 841 q 387 832 376 815 q 366 798 366 755 l 366 755 q 366 713 360 593 l 360 593 q 357 526 342 485 q 328 443 306 416 q 284 389 239 359 l 239 359 q 279 336 304 306 q 330 275 343 231 q 357 186 361 113 l 361 113 q 366 0 366 -31 l 366 -31 q 366 -76 376 -94 q 387 -111 409 -120 q 431 -130 505 -130 l 505 -130 l 505 -292 l 469 -292 q 377 -292 328 -278 q 279 -263 246 -229 q 212 -195 201 -145 q 189 -96 189 12 l 189 12 q 189 136 178 174 l 178 174 q 163 228 133 251 q 103 275 41 278 z "},"|":{"ha":389,"x_min":119,"x_max":271,"o":"m 271 -292 l 119 -292 l 119 1011 l 271 1011 l 271 -292 z "},"}":{"ha":541,"x_min":31,"x_max":494,"o":"m 494 441 l 494 278 q 445 275 420 263 q 395 251 377 222 q 359 193 351 150 l 351 150 q 346 117 346 37 l 346 37 q 346 -94 334 -146 q 322 -199 290 -230 q 258 -262 197 -280 l 197 -280 q 155 -292 66 -292 l 66 -292 l 31 -292 l 31 -130 q 103 -130 125 -120 q 148 -111 158 -94 q 169 -77 169 -35 q 170 6 175 123 l 175 123 q 178 193 193 236 q 208 278 233 308 q 258 337 296 359 l 296 359 q 246 392 223 423 l 223 423 q 191 468 180 537 l 180 537 q 172 585 169 746 l 169 746 q 168 797 160 814 q 151 831 129 840 q 107 849 31 849 l 31 849 l 31 1011 l 66 1011 q 158 1011 207 997 q 256 983 289 948 q 322 914 334 864 q 346 814 346 707 l 346 707 q 346 583 356 545 l 356 545 q 371 491 401 468 q 432 444 494 441 l 494 441 z "},"~":{"ha":811,"x_min":45,"x_max":766,"o":"m 45 352 l 45 352 l 45 528 q 132 621 246 621 l 246 621 q 289 621 325 613 q 361 604 454 567 q 547 529 581 529 l 581 529 q 618 529 668 552 q 718 576 766 627 l 766 627 l 766 444 q 734 411 679 382 q 623 354 563 354 l 563 354 q 529 354 497 362 q 465 370 395 401 l 395 401 q 290 446 231 446 l 231 446 q 136 446 45 352 z "},"Ä":{"ha":1003,"x_min":0,"x_max":998,"o":"m 600 994 l 998 0 l 779 0 l 692 226 l 295 226 l 213 0 l 0 0 l 387 994 l 600 994 z m 357 393 l 628 393 l 491 762 l 357 393 z m 423 1051 l 260 1051 l 260 1215 l 423 1215 l 423 1051 z m 715 1051 l 551 1051 l 551 1215 l 715 1215 l 715 1051 z "},"Å":{"ha":1003,"x_min":0,"x_max":998,"o":"m 600 994 l 998 0 l 779 0 l 692 226 l 295 226 l 213 0 l 0 0 l 387 994 l 600 994 z m 357 393 l 628 393 l 491 762 l 357 393 z m 625 1059 l 625 1059 q 625 1004 586 965 q 547 926 492 926 l 492 926 q 437 926 398 965 q 359 1004 359 1059 l 359 1059 q 359 1114 398 1153 q 437 1192 492 1192 l 492 1192 q 547 1192 586 1154 q 625 1115 625 1059 z m 552 1059 l 552 1059 q 552 1084 534 1102 q 517 1120 492 1120 l 492 1120 q 467 1120 449 1102 q 431 1084 431 1059 l 431 1059 q 431 1034 449 1017 q 467 999 492 999 l 492 999 q 517 999 534 1017 q 552 1034 552 1059 z "},"Ç":{"ha":1003,"x_min":66,"x_max":932,"o":"m 737 366 l 737 366 l 932 304 q 887 141 783 62 q 679 -17 519 -17 l 519 -17 q 321 -17 193 118 q 66 254 66 488 l 66 488 q 66 736 194 874 q 322 1011 531 1011 l 531 1011 q 713 1011 827 903 l 827 903 q 895 840 929 720 l 929 720 l 730 673 q 713 750 657 795 q 601 840 521 840 l 521 840 q 410 840 341 760 q 273 681 273 503 l 273 503 q 273 315 340 235 q 408 155 517 155 l 517 155 q 597 155 654 205 q 712 256 737 366 z m 315 -273 l 315 -273 l 315 -193 q 385 -201 444 -201 l 444 -201 q 504 -201 533 -179 l 533 -179 q 555 -163 555 -137 l 555 -137 q 555 -114 534 -97 q 513 -80 469 -80 l 469 -80 q 426 -80 380 -94 l 380 -94 l 398 -26 q 451 -8 512 -8 l 512 -8 q 597 -8 641 -45 q 685 -83 685 -136 l 685 -136 q 685 -196 636 -233 l 636 -233 q 570 -284 448 -284 l 448 -284 q 360 -284 315 -273 z "},"É":{"ha":926,"x_min":101,"x_max":857,"o":"m 857 0 l 101 0 l 101 994 l 838 994 l 838 826 l 302 826 l 302 606 l 801 606 l 801 438 l 302 438 l 302 168 l 857 168 l 857 0 z m 477 1051 l 356 1051 l 450 1254 l 663 1254 l 477 1051 z "},"Ñ":{"ha":1003,"x_min":103,"x_max":892,"o":"m 290 0 l 103 0 l 103 994 l 298 994 l 705 330 l 705 994 l 892 994 l 892 0 l 690 0 l 290 648 l 290 0 z m 353 1049 l 353 1049 l 266 1049 q 265 1065 265 1074 l 265 1074 q 265 1145 300 1183 q 334 1221 389 1221 l 389 1221 q 412 1221 433 1216 q 453 1211 507 1187 q 561 1163 591 1163 l 591 1163 q 613 1163 628 1177 q 642 1190 646 1222 l 646 1222 l 734 1222 q 734 1131 700 1091 q 667 1052 614 1052 l 614 1052 q 591 1052 568 1057 l 568 1057 q 553 1061 490 1084 q 428 1108 399 1108 l 399 1108 q 378 1108 366 1095 q 353 1082 353 1049 z "},"Ö":{"ha":1080,"x_min":60,"x_max":1025,"o":"m 60 491 l 60 491 q 60 643 106 746 l 106 746 q 140 822 198 882 q 257 943 327 972 l 327 972 q 420 1011 541 1011 l 541 1011 q 761 1011 893 875 q 1025 739 1025 496 l 1025 496 q 1025 255 894 119 q 763 -17 544 -17 l 544 -17 q 322 -17 191 118 q 60 254 60 491 z m 267 498 l 267 498 q 267 329 345 242 q 423 155 543 155 l 543 155 q 663 155 740 241 q 817 328 817 500 l 817 500 q 817 671 742 755 q 667 840 543 840 l 543 840 q 419 840 343 754 q 267 669 267 498 z m 467 1051 l 303 1051 l 303 1215 l 467 1215 l 467 1051 z m 759 1051 l 595 1051 l 595 1215 l 759 1215 l 759 1051 z "},"Ü":{"ha":1003,"x_min":100,"x_max":892,"o":"m 100 464 l 100 994 l 300 994 l 300 456 q 300 328 308 290 l 308 290 q 321 229 369 192 q 418 155 502 155 l 502 155 q 587 155 631 190 q 674 224 683 275 q 692 326 692 444 l 692 444 l 692 994 l 892 994 l 892 472 q 892 293 876 219 q 860 145 816 94 q 772 43 699 13 q 626 -17 508 -17 l 508 -17 q 366 -17 292 16 q 218 49 176 101 q 133 154 119 212 l 119 212 q 100 297 100 464 l 100 464 z m 434 1051 l 271 1051 l 271 1215 l 434 1215 l 434 1051 z m 726 1051 l 562 1051 l 562 1215 l 726 1215 l 726 1051 z "},"á":{"ha":772,"x_min":50,"x_max":726,"o":"m 242 500 l 242 500 l 69 532 q 98 636 170 686 q 241 736 381 736 l 381 736 q 509 736 571 706 q 633 676 659 630 q 684 583 684 459 l 684 459 l 682 237 q 682 142 691 97 q 701 52 726 0 l 726 0 l 537 0 q 530 19 519 56 l 519 56 q 514 73 512 79 l 512 79 q 463 31 408 7 q 352 -16 289 -16 l 289 -16 q 178 -16 114 44 q 50 104 50 197 l 50 197 q 50 258 79 306 q 108 353 160 379 q 213 404 312 423 l 312 423 q 446 448 497 470 l 497 470 l 497 489 q 497 544 470 567 q 443 591 368 591 l 368 591 q 317 591 288 571 q 260 551 242 500 z m 497 308 l 497 346 q 460 334 381 317 q 302 300 277 283 l 277 283 q 240 257 240 216 l 240 216 q 240 176 270 147 q 300 118 346 118 l 346 118 q 397 118 444 152 l 444 152 q 479 178 490 215 l 490 215 q 497 239 497 308 l 497 308 z m 412 808 l 291 808 l 385 1011 l 598 1011 l 412 808 z "},"à":{"ha":772,"x_min":50,"x_max":726,"o":"m 242 500 l 242 500 l 69 532 q 98 636 170 686 q 241 736 381 736 l 381 736 q 509 736 571 706 q 633 676 659 630 q 684 583 684 459 l 684 459 l 682 237 q 682 142 691 97 q 701 52 726 0 l 726 0 l 537 0 q 530 19 519 56 l 519 56 q 514 73 512 79 l 512 79 q 463 31 408 7 q 352 -16 289 -16 l 289 -16 q 178 -16 114 44 q 50 104 50 197 l 50 197 q 50 258 79 306 q 108 353 160 379 q 213 404 312 423 l 312 423 q 446 448 497 470 l 497 470 l 497 489 q 497 544 470 567 q 443 591 368 591 l 368 591 q 317 591 288 571 q 260 551 242 500 z m 497 308 l 497 346 q 460 334 381 317 q 302 300 277 283 l 277 283 q 240 257 240 216 l 240 216 q 240 176 270 147 q 300 118 346 118 l 346 118 q 397 118 444 152 l 444 152 q 479 178 490 215 l 490 215 q 497 239 497 308 l 497 308 z m 390 1011 l 484 808 l 363 808 l 176 1011 l 390 1011 z "},"â":{"ha":772,"x_min":50,"x_max":726,"o":"m 242 500 l 242 500 l 69 532 q 98 636 170 686 q 241 736 381 736 l 381 736 q 509 736 571 706 q 633 676 659 630 q 684 583 684 459 l 684 459 l 682 237 q 682 142 691 97 q 701 52 726 0 l 726 0 l 537 0 q 530 19 519 56 l 519 56 q 514 73 512 79 l 512 79 q 463 31 408 7 q 352 -16 289 -16 l 289 -16 q 178 -16 114 44 q 50 104 50 197 l 50 197 q 50 258 79 306 q 108 353 160 379 q 213 404 312 423 l 312 423 q 446 448 497 470 l 497 470 l 497 489 q 497 544 470 567 q 443 591 368 591 l 368 591 q 317 591 288 571 q 260 551 242 500 z m 497 308 l 497 346 q 460 334 381 317 q 302 300 277 283 l 277 283 q 240 257 240 216 l 240 216 q 240 176 270 147 q 300 118 346 118 l 346 118 q 397 118 444 152 l 444 152 q 479 178 490 215 l 490 215 q 497 239 497 308 l 497 308 z m 312 811 l 158 811 l 300 1011 l 477 1011 l 617 811 l 464 811 l 385 912 l 312 811 z "},"ä":{"ha":772,"x_min":50,"x_max":726,"o":"m 242 500 l 242 500 l 69 532 q 98 636 170 686 q 241 736 381 736 l 381 736 q 509 736 571 706 q 633 676 659 630 q 684 583 684 459 l 684 459 l 682 237 q 682 142 691 97 q 701 52 726 0 l 726 0 l 537 0 q 530 19 519 56 l 519 56 q 514 73 512 79 l 512 79 q 463 31 408 7 q 352 -16 289 -16 l 289 -16 q 178 -16 114 44 q 50 104 50 197 l 50 197 q 50 258 79 306 q 108 353 160 379 q 213 404 312 423 l 312 423 q 446 448 497 470 l 497 470 l 497 489 q 497 544 470 567 q 443 591 368 591 l 368 591 q 317 591 288 571 q 260 551 242 500 z m 497 308 l 497 346 q 460 334 381 317 q 302 300 277 283 l 277 283 q 240 257 240 216 l 240 216 q 240 176 270 147 q 300 118 346 118 l 346 118 q 397 118 444 152 l 444 152 q 479 178 490 215 l 490 215 q 497 239 497 308 l 497 308 z m 323 848 l 160 848 l 160 1011 l 323 1011 l 323 848 z m 616 848 l 452 848 l 452 1011 l 616 1011 l 616 848 z "},"ã":{"ha":772,"x_min":50,"x_max":726,"o":"m 242 500 l 242 500 l 69 532 q 98 636 170 686 q 241 736 381 736 l 381 736 q 509 736 571 706 q 633 676 659 630 q 684 583 684 459 l 684 459 l 682 237 q 682 142 691 97 q 701 52 726 0 l 726 0 l 537 0 q 530 19 519 56 l 519 56 q 514 73 512 79 l 512 79 q 463 31 408 7 q 352 -16 289 -16 l 289 -16 q 178 -16 114 44 q 50 104 50 197 l 50 197 q 50 258 79 306 q 108 353 160 379 q 213 404 312 423 l 312 423 q 446 448 497 470 l 497 470 l 497 489 q 497 544 470 567 q 443 591 368 591 l 368 591 q 317 591 288 571 q 260 551 242 500 z m 497 308 l 497 346 q 460 334 381 317 q 302 300 277 283 l 277 283 q 240 257 240 216 l 240 216 q 240 176 270 147 q 300 118 346 118 l 346 118 q 397 118 444 152 l 444 152 q 479 178 490 215 l 490 215 q 497 239 497 308 l 497 308 z m 241 817 l 241 817 l 154 817 q 153 833 153 842 l 153 842 q 153 913 188 951 q 222 989 277 989 l 277 989 q 300 989 321 984 q 341 979 395 955 q 449 931 479 931 l 479 931 q 501 931 516 945 q 530 958 534 990 l 534 990 l 623 990 q 622 899 588 859 q 555 820 502 820 l 502 820 q 479 820 456 825 l 456 825 q 441 829 378 852 q 316 876 288 876 l 288 876 q 266 876 254 863 q 241 850 241 817 z "},"å":{"ha":772,"x_min":50,"x_max":726,"o":"m 242 500 l 242 500 l 69 532 q 98 636 170 686 q 241 736 381 736 l 381 736 q 509 736 571 706 q 633 676 659 630 q 684 583 684 459 l 684 459 l 682 237 q 682 142 691 97 q 701 52 726 0 l 726 0 l 537 0 q 530 19 519 56 l 519 56 q 514 73 512 79 l 512 79 q 463 31 408 7 q 352 -16 289 -16 l 289 -16 q 178 -16 114 44 q 50 104 50 197 l 50 197 q 50 258 79 306 q 108 353 160 379 q 213 404 312 423 l 312 423 q 446 448 497 470 l 497 470 l 497 489 q 497 544 470 567 q 443 591 368 591 l 368 591 q 317 591 288 571 q 260 551 242 500 z m 497 308 l 497 346 q 460 334 381 317 q 302 300 277 283 l 277 283 q 240 257 240 216 l 240 216 q 240 176 270 147 q 300 118 346 118 l 346 118 q 397 118 444 152 l 444 152 q 479 178 490 215 l 490 215 q 497 239 497 308 l 497 308 z m 520 910 l 520 910 q 520 855 481 816 q 442 777 387 777 l 387 777 q 332 777 293 816 q 254 855 254 910 l 254 910 q 254 965 293 1004 q 332 1043 387 1043 l 387 1043 q 442 1043 481 1004 q 520 966 520 910 z m 448 910 l 448 910 q 448 935 430 953 q 412 970 387 970 l 387 970 q 362 970 345 953 q 327 935 327 910 l 327 910 q 327 885 345 867 q 362 850 387 850 l 387 850 q 412 850 430 867 q 448 885 448 910 z "},"ç":{"ha":772,"x_min":58,"x_max":737,"o":"m 728 507 l 728 507 l 540 473 q 530 530 497 558 q 463 587 410 587 l 410 587 q 338 587 296 537 q 254 488 254 373 l 254 373 q 254 245 297 192 q 340 139 412 139 l 412 139 q 467 139 501 170 q 536 201 550 276 l 550 276 l 737 244 q 708 115 625 50 q 543 -16 404 -16 l 404 -16 q 245 -16 152 83 q 58 183 58 359 l 58 359 q 58 538 152 637 q 246 736 407 736 l 407 736 q 538 736 616 680 q 694 623 728 507 z m 214 -273 l 214 -273 l 214 -193 q 284 -201 342 -201 l 342 -201 q 403 -201 432 -179 l 432 -179 q 454 -163 454 -137 l 454 -137 q 454 -114 433 -97 q 412 -80 368 -80 l 368 -80 q 325 -80 279 -94 l 279 -94 l 297 -26 q 350 -8 411 -8 l 411 -8 q 496 -8 540 -45 q 584 -83 584 -136 l 584 -136 q 584 -196 535 -233 l 535 -233 q 469 -284 347 -284 l 347 -284 q 259 -284 214 -273 z "},"é":{"ha":772,"x_min":44,"x_max":721,"o":"m 517 229 l 517 229 l 707 197 q 670 93 591 38 q 512 -16 393 -16 l 393 -16 q 205 -16 115 106 l 115 106 q 44 205 44 355 l 44 355 q 44 534 138 635 q 231 736 374 736 l 374 736 q 535 736 628 630 q 721 524 717 305 l 717 305 l 239 305 q 241 220 286 173 q 330 126 395 126 l 395 126 q 440 126 471 151 q 501 175 517 229 z m 243 422 l 528 422 q 526 505 485 548 q 444 591 386 591 l 386 591 q 323 591 283 545 l 283 545 q 242 500 243 422 l 243 422 z m 405 808 l 284 808 l 378 1011 l 591 1011 l 405 808 z "},"è":{"ha":772,"x_min":44,"x_max":721,"o":"m 517 229 l 517 229 l 707 197 q 670 93 591 38 q 512 -16 393 -16 l 393 -16 q 205 -16 115 106 l 115 106 q 44 205 44 355 l 44 355 q 44 534 138 635 q 231 736 374 736 l 374 736 q 535 736 628 630 q 721 524 717 305 l 717 305 l 239 305 q 241 220 286 173 q 330 126 395 126 l 395 126 q 440 126 471 151 q 501 175 517 229 z m 243 422 l 528 422 q 526 505 485 548 q 444 591 386 591 l 386 591 q 323 591 283 545 l 283 545 q 242 500 243 422 l 243 422 z m 383 1011 l 477 808 l 357 808 l 170 1011 l 383 1011 z "},"ê":{"ha":772,"x_min":44,"x_max":721,"o":"m 517 229 l 517 229 l 707 197 q 670 93 591 38 q 512 -16 393 -16 l 393 -16 q 205 -16 115 106 l 115 106 q 44 205 44 355 l 44 355 q 44 534 138 635 q 231 736 374 736 l 374 736 q 535 736 628 630 q 721 524 717 305 l 717 305 l 239 305 q 241 220 286 173 q 330 126 395 126 l 395 126 q 440 126 471 151 q 501 175 517 229 z m 243 422 l 528 422 q 526 505 485 548 q 444 591 386 591 l 386 591 q 323 591 283 545 l 283 545 q 242 500 243 422 l 243 422 z m 305 811 l 151 811 l 294 1011 l 470 1011 l 610 811 l 457 811 l 378 912 l 305 811 z "},"ë":{"ha":772,"x_min":44,"x_max":721,"o":"m 517 229 l 517 229 l 707 197 q 670 93 591 38 q 512 -16 393 -16 l 393 -16 q 205 -16 115 106 l 115 106 q 44 205 44 355 l 44 355 q 44 534 138 635 q 231 736 374 736 l 374 736 q 535 736 628 630 q 721 524 717 305 l 717 305 l 239 305 q 241 220 286 173 q 330 126 395 126 l 395 126 q 440 126 471 151 q 501 175 517 229 z m 243 422 l 528 422 q 526 505 485 548 q 444 591 386 591 l 386 591 q 323 591 283 545 l 283 545 q 242 500 243 422 l 243 422 z m 316 848 l 153 848 l 153 1011 l 316 1011 l 316 848 z m 608 848 l 444 848 l 444 1011 l 608 1011 l 608 848 z "},"í":{"ha":386,"x_min":85,"x_max":393,"o":"m 290 0 l 100 0 l 100 720 l 290 720 l 290 0 z m 206 808 l 85 808 l 179 1011 l 393 1011 l 206 808 z "},"ì":{"ha":386,"x_min":-16,"x_max":292,"o":"m 290 0 l 100 0 l 100 720 l 290 720 l 290 0 z m 198 1011 l 292 808 l 172 808 l -16 1011 l 198 1011 z "},"î":{"ha":386,"x_min":-35,"x_max":425,"o":"m 290 0 l 100 0 l 100 720 l 290 720 l 290 0 z m 119 811 l -35 811 l 108 1011 l 284 1011 l 425 811 l 271 811 l 193 912 l 119 811 z "},"ï":{"ha":386,"x_min":-33,"x_max":423,"o":"m 290 0 l 100 0 l 100 720 l 290 720 l 290 0 z m 131 848 l -33 848 l -33 1011 l 131 1011 l 131 848 z m 423 848 l 259 848 l 259 1011 l 423 1011 l 423 848 z "},"ñ":{"ha":848,"x_min":98,"x_max":755,"o":"m 755 448 l 755 0 l 564 0 l 564 368 q 564 484 552 518 q 540 553 512 572 q 485 591 446 591 l 446 591 q 397 591 357 564 q 318 536 303 492 q 289 447 289 326 l 289 326 l 289 0 l 98 0 l 98 720 l 275 720 l 275 614 q 370 736 513 736 l 513 736 q 576 736 628 714 q 680 691 707 656 q 734 621 744 576 q 755 531 755 448 l 755 448 z m 279 817 l 279 817 l 193 817 q 192 833 192 842 l 192 842 q 192 913 227 951 q 261 989 315 989 l 315 989 q 339 989 359 984 q 380 979 434 955 q 488 931 518 931 l 518 931 q 540 931 554 945 q 569 958 573 990 l 573 990 l 661 990 q 661 899 627 859 q 593 820 541 820 l 541 820 q 517 820 495 825 l 495 825 q 479 829 417 852 q 355 876 326 876 l 326 876 q 304 876 292 863 q 280 850 279 817 z "},"ó":{"ha":848,"x_min":56,"x_max":799,"o":"m 56 370 l 56 370 q 56 465 102 554 q 149 643 235 690 q 321 736 427 736 l 427 736 q 590 736 694 630 q 799 524 799 362 l 799 362 q 799 199 693 91 q 588 -16 428 -16 l 428 -16 q 329 -16 239 28 q 149 73 102 160 q 56 246 56 370 z m 251 360 l 251 360 q 251 253 302 196 q 353 139 427 139 l 427 139 q 502 139 552 196 q 603 253 603 361 l 603 361 q 603 467 552 524 q 502 581 427 581 l 427 581 q 353 581 302 524 q 251 467 251 360 z m 452 808 l 331 808 l 425 1011 l 638 1011 l 452 808 z "},"ò":{"ha":848,"x_min":56,"x_max":799,"o":"m 56 370 l 56 370 q 56 465 102 554 q 149 643 235 690 q 321 736 427 736 l 427 736 q 590 736 694 630 q 799 524 799 362 l 799 362 q 799 199 693 91 q 588 -16 428 -16 l 428 -16 q 329 -16 239 28 q 149 73 102 160 q 56 246 56 370 z m 251 360 l 251 360 q 251 253 302 196 q 353 139 427 139 l 427 139 q 502 139 552 196 q 603 253 603 361 l 603 361 q 603 467 552 524 q 502 581 427 581 l 427 581 q 353 581 302 524 q 251 467 251 360 z m 429 1011 l 523 808 l 403 808 l 216 1011 l 429 1011 z "},"ô":{"ha":848,"x_min":56,"x_max":799,"o":"m 56 370 l 56 370 q 56 465 102 554 q 149 643 235 690 q 321 736 427 736 l 427 736 q 590 736 694 630 q 799 524 799 362 l 799 362 q 799 199 693 91 q 588 -16 428 -16 l 428 -16 q 329 -16 239 28 q 149 73 102 160 q 56 246 56 370 z m 251 360 l 251 360 q 251 253 302 196 q 353 139 427 139 l 427 139 q 502 139 552 196 q 603 253 603 361 l 603 361 q 603 467 552 524 q 502 581 427 581 l 427 581 q 353 581 302 524 q 251 467 251 360 z m 351 811 l 197 811 l 340 1011 l 516 1011 l 656 811 l 503 811 l 425 912 l 351 811 z "},"ö":{"ha":848,"x_min":56,"x_max":799,"o":"m 56 370 l 56 370 q 56 465 102 554 q 149 643 235 690 q 321 736 427 736 l 427 736 q 590 736 694 630 q 799 524 799 362 l 799 362 q 799 199 693 91 q 588 -16 428 -16 l 428 -16 q 329 -16 239 28 q 149 73 102 160 q 56 246 56 370 z m 251 360 l 251 360 q 251 253 302 196 q 353 139 427 139 l 427 139 q 502 139 552 196 q 603 253 603 361 l 603 361 q 603 467 552 524 q 502 581 427 581 l 427 581 q 353 581 302 524 q 251 467 251 360 z m 355 848 l 192 848 l 192 1011 l 355 1011 l 355 848 z m 648 848 l 484 848 l 484 1011 l 648 1011 l 648 848 z "},"õ":{"ha":848,"x_min":56,"x_max":799,"o":"m 56 370 l 56 370 q 56 465 102 554 q 149 643 235 690 q 321 736 427 736 l 427 736 q 590 736 694 630 q 799 524 799 362 l 799 362 q 799 199 693 91 q 588 -16 428 -16 l 428 -16 q 329 -16 239 28 q 149 73 102 160 q 56 246 56 370 z m 251 360 l 251 360 q 251 253 302 196 q 353 139 427 139 l 427 139 q 502 139 552 196 q 603 253 603 361 l 603 361 q 603 467 552 524 q 502 581 427 581 l 427 581 q 353 581 302 524 q 251 467 251 360 z m 280 817 l 280 817 l 193 817 q 193 833 193 842 l 193 842 q 193 913 227 951 q 262 989 316 989 l 316 989 q 340 989 360 984 q 380 979 434 955 q 488 931 519 931 l 519 931 q 541 931 555 945 q 570 958 574 990 l 574 990 l 662 990 q 661 899 628 859 q 594 820 541 820 l 541 820 q 518 820 496 825 l 496 825 q 480 829 418 852 q 355 876 327 876 l 327 876 q 305 876 293 863 q 281 850 280 817 z "},"ú":{"ha":848,"x_min":96,"x_max":751,"o":"m 751 0 l 574 0 l 574 108 q 534 50 470 17 q 406 -16 335 -16 l 335 -16 q 262 -16 205 16 q 147 47 121 105 q 96 163 96 264 l 96 264 l 96 720 l 286 720 l 286 389 q 286 237 297 203 q 307 169 335 149 q 363 129 406 129 l 406 129 q 454 129 493 156 q 532 182 546 222 q 560 262 560 416 l 560 416 l 560 720 l 751 720 l 751 0 z m 448 808 l 327 808 l 420 1011 l 634 1011 l 448 808 z "},"ù":{"ha":848,"x_min":96,"x_max":751,"o":"m 751 0 l 574 0 l 574 108 q 534 50 470 17 q 406 -16 335 -16 l 335 -16 q 262 -16 205 16 q 147 47 121 105 q 96 163 96 264 l 96 264 l 96 720 l 286 720 l 286 389 q 286 237 297 203 q 307 169 335 149 q 363 129 406 129 l 406 129 q 454 129 493 156 q 532 182 546 222 q 560 262 560 416 l 560 416 l 560 720 l 751 720 l 751 0 z m 426 1011 l 519 808 l 399 808 l 212 1011 l 426 1011 z "},"û":{"ha":848,"x_min":96,"x_max":751,"o":"m 751 0 l 574 0 l 574 108 q 534 50 470 17 q 406 -16 335 -16 l 335 -16 q 262 -16 205 16 q 147 47 121 105 q 96 163 96 264 l 96 264 l 96 720 l 286 720 l 286 389 q 286 237 297 203 q 307 169 335 149 q 363 129 406 129 l 406 129 q 454 129 493 156 q 532 182 546 222 q 560 262 560 416 l 560 416 l 560 720 l 751 720 l 751 0 z m 348 811 l 194 811 l 336 1011 l 513 1011 l 653 811 l 500 811 l 421 912 l 348 811 z "},"ü":{"ha":848,"x_min":96,"x_max":751,"o":"m 751 0 l 574 0 l 574 108 q 534 50 470 17 q 406 -16 335 -16 l 335 -16 q 262 -16 205 16 q 147 47 121 105 q 96 163 96 264 l 96 264 l 96 720 l 286 720 l 286 389 q 286 237 297 203 q 307 169 335 149 q 363 129 406 129 l 406 129 q 454 129 493 156 q 532 182 546 222 q 560 262 560 416 l 560 416 l 560 720 l 751 720 l 751 0 z m 359 848 l 195 848 l 195 1011 l 359 1011 l 359 848 z m 651 848 l 487 848 l 487 1011 l 651 1011 l 651 848 z "},"†":{"ha":772,"x_min":46,"x_max":718,"o":"m 472 -237 l 294 -237 l 294 563 l 46 563 l 46 720 l 294 720 l 294 982 l 472 982 l 472 720 l 718 720 l 718 563 l 472 563 l 472 -237 z "},"°":{"ha":555,"x_min":58,"x_max":491,"o":"m 58 795 l 58 795 q 58 885 122 948 q 185 1011 275 1011 l 275 1011 q 364 1011 428 948 q 491 884 491 795 l 491 795 q 491 705 428 642 q 364 578 275 578 l 275 578 q 185 578 122 642 q 58 705 58 795 z m 171 795 l 171 795 q 171 752 201 722 q 232 691 275 691 l 275 691 q 317 691 348 722 q 378 752 378 795 l 378 795 q 378 838 348 868 q 317 899 275 899 l 275 899 q 232 899 201 868 q 171 838 171 795 z "},"¢":{"ha":772,"x_min":57,"x_max":736,"o":"m 505 550 l 505 550 l 381 142 q 396 139 412 139 l 412 139 q 465 139 500 170 q 535 201 549 276 l 549 276 l 736 244 q 707 115 625 50 q 542 -16 404 -16 l 404 -16 q 370 -16 335 -12 l 335 -12 l 256 -273 l 173 -250 l 252 11 q 158 52 107 144 q 57 237 57 363 l 57 363 q 57 538 151 637 q 245 736 406 736 l 406 736 q 436 736 469 732 l 469 732 l 546 987 l 629 964 l 553 712 q 682 663 727 507 l 727 507 l 539 473 q 531 522 505 550 z m 304 182 l 425 586 q 416 587 409 587 l 409 587 q 337 587 295 537 q 252 488 252 372 l 252 372 q 252 241 304 182 l 304 182 z "},"£":{"ha":772,"x_min":9,"x_max":751,"o":"m 677 193 l 677 193 l 751 32 q 712 11 662 -2 q 611 -16 564 -16 l 564 -16 q 503 -16 401 13 q 299 42 250 42 l 250 42 q 168 42 81 -17 l 81 -17 l 9 147 q 85 202 119 264 q 153 326 153 382 l 153 382 q 153 401 150 421 l 150 421 l 9 421 l 9 571 l 115 571 q 87 651 87 733 l 87 733 q 87 807 128 874 q 168 941 242 976 q 316 1011 404 1011 l 404 1011 q 537 1011 616 944 q 696 876 713 750 l 713 750 l 530 723 q 517 795 483 827 q 449 859 398 859 l 398 859 q 344 859 308 823 q 272 787 272 732 l 272 732 q 272 703 282 656 q 292 610 306 571 l 306 571 l 517 571 l 517 421 l 337 421 q 339 406 339 391 l 339 391 q 339 338 319 292 q 298 247 235 173 l 235 173 q 273 192 329 192 l 329 192 q 353 192 372 189 l 372 189 q 381 188 427 176 l 427 176 q 509 155 539 155 l 539 155 q 592 155 677 193 z "},"§":{"ha":772,"x_min":40,"x_max":724,"o":"m 669 783 l 669 783 l 482 763 q 479 813 453 840 q 426 866 378 866 l 378 866 q 334 866 311 847 q 288 827 288 803 l 288 803 q 288 770 319 739 l 319 739 q 340 719 458 643 q 576 567 614 534 l 614 534 q 673 485 699 436 q 724 388 724 329 l 724 329 q 724 266 693 213 q 663 159 601 116 l 601 116 q 642 78 663 35 q 683 -8 683 -56 l 683 -56 q 683 -157 608 -224 q 532 -292 391 -292 l 391 -292 q 256 -292 174 -225 q 93 -158 78 -46 l 78 -46 l 264 -24 q 276 -85 310 -116 q 345 -146 397 -146 l 397 -146 q 441 -146 468 -123 q 494 -100 494 -66 l 494 -66 q 494 -35 469 -9 l 469 -9 q 444 16 289 114 q 134 213 87 278 q 40 343 40 424 l 40 424 q 40 490 71 547 q 101 604 165 641 l 165 641 q 132 677 114 715 q 97 753 97 793 l 97 793 q 97 884 169 948 q 240 1011 370 1011 l 370 1011 q 503 1011 579 948 q 655 884 669 783 z m 304 331 l 498 199 q 528 226 543 251 q 557 275 557 298 l 557 298 q 557 321 542 345 q 526 368 456 419 l 456 419 l 271 553 q 248 540 231 515 q 213 490 213 461 l 213 461 q 213 393 304 331 l 304 331 z "},"•":{"ha":486,"x_min":45,"x_max":446,"o":"m 446 491 l 446 491 q 446 408 387 349 q 328 290 245 290 l 245 290 q 162 290 103 349 q 45 408 45 491 l 45 491 q 45 574 103 632 q 162 691 245 691 l 245 691 q 328 691 387 633 q 446 574 446 491 z "},"¶":{"ha":772,"x_min":-1,"x_max":766,"o":"m 431 817 l 431 -273 l 266 -273 l 266 437 q 137 446 68 519 q -1 593 -1 713 l -1 713 q -1 785 26 844 q 54 903 101 938 q 149 972 212 986 l 212 986 q 250 994 361 994 l 361 994 l 766 994 l 766 817 l 689 817 l 689 -273 l 528 -273 l 528 817 l 431 817 z "},"ß":{"ha":848,"x_min":94,"x_max":800,"o":"m 285 0 l 94 0 l 94 646 q 94 781 118 852 q 142 922 212 967 q 281 1011 391 1011 l 391 1011 q 530 1011 598 952 q 667 893 667 806 l 667 806 q 667 747 630 679 q 593 612 587 597 q 582 582 582 571 l 582 571 q 582 549 599 524 l 599 524 q 610 509 680 437 q 751 366 775 317 q 800 267 800 214 l 800 214 q 800 116 731 50 q 663 -16 559 -16 l 559 -16 q 487 -16 428 21 q 369 58 339 112 l 339 112 l 472 190 q 486 163 504 150 q 522 136 543 136 l 543 136 q 570 136 590 156 q 609 176 609 206 l 609 206 q 609 234 589 262 l 589 262 q 577 279 495 357 l 495 357 q 380 467 380 530 l 380 530 q 380 570 425 661 l 425 661 q 459 732 465 751 q 471 770 471 790 l 471 790 q 471 820 449 841 q 427 862 389 862 l 389 862 q 355 862 331 844 q 306 827 297 799 l 297 799 q 285 762 285 646 l 285 646 l 285 0 z "},"®":{"ha":1023,"x_min":-6,"x_max":1033,"o":"m 513 1015 l 513 1015 q 647 1015 770 948 q 892 881 963 756 q 1033 631 1033 495 l 1033 495 q 1033 359 964 236 q 895 113 772 44 q 649 -24 513 -24 l 513 -24 q 378 -24 255 44 q 132 113 63 236 q -6 359 -6 495 l -6 495 q -6 631 64 756 q 134 881 257 948 q 380 1015 513 1015 z m 514 913 l 514 913 q 407 913 309 859 q 210 806 154 705 q 97 605 97 495 l 97 495 q 97 386 152 287 q 208 188 307 132 q 406 77 514 77 l 514 77 q 623 77 722 132 q 821 188 876 287 q 932 386 932 495 l 932 495 q 932 605 875 705 q 819 806 720 859 q 621 913 514 913 z m 391 217 l 279 217 l 279 768 l 391 768 q 548 768 567 767 l 567 767 q 623 762 653 745 q 684 728 705 692 q 726 656 726 613 l 726 613 q 726 553 687 511 q 648 469 577 458 l 577 458 q 602 449 616 438 q 629 427 653 395 l 653 395 q 659 387 694 328 l 694 328 l 759 217 l 621 217 l 574 307 q 528 397 497 420 q 467 444 420 444 l 420 444 l 391 444 l 391 217 z m 391 681 l 391 530 l 436 530 q 533 530 556 538 q 580 545 593 564 q 607 583 607 606 l 607 606 q 607 629 594 647 q 581 665 556 673 q 532 681 436 681 l 436 681 l 391 681 z "},"©":{"ha":1023,"x_min":-6,"x_max":1033,"o":"m 513 1015 l 513 1015 q 647 1015 770 947 q 892 880 963 756 q 1033 631 1033 495 l 1033 495 q 1033 359 964 236 q 895 113 772 44 q 649 -24 513 -24 l 513 -24 q 378 -24 255 44 q 132 113 63 236 q -6 359 -6 495 l -6 495 q -6 631 64 756 q 134 880 257 947 q 380 1015 513 1015 z m 513 912 l 513 912 q 406 912 308 859 q 209 805 153 705 q 96 605 96 495 l 96 495 q 96 387 152 288 q 207 189 306 133 q 405 78 513 78 l 513 78 q 622 78 721 133 q 820 189 875 288 q 930 387 930 495 l 930 495 q 930 604 874 705 q 818 805 719 859 q 621 912 513 912 z m 640 418 l 640 418 l 749 381 q 723 296 663 250 q 604 205 521 205 l 521 205 q 405 205 332 281 q 258 357 258 490 l 258 490 q 258 578 291 646 q 323 715 385 749 q 446 783 522 783 l 522 783 q 606 783 662 743 q 718 703 749 618 l 749 618 l 639 592 q 620 642 590 664 q 559 686 518 686 l 518 686 q 456 686 417 640 q 378 593 378 494 l 378 494 q 378 395 416 349 q 455 302 509 302 l 509 302 q 555 302 588 329 q 621 355 640 418 z "},"™":{"ha":1389,"x_min":146,"x_max":1219,"o":"m 431 439 l 318 439 l 318 898 l 146 898 l 146 994 l 597 994 l 597 898 l 431 898 l 431 439 z m 770 439 l 665 439 l 665 994 l 840 994 l 941 612 l 1043 994 l 1219 994 l 1219 439 l 1112 439 l 1112 882 l 991 439 l 890 439 l 770 882 l 770 439 z "},"´":{"ha":463,"x_min":127,"x_max":434,"o":"m 248 808 l 127 808 l 220 1011 l 434 1011 l 248 808 z "},"¨":{"ha":463,"x_min":3,"x_max":459,"o":"m 167 848 l 3 848 l 3 1011 l 167 1011 l 167 848 z m 459 848 l 295 848 l 295 1011 l 459 1011 l 459 848 z "},"≠":{"ha":762,"x_min":33,"x_max":728,"o":"m 33 428 l 286 428 l 332 553 l 33 553 l 33 728 l 397 728 l 498 998 l 641 998 l 541 728 l 728 728 l 728 553 l 475 553 l 428 428 l 728 428 l 728 252 l 362 252 l 261 -17 l 121 -17 l 221 252 l 33 252 l 33 428 z "},"Æ":{"ha":1389,"x_min":-58,"x_max":1322,"o":"m 164 0 l -58 0 l 406 994 l 1303 994 l 1303 826 l 811 826 l 811 605 l 1265 605 l 1265 437 l 811 437 l 811 168 l 1322 168 l 1322 0 l 610 0 l 610 234 l 266 234 l 164 0 z m 534 844 l 340 408 l 612 408 l 612 844 l 534 844 z "},"Ø":{"ha":1080,"x_min":43,"x_max":1042,"o":"m 840 922 l 840 922 l 947 1042 l 1042 959 l 928 831 q 974 770 999 681 q 1024 592 1024 492 l 1024 492 q 1024 255 893 119 q 762 -17 547 -17 l 547 -17 q 361 -17 249 68 l 249 68 l 139 -56 l 43 28 l 159 159 q 60 291 60 503 l 60 503 q 60 739 191 875 q 321 1011 540 1011 l 540 1011 q 721 1011 840 922 z m 298 314 l 715 782 q 647 840 542 840 l 542 840 q 418 840 342 755 q 267 670 267 498 l 267 498 q 267 391 298 314 l 298 314 z m 789 675 l 789 675 l 372 207 q 442 146 541 146 l 541 146 q 661 146 739 233 q 817 321 817 494 l 817 494 q 817 604 789 675 z "},"∞":{"ha":990,"x_min":103,"x_max":889,"o":"m 462 572 l 462 572 q 512 654 564 690 q 616 726 681 726 l 681 726 q 770 726 830 663 q 889 600 889 490 l 889 490 q 889 380 830 316 q 770 253 681 253 l 681 253 q 617 253 565 289 q 513 325 462 408 l 462 408 q 421 351 368 321 q 315 291 267 291 l 267 291 q 199 291 151 344 q 103 397 103 490 l 103 490 q 103 582 151 635 q 199 688 267 688 l 267 688 q 315 688 368 658 q 421 628 462 572 z m 525 491 l 525 491 q 582 404 605 384 l 605 384 q 641 353 683 353 l 683 353 q 734 353 762 393 q 790 433 790 492 l 790 492 q 790 556 760 591 q 729 627 685 627 l 685 627 q 650 627 615 602 q 581 578 525 491 z m 404 492 l 404 492 q 336 588 275 588 l 275 588 q 243 588 221 563 q 198 538 198 493 l 198 493 q 198 447 220 421 q 243 395 275 395 l 275 395 q 301 395 322 410 l 322 410 q 359 434 404 492 z "},"±":{"ha":762,"x_min":34,"x_max":729,"o":"m 468 241 l 294 241 l 294 500 l 34 500 l 34 678 l 294 678 l 294 937 l 468 937 l 468 678 l 729 678 l 729 500 l 468 500 l 468 241 z m 729 0 l 34 0 l 34 178 l 729 178 l 729 0 z "},"≤":{"ha":762,"x_min":41,"x_max":722,"o":"m 722 419 l 722 228 l 41 524 l 41 688 l 722 983 l 722 790 l 247 608 l 722 419 z m 722 0 l 41 0 l 41 178 l 722 178 l 722 0 z "},"≥":{"ha":762,"x_min":41,"x_max":722,"o":"m 722 526 l 41 229 l 41 420 l 517 608 l 41 793 l 41 983 l 722 689 l 722 526 z m 722 0 l 41 0 l 41 178 l 722 178 l 722 0 z "},"¥":{"ha":772,"x_min":1,"x_max":766,"o":"m 286 0 l 286 185 l 35 185 l 35 335 l 286 335 l 286 416 l 35 416 l 35 566 l 212 566 l 1 994 l 210 994 l 345 705 q 371 651 382 610 l 382 610 q 395 654 418 705 l 418 705 l 557 994 l 766 994 l 552 566 l 732 566 l 732 416 l 477 416 l 477 335 l 732 335 l 732 185 l 477 185 l 477 0 l 286 0 z "},"µ":{"ha":800,"x_min":75,"x_max":730,"o":"m 75 -276 l 75 720 l 264 720 l 264 394 q 264 253 293 202 l 293 202 q 329 136 399 136 l 399 136 q 437 136 471 161 q 505 185 522 229 q 538 272 538 392 l 538 392 l 538 720 l 730 720 l 730 0 l 553 0 l 553 87 q 532 49 514 30 q 496 11 465 -3 q 434 -18 408 -18 l 408 -18 q 360 -18 323 9 l 323 9 q 296 28 264 87 l 264 87 l 264 -276 l 75 -276 z "},"∂":{"ha":686,"x_min":30,"x_max":663,"o":"m 257 762 l 257 762 l 164 819 q 199 915 266 963 q 333 1011 415 1011 l 415 1011 q 513 1011 574 943 l 574 943 q 663 845 663 640 l 663 640 q 663 463 606 296 q 550 130 450 57 q 351 -17 241 -17 l 241 -17 q 147 -17 89 45 q 30 108 30 223 l 30 223 q 30 330 89 429 q 148 527 269 585 q 391 642 560 639 l 560 639 q 559 774 510 840 l 510 840 q 473 888 412 888 l 412 888 q 365 888 330 861 q 295 834 257 762 z m 552 514 l 552 514 q 532 515 522 515 l 522 515 q 429 515 349 477 q 269 439 227 370 q 185 300 185 229 l 185 229 q 185 176 214 144 q 242 112 281 112 l 281 112 q 361 112 428 190 l 428 190 q 524 302 552 514 z "},"∑":{"ha":990,"x_min":83,"x_max":940,"o":"m 94 892 l 94 1011 l 933 1011 l 933 900 l 263 900 l 675 374 l 235 -183 l 940 -183 l 940 -292 l 83 -292 l 83 -165 l 503 369 l 94 892 z "},"∏":{"ha":1143,"x_min":109,"x_max":1033,"o":"m 109 -292 l 109 1011 l 1033 1011 l 1033 -292 l 903 -292 l 903 893 l 240 893 l 240 -292 l 109 -292 z "},"∫":{"ha":380,"x_min":0,"x_max":380,"o":"m 136 643 l 136 643 l 148 1003 q 154 1107 182 1175 l 182 1175 q 200 1219 232 1241 q 264 1263 295 1263 l 295 1263 q 329 1263 354 1241 q 380 1218 380 1191 l 380 1191 q 380 1159 362 1140 q 344 1120 317 1120 l 317 1120 q 294 1120 266 1145 l 266 1145 q 250 1158 239 1158 l 239 1158 q 227 1158 219 1148 q 212 1139 212 1115 l 212 1115 q 212 1086 218 1017 l 218 1017 q 243 739 243 566 l 243 566 q 243 520 232 167 l 232 167 q 227 -33 171 -104 l 171 -104 q 134 -149 80 -149 l 80 -149 q 45 -149 22 -126 q 0 -103 0 -67 l 0 -67 q 0 -37 17 -18 q 35 0 61 0 l 61 0 q 88 0 108 -22 q 127 -43 141 -43 l 141 -43 q 153 -43 160 -34 q 168 -24 168 -2 l 168 -2 q 168 26 161 79 l 161 79 q 136 293 136 643 z "},"ª":{"ha":514,"x_min":25,"x_max":480,"o":"m 172 849 l 172 849 l 44 875 q 60 942 107 977 q 154 1011 250 1011 l 250 1011 q 349 1011 400 985 l 400 985 q 433 968 450 924 l 450 924 q 460 897 460 820 l 460 820 l 460 658 q 460 587 464 563 q 469 539 480 516 l 480 516 l 351 516 q 342 534 336 564 l 336 564 q 276 504 189 504 l 189 504 q 112 504 68 545 q 25 586 25 650 l 25 650 q 25 696 46 728 q 68 760 109 779 l 109 779 q 140 791 237 810 l 237 810 q 290 821 321 833 l 321 833 q 321 842 321 847 l 321 847 q 320 880 309 890 l 309 890 q 292 905 252 905 l 252 905 q 217 905 199 893 l 199 893 q 186 884 172 849 z m 321 715 l 321 743 q 307 734 279 728 l 279 728 q 206 713 193 705 l 193 705 q 165 688 165 661 l 165 661 q 165 640 184 623 q 202 606 231 606 l 231 606 q 271 606 296 634 q 321 662 321 715 l 321 715 z "},"º":{"ha":507,"x_min":18,"x_max":488,"o":"m 18 756 l 18 756 q 18 877 82 944 q 146 1011 253 1011 l 253 1011 q 359 1011 424 944 q 488 876 488 756 l 488 756 q 488 636 424 569 q 360 502 253 502 l 253 502 q 146 502 82 569 q 18 635 18 756 z m 161 755 l 161 755 q 161 680 186 649 q 211 617 251 617 l 251 617 q 291 617 316 649 q 342 680 342 755 l 342 755 q 342 829 316 861 q 291 892 251 892 l 251 892 q 211 892 186 861 q 161 830 161 755 z "},"Ω":{"ha":1067,"x_min":37,"x_max":1038,"o":"m 104 156 l 313 140 q 235 173 188 216 l 188 216 q 119 277 86 362 q 52 448 52 550 l 52 550 q 52 760 182 890 q 312 1019 527 1019 l 527 1019 q 685 1019 791 966 q 897 912 961 800 q 1024 688 1024 551 l 1024 551 q 1024 414 961 307 q 897 199 765 141 l 765 141 l 989 157 l 1038 157 l 1038 0 l 602 0 l 602 165 q 668 197 706 236 l 706 236 q 758 290 784 368 q 810 446 810 532 l 810 532 q 810 699 732 785 q 654 871 534 871 l 534 871 q 418 871 341 783 q 263 695 263 535 l 263 535 q 263 443 293 363 q 322 284 377 229 l 377 229 q 412 194 475 165 l 475 165 l 475 0 l 37 0 l 37 156 l 104 156 z "},"æ":{"ha":1235,"x_min":60,"x_max":1170,"o":"m 974 230 l 974 230 l 1160 197 q 1122 90 1043 37 q 964 -16 842 -16 l 842 -16 q 766 -16 702 8 q 637 33 585 83 l 585 83 q 537 41 461 13 q 385 -16 304 -16 l 304 -16 q 189 -16 124 44 q 60 104 60 195 l 60 195 q 60 250 82 293 q 105 336 137 360 q 170 384 227 401 l 227 401 q 254 410 389 438 l 389 438 q 456 452 503 468 l 503 468 l 503 487 q 503 539 475 565 q 446 591 385 591 l 385 591 q 330 591 298 569 q 267 547 253 500 l 253 500 l 80 534 q 114 638 187 687 q 260 736 409 736 l 409 736 q 479 736 535 720 q 590 703 629 670 l 629 670 q 671 703 720 720 q 769 736 825 736 l 825 736 q 934 736 1009 691 q 1084 645 1127 556 q 1170 467 1169 304 l 1169 304 l 690 304 q 702 212 742 170 q 782 129 840 129 l 840 129 q 888 129 922 154 q 956 178 974 230 z m 694 423 l 981 423 q 977 483 965 509 l 965 509 q 948 547 914 569 q 880 591 833 591 l 833 591 q 793 591 763 572 q 733 553 715 516 l 715 516 q 692 467 694 423 l 694 423 z m 502 345 l 502 345 q 345 303 332 298 l 332 298 q 286 283 268 262 q 250 241 250 213 l 250 213 q 250 174 280 146 q 309 118 357 118 l 357 118 q 407 118 451 150 l 451 150 q 484 174 493 209 q 502 245 502 345 z "},"ø":{"ha":848,"x_min":59,"x_max":802,"o":"m 642 677 l 642 677 l 712 759 l 788 696 l 715 612 q 755 564 779 498 q 802 432 802 359 l 802 359 q 802 198 696 91 q 589 -16 429 -16 l 429 -16 q 312 -16 220 41 l 220 41 l 142 -50 l 68 15 l 146 106 q 106 155 82 224 q 59 292 59 364 l 59 364 q 59 527 163 632 q 267 736 430 736 l 430 736 q 551 736 642 677 z m 267 245 l 534 554 q 489 591 431 591 l 431 591 q 355 591 301 532 q 248 473 248 366 l 248 366 q 248 299 267 245 l 267 245 z m 593 471 l 593 471 l 327 164 q 372 132 429 132 l 429 132 q 507 132 560 190 q 613 249 613 355 l 613 355 q 613 418 593 471 z "},"¿":{"ha":848,"x_min":68,"x_max":783,"o":"m 327 720 l 517 720 l 517 530 l 327 530 l 327 720 z m 345 464 l 345 464 l 517 464 q 519 419 519 412 l 519 412 q 519 335 489 279 q 460 223 374 153 q 288 83 271 56 l 271 56 q 254 28 254 -7 l 254 -7 q 254 -60 299 -99 q 344 -139 419 -139 l 419 -139 q 492 -139 540 -99 q 588 -58 608 28 l 608 28 l 783 6 q 771 -79 734 -135 l 734 -135 q 684 -212 604 -248 q 524 -285 427 -285 l 427 -285 q 263 -285 166 -199 q 68 -113 68 -1 l 68 -1 q 68 43 86 84 q 103 125 140 166 q 177 208 258 274 l 258 274 q 317 321 331 353 q 346 385 345 464 z "},"¡":{"ha":463,"x_min":132,"x_max":338,"o":"m 140 720 l 331 720 l 331 530 l 140 530 l 140 720 z m 182 460 l 289 460 l 338 -43 l 338 -276 l 132 -276 l 132 -43 l 182 460 z "},"¬":{"ha":811,"x_min":58,"x_max":753,"o":"m 753 255 l 578 255 l 578 554 l 58 554 l 58 728 l 753 728 l 753 255 z "},"√":{"ha":762,"x_min":57,"x_max":762,"o":"m 536 165 l 712 1267 l 762 1267 l 551 -53 l 214 640 l 80 578 l 57 621 l 261 724 l 536 165 z "},"ƒ":{"ha":772,"x_min":-14,"x_max":774,"o":"m 324 577 l 187 577 l 212 720 l 349 720 l 359 781 q 378 884 392 913 l 392 913 q 414 958 452 981 l 452 981 q 502 1011 593 1011 l 593 1011 q 685 1011 774 983 l 774 983 l 738 830 q 674 849 631 849 l 631 849 q 594 849 576 833 q 559 817 547 758 l 547 758 l 540 720 l 681 720 l 656 577 l 517 577 l 399 -86 q 386 -167 364 -206 q 342 -245 298 -269 q 254 -292 176 -292 l 176 -292 q 71 -292 -14 -265 l -14 -265 l 25 -115 q 99 -131 138 -131 l 138 -131 q 180 -131 197 -105 l 197 -105 q 211 -85 222 -15 l 222 -15 l 324 577 z "},"≈":{"ha":762,"x_min":21,"x_max":741,"o":"m 21 516 l 21 516 l 21 691 q 107 785 222 785 l 222 785 q 264 785 300 776 q 336 768 413 737 q 490 706 514 699 q 538 692 556 692 l 556 692 q 594 692 644 716 q 694 739 741 791 l 741 791 l 741 608 q 710 575 654 546 q 598 517 538 517 l 538 517 q 505 517 472 526 q 440 534 370 564 l 370 564 q 266 610 206 610 l 206 610 q 111 610 21 516 z m 21 187 l 21 187 l 21 363 q 107 456 222 456 l 222 456 q 264 456 300 447 q 336 439 413 408 q 490 378 514 371 q 538 364 556 364 l 556 364 q 594 364 644 388 q 694 411 741 462 l 741 462 l 741 279 q 710 246 654 217 q 598 189 538 189 l 538 189 q 505 189 472 197 q 440 205 370 236 l 370 236 q 266 281 206 281 l 206 281 q 111 281 21 187 z "},"∆":{"ha":850,"x_min":18,"x_max":831,"o":"m 444 941 l 831 0 l 18 0 l 444 941 z m 102 56 l 671 56 l 401 711 l 102 56 z "},"«":{"ha":772,"x_min":65,"x_max":695,"o":"m 279 667 l 429 667 l 253 361 l 429 47 l 279 47 l 65 361 l 279 667 z m 545 667 l 695 667 l 519 361 l 695 47 l 545 47 l 331 361 l 545 667 z "},"»":{"ha":772,"x_min":72,"x_max":702,"o":"m 488 47 l 338 47 l 514 354 l 338 667 l 488 667 l 702 354 l 488 47 z m 222 47 l 72 47 l 248 354 l 72 667 l 222 667 l 436 354 l 222 47 z "},"…":{"ha":1389,"x_min":136,"x_max":1253,"o":"m 1253 0 l 1062 0 l 1062 191 l 1253 191 l 1253 0 z m 790 0 l 600 0 l 600 191 l 790 191 l 790 0 z m 327 0 l 136 0 l 136 191 l 327 191 l 327 0 z "},"À":{"ha":1003,"x_min":0,"x_max":998,"o":"m 600 994 l 998 0 l 779 0 l 692 226 l 295 226 l 213 0 l 0 0 l 387 994 l 600 994 z m 357 393 l 628 393 l 491 762 l 357 393 z m 511 1254 l 604 1051 l 484 1051 l 297 1254 l 511 1254 z "},"Ã":{"ha":1003,"x_min":0,"x_max":998,"o":"m 600 994 l 998 0 l 779 0 l 692 226 l 295 226 l 213 0 l 0 0 l 387 994 l 600 994 z m 357 393 l 628 393 l 491 762 l 357 393 z m 336 1049 l 336 1049 l 249 1049 q 248 1065 248 1074 l 248 1074 q 248 1145 283 1183 q 317 1221 372 1221 l 372 1221 q 395 1221 416 1216 q 436 1211 490 1187 q 544 1163 574 1163 l 574 1163 q 596 1163 611 1177 q 625 1190 629 1222 l 629 1222 l 718 1222 q 717 1131 683 1091 q 650 1052 597 1052 l 597 1052 q 574 1052 551 1057 l 551 1057 q 536 1061 473 1084 q 411 1108 382 1108 l 382 1108 q 361 1108 349 1095 q 336 1082 336 1049 z "},"Õ":{"ha":1080,"x_min":60,"x_max":1025,"o":"m 60 491 l 60 491 q 60 643 106 746 l 106 746 q 140 822 198 882 q 257 943 327 972 l 327 972 q 420 1011 541 1011 l 541 1011 q 761 1011 893 875 q 1025 739 1025 496 l 1025 496 q 1025 255 894 119 q 763 -17 544 -17 l 544 -17 q 322 -17 191 118 q 60 254 60 491 z m 267 498 l 267 498 q 267 329 345 242 q 423 155 543 155 l 543 155 q 663 155 740 241 q 817 328 817 500 l 817 500 q 817 671 742 755 q 667 840 543 840 l 543 840 q 419 840 343 754 q 267 669 267 498 z m 379 1049 l 379 1049 l 292 1049 q 292 1065 292 1074 l 292 1074 q 292 1145 326 1183 q 361 1221 415 1221 l 415 1221 q 439 1221 459 1216 q 479 1211 533 1187 q 587 1163 618 1163 l 618 1163 q 640 1163 654 1177 q 669 1190 673 1222 l 673 1222 l 761 1222 q 760 1131 727 1091 q 693 1052 640 1052 l 640 1052 q 617 1052 595 1057 l 595 1057 q 579 1061 517 1084 q 454 1108 426 1108 l 426 1108 q 404 1108 392 1095 q 380 1082 379 1049 z "},"Œ":{"ha":1389,"x_min":49,"x_max":1346,"o":"m 881 169 l 1346 169 l 1346 0 l 707 0 l 707 117 q 629 -17 446 -17 l 446 -17 q 269 -17 170 98 l 170 98 q 49 239 49 498 l 49 498 q 49 755 168 892 l 168 892 q 269 1011 437 1011 l 437 1011 q 522 1011 592 977 q 663 942 707 884 l 707 884 l 707 994 l 1327 994 l 1327 826 l 881 826 l 881 605 l 1289 605 l 1289 437 l 881 437 l 881 169 z m 475 840 l 475 840 q 375 840 315 766 q 256 692 256 513 l 256 513 q 256 312 323 225 l 323 225 q 374 159 475 159 l 475 159 q 598 159 647 253 q 695 346 695 509 l 695 509 q 695 692 636 766 q 576 840 475 840 z "},"œ":{"ha":1311,"x_min":60,"x_max":1255,"o":"m 1059 231 l 1059 231 l 1245 201 q 1212 99 1130 41 q 1048 -16 931 -16 l 931 -16 q 863 -16 795 8 q 728 33 677 84 l 677 84 q 624 34 561 9 q 498 -16 425 -16 l 425 -16 q 267 -16 163 89 q 60 195 60 359 l 60 359 q 60 460 104 551 q 149 643 235 690 q 321 736 428 736 l 428 736 q 503 736 566 711 q 629 686 680 636 l 680 636 q 726 686 786 711 q 846 736 920 736 l 920 736 q 988 736 1046 713 q 1104 690 1142 655 q 1179 621 1205 569 q 1232 517 1243 451 q 1255 386 1254 304 l 1254 304 l 780 304 q 787 216 828 173 q 869 129 932 129 l 932 129 q 977 129 1008 153 q 1040 176 1059 231 z m 782 423 l 1071 423 q 1065 511 1025 554 q 984 596 923 596 l 923 596 q 856 596 817 542 l 817 542 q 789 504 782 423 l 782 423 z m 256 349 l 256 349 q 256 277 299 209 q 342 142 426 142 l 426 142 q 496 142 544 198 q 592 254 592 366 l 592 366 q 592 469 544 524 q 496 578 426 578 l 426 578 q 351 578 303 522 q 256 466 256 349 z "},"–":{"ha":772,"x_min":-3,"x_max":770,"o":"m 770 289 l -3 289 l -3 431 l 770 431 l 770 289 z "},"—":{"ha":1389,"x_min":0,"x_max":1389,"o":"m 1389 289 l 0 289 l 0 431 l 1389 431 l 1389 289 z "},"“":{"ha":694,"x_min":90,"x_max":614,"o":"m 280 782 l 280 591 l 90 591 l 90 728 q 90 810 104 858 q 119 906 158 944 q 197 982 258 1004 l 258 1004 l 296 925 q 239 906 214 872 q 189 838 188 782 l 188 782 l 280 782 z m 598 782 l 598 591 l 408 591 l 408 728 q 408 811 422 859 q 437 906 476 944 q 516 982 576 1004 l 576 1004 l 614 925 q 557 906 532 872 q 507 838 506 782 l 506 782 l 598 782 z "},"”":{"ha":694,"x_min":71,"x_max":597,"o":"m 407 804 l 407 994 l 597 994 l 597 857 q 597 774 583 727 q 568 680 529 641 q 489 603 429 581 l 429 581 l 391 661 q 448 680 473 713 q 498 747 498 804 l 498 804 l 407 804 z m 87 804 l 87 994 l 277 994 l 277 857 q 277 774 263 727 q 249 680 209 641 q 170 603 109 581 l 109 581 l 71 661 q 129 680 153 713 q 178 747 179 804 l 179 804 l 87 804 z "},"‘":{"ha":386,"x_min":103,"x_max":309,"o":"m 294 782 l 294 591 l 103 591 l 103 728 q 103 810 118 858 q 132 906 172 944 q 211 982 272 1004 l 272 1004 l 309 925 q 252 906 228 872 q 203 838 201 782 l 201 782 l 294 782 z "},"’":{"ha":386,"x_min":79,"x_max":286,"o":"m 95 801 l 95 991 l 286 991 l 286 855 q 286 772 271 725 q 257 677 217 639 q 178 601 117 579 l 117 579 l 79 658 q 137 677 161 710 q 186 743 187 801 l 187 801 l 95 801 z "},"÷":{"ha":762,"x_min":33,"x_max":728,"o":"m 476 665 l 286 665 l 286 856 l 476 856 l 476 665 z m 728 401 l 33 401 l 33 580 l 728 580 l 728 401 z m 476 125 l 286 125 l 286 316 l 476 316 l 476 125 z "},"◊":{"ha":686,"x_min":32,"x_max":656,"o":"m 297 964 l 372 964 l 656 481 l 372 0 l 297 0 l 32 481 l 297 964 z m 579 481 l 336 899 l 105 481 l 336 64 l 579 481 z "},"ÿ":{"ha":772,"x_min":9,"x_max":750,"o":"m 283 -2 l 9 720 l 212 720 l 385 209 l 553 720 l 750 720 l 496 27 l 450 -98 q 425 -161 402 -195 q 380 -228 350 -249 q 321 -269 278 -281 q 235 -292 180 -292 l 180 -292 q 125 -292 73 -281 l 73 -281 l 56 -132 q 100 -140 136 -140 l 136 -140 q 203 -140 235 -101 q 267 -62 283 -2 l 283 -2 z m 319 848 l 156 848 l 156 1011 l 319 1011 l 319 848 z m 612 848 l 448 848 l 448 1011 l 612 1011 l 612 848 z "},"Ÿ":{"ha":926,"x_min":-2,"x_max":928,"o":"m 562 0 l 362 0 l 362 418 l -2 994 l 233 994 l 467 601 l 696 994 l 928 994 l 562 417 l 562 0 z m 401 1051 l 237 1051 l 237 1215 l 401 1215 l 401 1051 z m 693 1051 l 529 1051 l 529 1215 l 693 1215 l 693 1051 z "},"⁄":{"ha":232,"x_min":-233,"x_max":465,"o":"m 465 1006 l -125 -37 l -233 -37 l 357 1006 l 465 1006 z "},"€":{"ha":772,"x_min":-22,"x_max":729,"o":"m 729 970 l 729 970 l 689 782 q 631 840 521 840 l 521 840 q 410 840 342 760 l 342 760 q 303 715 287 648 l 287 648 l 660 648 l 638 543 l 273 543 q 273 528 273 503 l 273 503 q 273 479 274 454 l 274 454 l 619 454 l 597 349 l 288 349 q 305 276 340 235 l 340 235 q 408 155 517 155 l 517 155 q 647 155 724 235 l 724 235 l 724 27 q 636 -17 519 -17 l 519 -17 q 321 -17 193 119 l 193 119 q 106 211 79 349 l 79 349 l -22 349 l 0 454 l 66 454 q 66 470 66 488 l 66 488 q 66 519 67 543 l 67 543 l -22 543 l 0 648 l 81 648 q 109 783 194 874 l 194 874 q 322 1011 531 1011 l 531 1011 q 645 1011 729 970 z "},"‹":{"ha":463,"x_min":51,"x_max":415,"o":"m 265 667 l 415 667 l 239 361 l 415 47 l 265 47 l 51 361 l 265 667 z "},"›":{"ha":463,"x_min":51,"x_max":415,"o":"m 201 47 l 51 47 l 227 354 l 51 667 l 201 667 l 415 354 l 201 47 z "},"ﬁ":{"ha":848,"x_min":21,"x_max":747,"o":"m 21 570 l 21 720 l 127 720 l 127 774 q 127 865 146 910 q 165 955 217 983 q 269 1011 349 1011 l 349 1011 q 430 1011 508 987 l 508 987 l 482 854 q 437 865 395 865 l 395 865 q 353 865 335 845 q 317 826 317 771 l 317 771 l 317 720 l 460 720 l 460 570 l 317 570 l 317 0 l 127 0 l 127 570 l 21 570 z m 747 818 l 556 818 l 556 994 l 747 994 l 747 818 z m 747 0 l 556 0 l 556 720 l 747 720 l 747 0 z "},"ﬂ":{"ha":848,"x_min":21,"x_max":747,"o":"m 21 570 l 21 720 l 127 720 l 127 774 q 127 865 146 910 q 165 955 217 983 q 269 1011 349 1011 l 349 1011 q 430 1011 508 987 l 508 987 l 482 854 q 437 865 395 865 l 395 865 q 353 865 335 845 q 317 826 317 771 l 317 771 l 317 720 l 460 720 l 460 570 l 317 570 l 317 0 l 127 0 l 127 570 l 21 570 z m 747 0 l 556 0 l 556 994 l 747 994 l 747 0 z "},"‡":{"ha":772,"x_min":46,"x_max":718,"o":"m 473 -237 l 296 -237 l 296 -12 l 46 -12 l 46 146 l 296 146 l 296 591 l 46 591 l 46 749 l 296 749 l 296 982 l 473 982 l 473 749 l 718 749 l 718 591 l 473 591 l 473 146 l 718 146 l 718 -12 l 473 -12 l 473 -237 z "},"∙":{"ha":386,"x_min":100,"x_max":290,"o":"m 290 389 l 100 389 l 100 579 l 290 579 l 290 389 z "},"‚":{"ha":386,"x_min":79,"x_max":286,"o":"m 95 0 l 95 191 l 286 191 l 286 54 q 286 -28 271 -76 q 257 -124 217 -162 q 178 -200 117 -222 l 117 -222 l 79 -143 q 137 -124 161 -91 q 186 -58 187 0 l 187 0 l 95 0 z "},"„":{"ha":694,"x_min":71,"x_max":597,"o":"m 407 0 l 407 191 l 597 191 l 597 54 q 597 -29 583 -77 q 568 -124 529 -162 q 489 -201 429 -222 l 429 -222 l 391 -143 q 448 -124 473 -90 q 498 -56 498 0 l 498 0 l 407 0 z m 87 0 l 87 191 l 277 191 l 277 54 q 277 -29 263 -77 q 249 -124 209 -162 q 170 -201 109 -222 l 109 -222 l 71 -143 q 129 -124 153 -90 q 178 -56 179 0 l 179 0 l 87 0 z "},"‰":{"ha":1389,"x_min":1,"x_max":1388,"o":"m 1 759 l 1 759 q 1 885 56 948 q 111 1011 197 1011 l 197 1011 q 283 1011 338 949 q 393 886 393 758 l 393 758 q 393 617 338 554 q 284 490 196 490 l 196 490 q 107 490 54 552 q 1 614 1 759 z m 133 751 l 133 751 q 133 680 143 644 l 143 644 q 151 618 164 607 q 178 596 195 596 l 195 596 q 213 596 227 607 q 240 618 248 644 l 248 644 q 258 680 258 751 l 258 751 q 258 822 248 858 l 248 858 q 240 884 227 895 q 213 905 195 905 l 195 905 q 178 905 165 895 q 151 884 143 858 l 143 858 q 133 822 133 751 z m 323 -35 l 190 -35 l 606 1011 l 739 1011 l 323 -35 z m 542 229 l 542 229 q 542 355 597 418 q 652 481 739 481 l 739 481 q 825 481 879 419 q 933 357 933 229 l 933 229 q 933 87 879 24 q 825 -40 737 -40 l 737 -40 q 648 -40 595 22 q 542 84 542 229 z m 673 221 l 673 221 q 673 150 684 114 l 684 114 q 692 88 706 77 q 720 66 736 66 l 736 66 q 753 66 767 77 q 781 87 789 114 l 789 114 q 800 150 800 221 l 800 221 q 800 292 789 328 l 789 328 q 781 354 767 365 q 753 376 736 376 l 736 376 q 720 376 706 365 q 692 354 684 328 l 684 328 q 673 292 673 221 z m 996 229 l 996 229 q 996 355 1051 418 q 1106 481 1193 481 l 1193 481 q 1279 481 1334 419 q 1388 357 1388 229 l 1388 229 q 1388 87 1334 24 q 1280 -40 1192 -40 l 1192 -40 q 1103 -40 1049 22 q 996 84 996 229 z m 1128 221 l 1128 221 q 1128 153 1131 138 l 1131 138 q 1137 100 1153 83 q 1169 66 1190 66 l 1190 66 q 1207 66 1221 77 q 1236 88 1244 113 l 1244 113 q 1254 150 1254 221 l 1254 221 q 1254 292 1244 328 l 1244 328 q 1236 354 1222 365 q 1208 376 1192 376 l 1192 376 q 1174 376 1160 365 q 1147 354 1139 328 l 1139 328 q 1128 292 1128 221 z "},"Â":{"ha":1003,"x_min":0,"x_max":998,"o":"m 600 994 l 998 0 l 779 0 l 692 226 l 295 226 l 213 0 l 0 0 l 387 994 l 600 994 z m 357 393 l 628 393 l 491 762 l 357 393 z m 416 1051 l 262 1051 l 404 1251 l 581 1251 l 721 1051 l 568 1051 l 489 1152 l 416 1051 z "},"Ê":{"ha":926,"x_min":101,"x_max":857,"o":"m 857 0 l 101 0 l 101 994 l 838 994 l 838 826 l 302 826 l 302 606 l 801 606 l 801 438 l 302 438 l 302 168 l 857 168 l 857 0 z m 382 1051 l 229 1051 l 371 1251 l 547 1251 l 688 1051 l 534 1051 l 456 1152 l 382 1051 z "},"Á":{"ha":1003,"x_min":0,"x_max":998,"o":"m 600 994 l 998 0 l 779 0 l 692 226 l 295 226 l 213 0 l 0 0 l 387 994 l 600 994 z m 357 393 l 628 393 l 491 762 l 357 393 z m 496 1051 l 376 1051 l 469 1254 l 683 1254 l 496 1051 z "},"Ë":{"ha":926,"x_min":101,"x_max":857,"o":"m 857 0 l 101 0 l 101 994 l 838 994 l 838 826 l 302 826 l 302 606 l 801 606 l 801 438 l 302 438 l 302 168 l 857 168 l 857 0 z m 404 1051 l 240 1051 l 240 1215 l 404 1215 l 404 1051 z m 696 1051 l 532 1051 l 532 1215 l 696 1215 l 696 1051 z "},"È":{"ha":926,"x_min":101,"x_max":857,"o":"m 857 0 l 101 0 l 101 994 l 838 994 l 838 826 l 302 826 l 302 606 l 801 606 l 801 438 l 302 438 l 302 168 l 857 168 l 857 0 z m 491 1254 l 585 1051 l 465 1051 l 277 1254 l 491 1254 z "},"Í":{"ha":386,"x_min":72,"x_max":379,"o":"m 296 0 l 95 0 l 95 994 l 296 994 l 296 0 z m 193 1051 l 72 1051 l 165 1254 l 379 1254 l 193 1051 z "},"Î":{"ha":386,"x_min":-28,"x_max":431,"o":"m 296 0 l 95 0 l 95 994 l 296 994 l 296 0 z m 125 1051 l -28 1051 l 114 1251 l 290 1251 l 431 1051 l 277 1051 l 199 1152 l 125 1051 z "},"Ï":{"ha":386,"x_min":-31,"x_max":425,"o":"m 296 0 l 95 0 l 95 994 l 296 994 l 296 0 z m 133 1051 l -31 1051 l -31 1215 l 133 1215 l 133 1051 z m 425 1051 l 261 1051 l 261 1215 l 425 1215 l 425 1051 z "},"Ì":{"ha":386,"x_min":-7,"x_max":300,"o":"m 296 0 l 95 0 l 95 994 l 296 994 l 296 0 z m 207 1254 l 300 1051 l 180 1051 l -7 1254 l 207 1254 z "},"Ó":{"ha":1080,"x_min":60,"x_max":1025,"o":"m 60 491 l 60 491 q 60 643 106 746 l 106 746 q 140 822 198 882 q 257 943 327 972 l 327 972 q 420 1011 541 1011 l 541 1011 q 761 1011 893 875 q 1025 739 1025 496 l 1025 496 q 1025 255 894 119 q 763 -17 544 -17 l 544 -17 q 322 -17 191 118 q 60 254 60 491 z m 267 498 l 267 498 q 267 329 345 242 q 423 155 543 155 l 543 155 q 663 155 740 241 q 817 328 817 500 l 817 500 q 817 671 742 755 q 667 840 543 840 l 543 840 q 419 840 343 754 q 267 669 267 498 z m 540 1051 l 419 1051 l 513 1254 l 726 1254 l 540 1051 z "},"Ô":{"ha":1080,"x_min":60,"x_max":1025,"o":"m 60 491 l 60 491 q 60 643 106 746 l 106 746 q 140 822 198 882 q 257 943 327 972 l 327 972 q 420 1011 541 1011 l 541 1011 q 761 1011 893 875 q 1025 739 1025 496 l 1025 496 q 1025 255 894 119 q 763 -17 544 -17 l 544 -17 q 322 -17 191 118 q 60 254 60 491 z m 267 498 l 267 498 q 267 329 345 242 q 423 155 543 155 l 543 155 q 663 155 740 241 q 817 328 817 500 l 817 500 q 817 671 742 755 q 667 840 543 840 l 543 840 q 419 840 343 754 q 267 669 267 498 z m 459 1051 l 305 1051 l 448 1251 l 624 1251 l 764 1051 l 611 1051 l 532 1152 l 459 1051 z "},"Ò":{"ha":1080,"x_min":60,"x_max":1025,"o":"m 60 491 l 60 491 q 60 643 106 746 l 106 746 q 140 822 198 882 q 257 943 327 972 l 327 972 q 420 1011 541 1011 l 541 1011 q 761 1011 893 875 q 1025 739 1025 496 l 1025 496 q 1025 255 894 119 q 763 -17 544 -17 l 544 -17 q 322 -17 191 118 q 60 254 60 491 z m 267 498 l 267 498 q 267 329 345 242 q 423 155 543 155 l 543 155 q 663 155 740 241 q 817 328 817 500 l 817 500 q 817 671 742 755 q 667 840 543 840 l 543 840 q 419 840 343 754 q 267 669 267 498 z m 554 1254 l 648 1051 l 528 1051 l 340 1254 l 554 1254 z "},"Ú":{"ha":1003,"x_min":100,"x_max":892,"o":"m 100 464 l 100 994 l 300 994 l 300 456 q 300 328 308 290 l 308 290 q 321 229 369 192 q 418 155 502 155 l 502 155 q 587 155 631 190 q 674 224 683 275 q 692 326 692 444 l 692 444 l 692 994 l 892 994 l 892 472 q 892 293 876 219 q 860 145 816 94 q 772 43 699 13 q 626 -17 508 -17 l 508 -17 q 366 -17 292 16 q 218 49 176 101 q 133 154 119 212 l 119 212 q 100 297 100 464 l 100 464 z m 494 1051 l 373 1051 l 467 1254 l 680 1254 l 494 1051 z "},"Û":{"ha":1003,"x_min":100,"x_max":892,"o":"m 100 464 l 100 994 l 300 994 l 300 456 q 300 328 308 290 l 308 290 q 321 229 369 192 q 418 155 502 155 l 502 155 q 587 155 631 190 q 674 224 683 275 q 692 326 692 444 l 692 444 l 692 994 l 892 994 l 892 472 q 892 293 876 219 q 860 145 816 94 q 772 43 699 13 q 626 -17 508 -17 l 508 -17 q 366 -17 292 16 q 218 49 176 101 q 133 154 119 212 l 119 212 q 100 297 100 464 l 100 464 z m 427 1051 l 273 1051 l 415 1251 l 591 1251 l 732 1051 l 578 1051 l 500 1152 l 427 1051 z "},"Ù":{"ha":1003,"x_min":100,"x_max":892,"o":"m 100 464 l 100 994 l 300 994 l 300 456 q 300 328 308 290 l 308 290 q 321 229 369 192 q 418 155 502 155 l 502 155 q 587 155 631 190 q 674 224 683 275 q 692 326 692 444 l 692 444 l 692 994 l 892 994 l 892 472 q 892 293 876 219 q 860 145 816 94 q 772 43 699 13 q 626 -17 508 -17 l 508 -17 q 366 -17 292 16 q 218 49 176 101 q 133 154 119 212 l 119 212 q 100 297 100 464 l 100 464 z m 508 1254 l 602 1051 l 481 1051 l 294 1254 l 508 1254 z "},"ı":{"ha":386,"x_min":100,"x_max":290,"o":"m 290 0 l 100 0 l 100 720 l 290 720 l 290 0 z "},"ˆ":{"ha":463,"x_min":2,"x_max":461,"o":"m 156 811 l 2 811 l 144 1011 l 321 1011 l 461 811 l 308 811 l 229 912 l 156 811 z "},"˜":{"ha":463,"x_min":-9,"x_max":460,"o":"m 79 817 l 79 817 l -8 817 q -9 833 -9 842 l -9 842 q -9 913 26 951 q 60 989 115 989 l 115 989 q 138 989 159 984 q 179 979 233 955 q 287 931 317 931 l 317 931 q 339 931 354 945 q 368 958 372 990 l 372 990 l 460 990 q 460 899 426 859 q 393 820 340 820 l 340 820 q 317 820 294 825 l 294 825 q 279 829 216 852 q 154 876 125 876 l 125 876 q 104 876 92 863 q 79 850 79 817 z "},"ˉ":{"ha":463,"x_min":13,"x_max":450,"o":"m 450 839 l 13 839 l 13 964 l 450 964 l 450 839 z "},"˘":{"ha":463,"x_min":18,"x_max":441,"o":"m 348 1011 l 348 1011 l 441 1011 q 433 919 376 866 q 319 814 229 814 l 229 814 q 139 814 82 866 q 26 919 18 1011 l 18 1011 l 111 1011 q 115 963 144 938 q 174 913 229 913 l 229 913 q 285 913 314 938 q 343 963 348 1011 z "},"˙":{"ha":463,"x_min":139,"x_max":326,"o":"m 326 831 l 139 831 l 139 1011 l 326 1011 l 326 831 z "},"˚":{"ha":463,"x_min":98,"x_max":364,"o":"m 364 910 l 364 910 q 364 855 325 816 q 286 777 231 777 l 231 777 q 176 777 137 816 q 98 855 98 910 l 98 910 q 98 965 137 1004 q 176 1043 231 1043 l 231 1043 q 286 1043 325 1004 q 364 966 364 910 z m 292 910 l 292 910 q 292 935 274 953 q 256 970 231 970 l 231 970 q 206 970 189 953 q 171 935 171 910 l 171 910 q 171 885 189 867 q 206 850 231 850 l 231 850 q 256 850 274 867 q 292 885 292 910 z "},"¸":{"ha":463,"x_min":26,"x_max":395,"o":"m 26 -273 l 26 -273 l 26 -193 q 96 -201 154 -201 l 154 -201 q 214 -201 243 -179 l 243 -179 q 266 -163 266 -137 l 266 -137 q 266 -114 245 -97 q 224 -80 180 -80 l 180 -80 q 136 -80 91 -94 l 91 -94 l 109 -26 q 161 -8 222 -8 l 222 -8 q 307 -8 351 -45 q 395 -83 395 -136 l 395 -136 q 395 -196 347 -233 l 347 -233 q 281 -284 158 -284 l 158 -284 q 71 -284 26 -273 z "},"˝":{"ha":463,"x_min":65,"x_max":610,"o":"m 184 812 l 65 812 l 159 1014 l 359 1014 l 184 812 z m 442 812 l 320 812 l 416 1014 l 610 1014 l 442 812 z "},"˛":{"ha":463,"x_min":39,"x_max":290,"o":"m 126 0 l 239 0 q 227 -9 216 -22 q 205 -35 198 -49 q 191 -63 186 -78 q 182 -92 182 -106 l 182 -106 q 182 -128 194 -143 q 206 -159 234 -159 l 234 -159 q 246 -159 261 -154 q 277 -150 290 -146 l 290 -146 l 290 -259 q 233 -286 188 -286 l 188 -286 q 150 -286 122 -276 q 94 -266 76 -248 q 57 -231 48 -207 q 39 -184 39 -157 l 39 -157 q 39 -118 62 -75 q 86 -33 126 0 l 126 0 z "},"ˇ":{"ha":463,"x_min":2,"x_max":461,"o":"m 144 811 l 2 1011 l 156 1011 l 229 910 l 308 1011 l 461 1011 l 321 811 l 144 811 z "},"Ł":{"ha":848,"x_min":7,"x_max":812,"o":"m 7 408 l 112 496 l 112 994 l 312 994 l 312 665 l 535 852 l 535 688 l 312 502 l 312 168 l 812 168 l 812 0 l 112 0 l 112 335 l 7 248 l 7 408 z "},"ł":{"ha":386,"x_min":7,"x_max":383,"o":"m 7 410 l 100 488 l 100 994 l 290 994 l 290 650 l 383 729 l 383 600 l 290 522 l 290 0 l 100 0 l 100 359 l 7 281 l 7 410 z "},"Š":{"ha":926,"x_min":50,"x_max":859,"o":"m 50 323 l 50 323 l 245 342 q 263 244 317 198 q 371 152 463 152 l 463 152 q 559 152 609 193 q 658 234 658 289 l 658 289 q 658 324 637 349 q 616 374 565 392 l 565 392 q 530 404 404 435 l 404 435 q 243 475 178 534 l 178 534 q 86 616 86 734 l 86 734 q 86 810 129 876 q 172 942 253 977 q 334 1011 449 1011 l 449 1011 q 636 1011 731 929 q 825 847 830 710 l 830 710 l 629 701 q 616 778 574 811 q 532 845 447 845 l 447 845 q 359 845 310 809 l 310 809 q 278 786 278 747 l 278 747 q 278 712 308 687 l 308 687 q 346 655 492 621 q 639 586 709 549 q 779 512 819 448 q 859 384 859 290 l 859 290 q 859 204 811 130 q 764 55 677 19 q 590 -18 460 -18 l 460 -18 q 272 -18 171 70 q 70 157 50 323 z m 369 1055 l 227 1255 l 380 1255 l 454 1154 l 532 1255 l 686 1255 l 545 1055 l 369 1055 z "},"š":{"ha":772,"x_min":33,"x_max":705,"o":"m 33 205 l 33 205 l 224 235 q 236 179 273 150 q 311 121 378 121 l 378 121 q 452 121 489 149 l 489 149 q 514 168 514 199 l 514 199 q 514 221 500 235 l 500 235 q 486 249 437 260 l 437 260 q 206 311 144 353 l 144 353 q 59 412 59 515 l 59 515 q 59 609 133 673 q 207 736 362 736 l 362 736 q 510 736 582 688 q 654 640 681 546 l 681 546 l 501 513 q 490 555 457 577 q 425 600 366 600 l 366 600 q 290 600 258 578 l 258 578 q 236 564 236 540 l 236 540 q 236 519 255 505 l 255 505 q 281 486 433 452 q 585 417 646 367 l 646 367 q 705 316 705 225 l 705 225 q 705 126 623 55 q 540 -16 378 -16 l 378 -16 q 231 -16 145 43 q 59 103 33 205 z m 281 811 l 139 1011 l 293 1011 l 366 910 l 445 1011 l 598 1011 l 458 811 l 281 811 z "},"Ž":{"ha":848,"x_min":15,"x_max":823,"o":"m 823 0 l 15 0 l 15 181 l 537 826 l 74 826 l 74 994 l 802 994 l 802 838 l 257 168 l 823 168 l 823 0 z m 326 1055 l 184 1255 l 338 1255 l 411 1154 l 490 1255 l 643 1255 l 503 1055 l 326 1055 z "},"ž":{"ha":694,"x_min":23,"x_max":666,"o":"m 666 0 l 23 0 l 23 149 l 293 458 q 359 534 391 566 l 391 566 q 358 564 304 564 l 304 564 l 50 562 l 50 720 l 645 720 l 645 585 l 370 268 l 273 163 q 352 168 371 168 l 371 168 l 666 168 l 666 0 z m 258 811 l 115 1011 l 269 1011 l 342 910 l 421 1011 l 574 1011 l 434 811 l 258 811 z "},"¦":{"ha":389,"x_min":119,"x_max":271,"o":"m 271 475 l 119 475 l 119 1011 l 271 1011 l 271 475 z m 271 -292 l 119 -292 l 119 244 l 271 244 l 271 -292 z "},"Ð":{"ha":1003,"x_min":-2,"x_max":935,"o":"m 101 560 l 101 994 l 467 994 q 593 994 659 975 l 659 975 q 747 948 809 881 q 871 814 903 720 q 935 625 935 485 l 935 485 q 935 362 900 263 q 865 165 797 99 l 797 99 q 745 50 656 21 l 656 21 q 590 0 478 0 l 478 0 l 101 0 l 101 434 l -2 434 l -2 560 l 101 560 z m 392 826 l 301 826 l 301 560 l 514 560 l 514 434 l 301 434 l 301 168 l 452 168 q 551 168 595 184 l 595 184 q 654 204 684 258 l 684 258 q 727 335 727 492 l 727 492 q 727 604 709 665 q 691 726 656 763 q 621 800 565 815 l 565 815 q 522 826 392 826 l 392 826 z "},"ð":{"ha":848,"x_min":56,"x_max":797,"o":"m 225 994 l 225 994 l 424 994 q 463 964 498 934 l 498 934 l 621 994 l 651 928 l 553 882 q 684 751 740 620 q 797 488 797 370 l 797 370 q 797 195 692 89 q 588 -17 422 -17 l 422 -17 q 263 -17 160 89 q 56 194 56 361 l 56 361 q 56 526 166 632 l 166 632 q 258 720 372 720 l 372 720 q 409 720 446 709 l 446 709 q 473 701 523 673 l 523 673 q 496 721 479 747 q 461 774 424 821 l 424 821 l 254 740 l 225 805 l 373 875 q 305 937 225 994 z m 255 359 l 255 359 q 255 252 304 195 q 353 138 425 138 l 425 138 q 497 138 548 195 q 599 252 599 353 l 599 353 q 599 454 547 512 q 494 570 423 570 l 423 570 q 353 570 304 515 q 255 460 255 359 z "},"Ý":{"ha":926,"x_min":-2,"x_max":928,"o":"m 562 0 l 362 0 l 362 418 l -2 994 l 233 994 l 467 601 l 696 994 l 928 994 l 562 417 l 562 0 z m 456 1051 l 336 1051 l 429 1254 l 643 1254 l 456 1051 z "},"ý":{"ha":772,"x_min":9,"x_max":750,"o":"m 283 -2 l 9 720 l 212 720 l 385 209 l 553 720 l 750 720 l 496 27 l 450 -98 q 425 -161 402 -195 q 380 -228 350 -249 q 321 -269 278 -281 q 235 -292 180 -292 l 180 -292 q 125 -292 73 -281 l 73 -281 l 56 -132 q 100 -140 136 -140 l 136 -140 q 203 -140 235 -101 q 267 -62 283 -2 l 283 -2 z m 404 808 l 283 808 l 377 1011 l 591 1011 l 404 808 z "},"Þ":{"ha":926,"x_min":101,"x_max":863,"o":"m 302 0 l 101 0 l 101 994 l 302 994 l 302 807 l 423 807 q 606 807 663 792 l 663 792 q 748 769 805 694 q 863 619 863 500 l 863 500 q 863 410 829 347 q 796 285 745 249 q 694 213 641 202 l 641 202 q 569 187 433 187 l 433 187 l 302 187 l 302 0 z m 399 639 l 302 639 l 302 356 l 412 356 q 524 356 555 363 l 555 363 q 597 374 626 408 q 656 443 656 500 l 656 500 q 656 546 632 580 q 609 614 575 627 q 542 639 399 639 l 399 639 z "},"þ":{"ha":848,"x_min":94,"x_max":797,"o":"m 94 -274 l 94 994 l 285 994 l 285 636 q 341 692 388 714 q 435 736 496 736 l 496 736 q 622 736 709 638 q 797 540 797 364 l 797 364 q 797 184 709 84 q 621 -16 495 -16 l 495 -16 q 435 -16 387 7 q 338 31 285 89 l 285 89 l 285 -274 l 94 -274 z m 283 376 l 283 376 q 283 264 319 210 l 319 210 q 368 134 450 134 l 450 134 q 513 134 558 188 q 602 242 602 358 l 602 358 q 602 481 557 536 q 513 591 443 591 l 443 591 q 374 591 329 537 q 283 484 283 376 z "},"−":{"ha":811,"x_min":58,"x_max":753,"o":"m 753 401 l 58 401 l 58 580 l 753 580 l 753 401 z "},"×":{"ha":811,"x_min":74,"x_max":736,"o":"m 198 161 l 75 285 l 280 490 l 74 695 l 200 821 l 406 616 l 611 821 l 734 697 l 529 492 l 736 286 l 610 159 l 403 366 l 198 161 z "},"¹":{"ha":463,"x_min":62,"x_max":336,"o":"m 336 1006 l 336 493 l 207 493 l 207 841 q 143 797 62 774 l 62 774 l 62 880 q 126 898 178 939 l 178 939 q 215 967 231 1006 l 231 1006 l 336 1006 z "},"²":{"ha":463,"x_min":17,"x_max":429,"o":"m 216 600 l 429 600 l 429 493 l 17 493 q 24 551 54 596 q 83 642 186 722 l 186 722 q 263 783 279 802 l 279 802 q 300 828 300 854 l 300 854 q 300 880 283 895 q 266 909 231 909 l 231 909 q 197 909 180 893 q 163 876 159 831 l 159 831 l 31 842 q 41 922 81 958 l 81 958 q 136 1006 235 1006 l 235 1006 q 329 1006 379 963 q 429 920 429 861 l 429 861 q 429 824 413 791 q 397 758 363 723 l 363 723 q 346 705 272 647 l 272 647 q 233 616 216 600 l 216 600 z "},"³":{"ha":463,"x_min":27,"x_max":435,"o":"m 27 642 l 27 642 l 152 655 q 157 618 177 600 q 197 582 229 582 l 229 582 q 262 582 282 602 q 302 623 302 655 l 302 655 q 302 684 283 703 q 264 722 233 722 l 233 722 q 212 722 171 712 l 171 712 l 186 811 q 222 810 242 818 q 262 826 270 838 q 279 850 279 865 l 279 865 q 279 884 264 897 q 250 909 222 909 l 222 909 q 195 909 178 894 q 161 879 155 843 l 155 843 l 35 861 q 52 930 85 960 l 85 960 q 136 1006 226 1006 l 226 1006 q 310 1006 359 964 q 408 922 408 868 l 408 868 q 408 842 394 821 l 394 821 q 375 790 342 770 l 342 770 q 388 754 411 723 q 435 691 435 649 l 435 649 q 435 585 378 535 q 321 485 228 485 l 228 485 q 141 485 89 528 q 37 570 27 642 z "},"½":{"ha":1158,"x_min":62,"x_max":1123,"o":"m 336 1006 l 336 493 l 208 493 l 208 841 q 144 797 62 774 l 62 774 l 62 880 q 127 898 179 939 l 179 939 q 216 967 232 1006 l 232 1006 l 336 1006 z m 928 1006 l 338 -37 l 231 -37 l 820 1006 l 928 1006 z m 911 78 l 1123 78 l 1123 -28 l 711 -28 q 719 29 749 75 q 779 120 880 201 l 880 201 q 958 261 973 281 l 973 281 q 994 307 994 333 l 994 333 q 994 358 977 373 q 960 388 926 388 l 926 388 q 892 388 874 371 q 857 355 854 310 l 854 310 l 725 321 q 735 399 777 437 l 777 437 q 830 485 929 485 l 929 485 q 1023 485 1073 441 q 1123 398 1123 339 l 1123 339 q 1123 302 1108 270 q 1093 237 1058 201 l 1058 201 q 1040 184 966 125 l 966 125 q 928 95 911 78 l 911 78 z "},"¼":{"ha":1158,"x_min":62,"x_max":1145,"o":"m 336 1006 l 336 493 l 208 493 l 208 841 q 144 797 62 774 l 62 774 l 62 880 q 127 898 179 939 l 179 939 q 216 967 232 1006 l 232 1006 l 336 1006 z m 928 1006 l 338 -37 l 231 -37 l 820 1006 l 928 1006 z m 1072 -28 l 951 -28 l 951 71 l 707 71 l 707 166 l 966 485 l 1072 485 l 1072 169 l 1145 169 l 1145 71 l 1072 71 l 1072 -28 z m 827 169 l 951 169 l 951 321 l 827 169 z "},"¾":{"ha":1158,"x_min":27,"x_max":1145,"o":"m 27 642 l 27 642 l 152 655 q 157 618 177 600 q 197 582 229 582 l 229 582 q 262 582 282 602 q 302 623 302 655 l 302 655 q 302 684 283 703 q 264 722 233 722 l 233 722 q 212 722 171 712 l 171 712 l 186 811 q 222 810 242 818 q 262 826 270 838 q 279 850 279 865 l 279 865 q 279 884 264 897 q 250 909 222 909 l 222 909 q 195 909 178 894 q 161 879 155 843 l 155 843 l 35 861 q 52 930 85 960 l 85 960 q 136 1006 226 1006 l 226 1006 q 310 1006 359 964 q 408 922 408 868 l 408 868 q 408 842 394 821 l 394 821 q 375 790 342 770 l 342 770 q 388 754 411 723 q 435 691 435 649 l 435 649 q 435 585 378 535 q 321 485 228 485 l 228 485 q 141 485 89 528 q 37 570 27 642 z m 943 1006 l 355 -37 l 247 -37 l 836 1006 l 943 1006 z m 1072 -28 l 951 -28 l 951 71 l 707 71 l 707 166 l 966 485 l 1072 485 l 1072 169 l 1145 169 l 1145 71 l 1072 71 l 1072 -28 z m 827 169 l 951 169 l 951 321 l 827 169 z "},"₣":{"ha":772,"x_min":0,"x_max":703,"o":"m 103 0 l 103 123 l 0 123 l 0 275 l 103 275 l 102 994 l 703 994 l 703 826 l 303 826 l 303 591 l 637 591 l 637 422 l 303 422 l 303 275 l 473 275 l 473 123 l 303 123 l 303 0 l 103 0 z "},"Ğ":{"ha":1080,"x_min":66,"x_max":996,"o":"m 793 366 l 564 366 l 564 533 l 996 533 l 996 137 q 933 76 813 30 q 694 -17 571 -17 l 571 -17 q 415 -17 299 48 q 183 114 125 236 q 66 357 66 500 l 66 500 q 66 656 132 777 q 197 897 322 962 l 322 962 q 418 1011 560 1011 l 560 1011 q 745 1011 849 933 q 954 856 983 719 l 983 719 l 784 682 q 763 755 705 797 q 647 840 560 840 l 560 840 q 429 840 351 756 q 273 673 273 509 l 273 509 q 273 332 352 243 q 431 155 558 155 l 558 155 q 621 155 685 179 q 748 204 793 239 l 793 239 l 793 366 z m 691 1245 l 691 1245 l 784 1245 q 776 1153 719 1100 q 663 1048 572 1048 l 572 1048 q 482 1048 426 1100 q 369 1153 361 1245 l 361 1245 l 454 1245 q 458 1197 488 1172 q 517 1147 572 1147 l 572 1147 q 628 1147 657 1172 q 686 1197 691 1245 z "},"ğ":{"ha":848,"x_min":57,"x_max":760,"o":"m 82 -47 l 82 -47 l 300 -74 q 305 -112 325 -126 l 325 -126 q 352 -146 410 -146 l 410 -146 q 485 -146 522 -124 l 522 -124 q 547 -109 560 -76 l 560 -76 q 569 -52 569 12 l 569 12 l 569 117 q 484 0 353 0 l 353 0 q 208 0 123 123 l 123 123 q 57 220 57 364 l 57 364 q 57 545 144 641 q 231 736 361 736 l 361 736 q 494 736 581 619 l 581 619 l 581 720 l 760 720 l 760 74 q 760 -54 739 -117 q 718 -180 680 -216 q 642 -252 578 -272 q 515 -292 418 -292 l 418 -292 q 235 -292 158 -230 q 81 -167 81 -71 l 81 -71 q 81 -61 82 -47 z m 252 375 l 252 375 q 252 260 297 207 q 341 154 406 154 l 406 154 q 476 154 524 209 q 572 263 572 370 l 572 370 q 572 482 526 536 q 480 591 410 591 l 410 591 q 341 591 297 537 q 252 484 252 375 z m 525 1011 l 525 1011 l 618 1011 q 610 919 553 866 q 496 814 406 814 l 406 814 q 316 814 259 866 q 203 919 195 1011 l 195 1011 l 288 1011 q 292 963 321 938 q 351 913 406 913 l 406 913 q 462 913 491 938 q 520 963 525 1011 z "},"İ":{"ha":386,"x_min":95,"x_max":296,"o":"m 296 0 l 95 0 l 95 994 l 296 994 l 296 0 z m 290 1051 l 102 1051 l 102 1232 l 290 1232 l 290 1051 z "},"Ş":{"ha":926,"x_min":50,"x_max":859,"o":"m 50 323 l 50 323 l 245 342 q 263 244 317 198 q 371 152 463 152 l 463 152 q 559 152 609 193 q 658 234 658 289 l 658 289 q 658 324 637 349 q 616 374 565 392 l 565 392 q 530 404 404 435 l 404 435 q 243 475 178 534 l 178 534 q 86 616 86 734 l 86 734 q 86 810 129 876 q 172 942 253 977 q 334 1011 449 1011 l 449 1011 q 636 1011 731 929 q 825 847 830 710 l 830 710 l 629 701 q 616 778 574 811 q 532 845 447 845 l 447 845 q 359 845 310 809 l 310 809 q 278 786 278 747 l 278 747 q 278 712 308 687 l 308 687 q 346 655 492 621 q 639 586 709 549 q 779 512 819 448 q 859 384 859 290 l 859 290 q 859 204 811 130 q 764 55 677 19 q 590 -18 460 -18 l 460 -18 q 272 -18 171 70 q 70 157 50 323 z m 279 -273 l 279 -273 l 279 -193 q 349 -201 407 -201 l 407 -201 q 467 -201 496 -179 l 496 -179 q 519 -163 519 -137 l 519 -137 q 519 -114 498 -97 q 477 -80 433 -80 l 433 -80 q 389 -80 344 -94 l 344 -94 l 361 -26 q 414 -8 475 -8 l 475 -8 q 560 -8 604 -45 q 648 -83 648 -136 l 648 -136 q 648 -196 600 -233 l 600 -233 q 534 -284 411 -284 l 411 -284 q 323 -284 279 -273 z "},"ş":{"ha":772,"x_min":33,"x_max":705,"o":"m 33 205 l 33 205 l 224 235 q 236 179 273 150 q 311 121 378 121 l 378 121 q 452 121 489 149 l 489 149 q 514 168 514 199 l 514 199 q 514 221 500 235 l 500 235 q 486 249 437 260 l 437 260 q 206 311 144 353 l 144 353 q 59 412 59 515 l 59 515 q 59 609 133 673 q 207 736 362 736 l 362 736 q 510 736 582 688 q 654 640 681 546 l 681 546 l 501 513 q 490 555 457 577 q 425 600 366 600 l 366 600 q 290 600 258 578 l 258 578 q 236 564 236 540 l 236 540 q 236 519 255 505 l 255 505 q 281 486 433 452 q 585 417 646 367 l 646 367 q 705 316 705 225 l 705 225 q 705 126 623 55 q 540 -16 378 -16 l 378 -16 q 231 -16 145 43 q 59 103 33 205 z m 214 -273 l 214 -273 l 214 -193 q 284 -201 342 -201 l 342 -201 q 403 -201 432 -179 l 432 -179 q 454 -163 454 -137 l 454 -137 q 454 -114 433 -97 q 412 -80 368 -80 l 368 -80 q 325 -80 279 -94 l 279 -94 l 297 -26 q 350 -8 411 -8 l 411 -8 q 496 -8 540 -45 q 584 -83 584 -136 l 584 -136 q 584 -196 535 -233 l 535 -233 q 469 -284 347 -284 l 347 -284 q 259 -284 214 -273 z "},"Ć":{"ha":1003,"x_min":66,"x_max":932,"o":"m 737 366 l 737 366 l 932 304 q 887 141 783 62 q 679 -17 519 -17 l 519 -17 q 321 -17 193 118 q 66 254 66 488 l 66 488 q 66 736 194 874 q 322 1011 531 1011 l 531 1011 q 713 1011 827 903 l 827 903 q 895 840 929 720 l 929 720 l 730 673 q 713 750 657 795 q 601 840 521 840 l 521 840 q 410 840 341 760 q 273 681 273 503 l 273 503 q 273 315 340 235 q 408 155 517 155 l 517 155 q 597 155 654 205 q 712 256 737 366 z m 512 1051 l 391 1051 l 485 1254 l 699 1254 l 512 1051 z "},"ć":{"ha":772,"x_min":58,"x_max":737,"o":"m 728 507 l 728 507 l 540 473 q 530 530 497 558 q 463 587 410 587 l 410 587 q 338 587 296 537 q 254 488 254 373 l 254 373 q 254 245 297 192 q 340 139 412 139 l 412 139 q 467 139 501 170 q 536 201 550 276 l 550 276 l 737 244 q 708 115 625 50 q 543 -16 404 -16 l 404 -16 q 245 -16 152 83 q 58 183 58 359 l 58 359 q 58 538 152 637 q 246 736 407 736 l 407 736 q 538 736 616 680 q 694 623 728 507 z m 414 808 l 293 808 l 387 1011 l 600 1011 l 414 808 z "},"Č":{"ha":1003,"x_min":66,"x_max":932,"o":"m 737 366 l 737 366 l 932 304 q 887 141 783 62 q 679 -17 519 -17 l 519 -17 q 321 -17 193 118 q 66 254 66 488 l 66 488 q 66 736 194 874 q 322 1011 531 1011 l 531 1011 q 713 1011 827 903 l 827 903 q 895 840 929 720 l 929 720 l 730 673 q 713 750 657 795 q 601 840 521 840 l 521 840 q 410 840 341 760 q 273 681 273 503 l 273 503 q 273 315 340 235 q 408 155 517 155 l 517 155 q 597 155 654 205 q 712 256 737 366 z m 425 1055 l 282 1255 l 436 1255 l 509 1154 l 588 1255 l 741 1255 l 601 1055 l 425 1055 z "},"č":{"ha":772,"x_min":58,"x_max":737,"o":"m 728 507 l 728 507 l 540 473 q 530 530 497 558 q 463 587 410 587 l 410 587 q 338 587 296 537 q 254 488 254 373 l 254 373 q 254 245 297 192 q 340 139 412 139 l 412 139 q 467 139 501 170 q 536 201 550 276 l 550 276 l 737 244 q 708 115 625 50 q 543 -16 404 -16 l 404 -16 q 245 -16 152 83 q 58 183 58 359 l 58 359 q 58 538 152 637 q 246 736 407 736 l 407 736 q 538 736 616 680 q 694 623 728 507 z m 328 811 l 186 1011 l 340 1011 l 413 910 l 492 1011 l 645 1011 l 505 811 l 328 811 z "},"đ":{"ha":848,"x_min":57,"x_max":836,"o":"m 570 636 l 570 797 l 364 797 l 364 924 l 570 924 l 570 994 l 760 994 l 760 924 l 836 924 l 836 797 l 760 797 l 760 0 l 583 0 l 583 106 q 539 44 479 14 q 419 -16 358 -16 l 358 -16 q 234 -16 145 84 q 57 184 57 363 l 57 363 q 57 546 143 641 q 229 736 361 736 l 361 736 q 481 736 570 636 l 570 636 z m 252 376 l 252 376 q 252 260 283 209 l 283 209 q 330 134 412 134 l 412 134 q 478 134 524 190 q 570 246 570 357 l 570 357 q 570 481 526 536 q 481 591 411 591 l 411 591 q 343 591 297 537 q 252 483 252 376 z "},"¯":{"ha":767,"x_min":-13,"x_max":779,"o":"m 779 1053 l -13 1053 l -13 1177 l 779 1177 l 779 1053 z "},"·":{"ha":463,"x_min":136,"x_max":326,"o":"m 326 389 l 136 389 l 136 579 l 326 579 l 326 389 z "},"Ă":{"ha":1003,"x_min":0,"x_max":998,"o":"m 600 994 l 998 0 l 779 0 l 692 226 l 295 226 l 213 0 l 0 0 l 387 994 l 600 994 z m 357 393 l 628 393 l 491 762 l 357 393 z m 618 1245 l 618 1245 l 711 1245 q 703 1153 646 1100 q 589 1048 499 1048 l 499 1048 q 409 1048 352 1100 q 296 1153 288 1245 l 288 1245 l 380 1245 q 385 1197 414 1172 q 444 1147 499 1147 l 499 1147 q 555 1147 584 1172 q 613 1197 618 1245 z "},"ă":{"ha":772,"x_min":50,"x_max":726,"o":"m 242 500 l 242 500 l 69 532 q 98 636 170 686 q 241 736 381 736 l 381 736 q 509 736 571 706 q 633 676 659 630 q 684 583 684 459 l 684 459 l 682 237 q 682 142 691 97 q 701 52 726 0 l 726 0 l 537 0 q 530 19 519 56 l 519 56 q 514 73 512 79 l 512 79 q 463 31 408 7 q 352 -16 289 -16 l 289 -16 q 178 -16 114 44 q 50 104 50 197 l 50 197 q 50 258 79 306 q 108 353 160 379 q 213 404 312 423 l 312 423 q 446 448 497 470 l 497 470 l 497 489 q 497 544 470 567 q 443 591 368 591 l 368 591 q 317 591 288 571 q 260 551 242 500 z m 497 308 l 497 346 q 460 334 381 317 q 302 300 277 283 l 277 283 q 240 257 240 216 l 240 216 q 240 176 270 147 q 300 118 346 118 l 346 118 q 397 118 444 152 l 444 152 q 479 178 490 215 l 490 215 q 497 239 497 308 l 497 308 z m 504 1011 l 504 1011 l 597 1011 q 589 919 532 866 q 475 814 385 814 l 385 814 q 295 814 238 866 q 182 919 174 1011 l 174 1011 l 267 1011 q 271 963 300 938 q 330 913 385 913 l 385 913 q 441 913 470 938 q 499 963 504 1011 z "},"Ą":{"ha":1003,"x_min":0,"x_max":998,"o":"m 600 994 l 998 0 l 779 0 l 692 226 l 295 226 l 213 0 l 0 0 l 387 994 l 600 994 z m 357 393 l 628 393 l 491 762 l 357 393 z m 823 0 l 937 0 q 924 -9 913 -22 q 903 -35 895 -49 q 888 -63 884 -78 q 880 -92 880 -106 l 880 -106 q 880 -128 891 -143 q 903 -159 931 -159 l 931 -159 q 943 -159 959 -154 q 974 -150 987 -146 l 987 -146 l 987 -259 q 930 -286 885 -286 l 885 -286 q 847 -286 819 -276 q 791 -266 773 -248 q 754 -231 745 -207 q 736 -184 736 -157 l 736 -157 q 736 -118 760 -75 q 783 -33 823 0 l 823 0 z "},"ą":{"ha":772,"x_min":50,"x_max":733,"o":"m 242 500 l 242 500 l 69 532 q 98 636 170 686 q 241 736 381 736 l 381 736 q 509 736 571 706 q 633 676 659 630 q 684 583 684 459 l 684 459 l 682 237 q 682 142 691 97 q 701 52 726 0 l 726 0 l 537 0 q 530 19 519 56 l 519 56 q 514 73 512 79 l 512 79 q 463 31 408 7 q 352 -16 289 -16 l 289 -16 q 178 -16 114 44 q 50 104 50 197 l 50 197 q 50 258 79 306 q 108 353 160 379 q 213 404 312 423 l 312 423 q 446 448 497 470 l 497 470 l 497 489 q 497 544 470 567 q 443 591 368 591 l 368 591 q 317 591 288 571 q 260 551 242 500 z m 497 308 l 497 346 q 460 334 381 317 q 302 300 277 283 l 277 283 q 240 257 240 216 l 240 216 q 240 176 270 147 q 300 118 346 118 l 346 118 q 397 118 444 152 l 444 152 q 479 178 490 215 l 490 215 q 497 239 497 308 l 497 308 z m 569 0 l 682 0 q 669 -9 659 -22 q 648 -35 641 -49 q 633 -63 629 -78 q 625 -92 625 -106 l 625 -106 q 625 -128 637 -143 q 649 -159 677 -159 l 677 -159 q 689 -159 704 -154 q 720 -150 733 -146 l 733 -146 l 733 -259 q 676 -286 631 -286 l 631 -286 q 593 -286 565 -276 q 537 -266 518 -248 q 500 -231 491 -207 q 481 -184 481 -157 l 481 -157 q 481 -118 505 -75 q 529 -33 569 0 l 569 0 z "},"Ď":{"ha":1003,"x_min":100,"x_max":934,"o":"m 100 0 l 100 994 l 467 994 q 591 994 656 975 l 656 975 q 744 949 806 884 q 869 818 901 723 q 934 627 934 488 l 934 488 q 934 365 903 276 l 903 276 q 866 168 797 100 l 797 100 q 745 50 656 21 l 656 21 q 589 0 478 0 l 478 0 l 100 0 z m 391 826 l 301 826 l 301 168 l 451 168 q 535 168 572 177 l 572 177 q 621 189 653 218 q 686 248 706 314 q 726 381 726 496 l 726 496 q 726 612 706 673 q 686 735 649 770 q 612 804 556 817 l 556 817 q 514 826 391 826 l 391 826 z m 328 1055 l 186 1255 l 340 1255 l 413 1154 l 492 1255 l 645 1255 l 505 1055 l 328 1055 z "},"ď":{"ha":998,"x_min":55,"x_max":998,"o":"m 827 823 l 827 994 l 998 994 l 998 871 q 998 795 985 752 q 971 709 935 675 q 898 641 846 623 l 846 623 l 812 694 q 864 711 886 741 q 909 772 909 823 l 909 823 l 827 823 z m 758 994 l 758 0 l 581 0 l 581 106 q 537 44 477 14 q 417 -16 356 -16 l 356 -16 q 232 -16 143 84 q 55 184 55 363 l 55 363 q 55 546 141 641 q 227 736 359 736 l 359 736 q 479 736 568 636 l 568 636 l 568 994 l 758 994 z m 250 376 l 250 376 q 250 260 281 209 l 281 209 q 328 134 410 134 l 410 134 q 476 134 522 190 q 568 246 568 357 l 568 357 q 568 481 524 536 q 479 591 409 591 l 409 591 q 341 591 295 537 q 250 483 250 376 z "},"Đ":{"ha":1003,"x_min":-2,"x_max":935,"o":"m 101 560 l 101 994 l 467 994 q 593 994 659 975 l 659 975 q 747 948 809 881 q 871 814 903 720 q 935 625 935 485 l 935 485 q 935 362 900 263 q 865 165 797 99 l 797 99 q 745 50 656 21 l 656 21 q 590 0 478 0 l 478 0 l 101 0 l 101 434 l -2 434 l -2 560 l 101 560 z m 392 826 l 301 826 l 301 560 l 514 560 l 514 434 l 301 434 l 301 168 l 452 168 q 551 168 595 184 l 595 184 q 654 204 684 258 l 684 258 q 727 335 727 492 l 727 492 q 727 604 709 665 q 691 726 656 763 q 621 800 565 815 l 565 815 q 522 826 392 826 l 392 826 z "},"Ę":{"ha":926,"x_min":101,"x_max":857,"o":"m 857 0 l 101 0 l 101 994 l 838 994 l 838 826 l 302 826 l 302 606 l 801 606 l 801 438 l 302 438 l 302 168 l 857 168 l 857 0 z m 692 0 l 805 0 q 792 -9 782 -22 q 771 -35 764 -49 q 756 -63 752 -78 q 748 -92 748 -106 l 748 -106 q 748 -128 760 -143 q 772 -159 800 -159 l 800 -159 q 812 -159 827 -154 q 842 -150 856 -146 l 856 -146 l 856 -259 q 799 -286 753 -286 l 753 -286 q 715 -286 688 -276 q 660 -266 641 -248 q 623 -231 613 -207 q 604 -184 604 -157 l 604 -157 q 604 -118 628 -75 q 652 -33 692 0 l 692 0 z "},"ę":{"ha":772,"x_min":44,"x_max":721,"o":"m 517 229 l 517 229 l 707 197 q 670 93 591 38 q 512 -16 393 -16 l 393 -16 q 205 -16 115 106 l 115 106 q 44 205 44 355 l 44 355 q 44 534 138 635 q 231 736 374 736 l 374 736 q 535 736 628 630 q 721 524 717 305 l 717 305 l 239 305 q 241 220 286 173 q 330 126 395 126 l 395 126 q 440 126 471 151 q 501 175 517 229 z m 243 422 l 528 422 q 526 505 485 548 q 444 591 386 591 l 386 591 q 323 591 283 545 l 283 545 q 242 500 243 422 l 243 422 z m 397 0 l 511 0 q 498 -9 487 -22 q 477 -35 469 -49 q 462 -63 458 -78 q 454 -92 454 -106 l 454 -106 q 454 -128 466 -143 q 477 -159 505 -159 l 505 -159 q 517 -159 533 -154 q 548 -150 562 -146 l 562 -146 l 562 -259 q 505 -286 459 -286 l 459 -286 q 421 -286 393 -276 q 366 -266 347 -248 q 328 -231 319 -207 q 310 -184 310 -157 l 310 -157 q 310 -118 334 -75 q 357 -33 397 0 l 397 0 z "},"Ě":{"ha":926,"x_min":101,"x_max":857,"o":"m 857 0 l 101 0 l 101 994 l 838 994 l 838 826 l 302 826 l 302 606 l 801 606 l 801 438 l 302 438 l 302 168 l 857 168 l 857 0 z m 372 1055 l 229 1255 l 383 1255 l 456 1154 l 535 1255 l 688 1255 l 548 1055 l 372 1055 z "},"ě":{"ha":772,"x_min":44,"x_max":721,"o":"m 517 229 l 517 229 l 707 197 q 670 93 591 38 q 512 -16 393 -16 l 393 -16 q 205 -16 115 106 l 115 106 q 44 205 44 355 l 44 355 q 44 534 138 635 q 231 736 374 736 l 374 736 q 535 736 628 630 q 721 524 717 305 l 717 305 l 239 305 q 241 220 286 173 q 330 126 395 126 l 395 126 q 440 126 471 151 q 501 175 517 229 z m 243 422 l 528 422 q 526 505 485 548 q 444 591 386 591 l 386 591 q 323 591 283 545 l 283 545 q 242 500 243 422 l 243 422 z m 293 811 l 151 1011 l 304 1011 l 378 910 l 456 1011 l 610 1011 l 469 811 l 293 811 z "},"Ĺ":{"ha":848,"x_min":106,"x_max":806,"o":"m 806 0 l 106 0 l 106 986 l 307 986 l 307 168 l 806 168 l 806 0 z m 412 1051 l 292 1051 l 385 1254 l 599 1254 l 412 1051 z "},"ĺ":{"ha":386,"x_min":82,"x_max":389,"o":"m 290 0 l 100 0 l 100 994 l 290 994 l 290 0 z m 203 1045 l 82 1045 l 176 1248 l 389 1248 l 203 1045 z "},"Ľ":{"ha":848,"x_min":106,"x_max":806,"o":"m 806 0 l 106 0 l 106 986 l 307 986 l 307 168 l 806 168 l 806 0 z m 569 795 l 569 986 l 760 986 l 760 849 q 760 766 745 719 q 731 671 691 633 q 652 595 591 573 l 591 573 l 553 652 q 610 671 635 705 q 660 738 661 795 l 661 795 l 569 795 z "},"ľ":{"ha":535,"x_min":101,"x_max":532,"o":"m 360 823 l 360 994 l 532 994 l 532 871 q 532 795 518 752 q 505 709 468 675 q 431 641 380 623 l 380 623 l 346 694 q 397 711 420 741 q 443 772 443 823 l 443 823 l 360 823 z m 292 0 l 101 0 l 101 994 l 292 994 l 292 0 z "},"Ŀ":{"ha":848,"x_min":106,"x_max":806,"o":"m 806 0 l 106 0 l 106 986 l 307 986 l 307 168 l 806 168 l 806 0 z m 519 389 l 329 389 l 329 579 l 519 579 l 519 389 z "},"ŀ":{"ha":665,"x_min":100,"x_max":570,"o":"m 290 0 l 100 0 l 100 994 l 290 994 l 290 0 z m 570 389 l 380 389 l 380 579 l 570 579 l 570 389 z "},"Ń":{"ha":1003,"x_min":103,"x_max":892,"o":"m 290 0 l 103 0 l 103 994 l 298 994 l 705 330 l 705 994 l 892 994 l 892 0 l 690 0 l 290 648 l 290 0 z m 497 1051 l 376 1051 l 470 1254 l 684 1254 l 497 1051 z "},"ń":{"ha":848,"x_min":98,"x_max":755,"o":"m 755 448 l 755 0 l 564 0 l 564 368 q 564 484 552 518 q 540 553 512 572 q 485 591 446 591 l 446 591 q 397 591 357 564 q 318 536 303 492 q 289 447 289 326 l 289 326 l 289 0 l 98 0 l 98 720 l 275 720 l 275 614 q 370 736 513 736 l 513 736 q 576 736 628 714 q 680 691 707 656 q 734 621 744 576 q 755 531 755 448 l 755 448 z m 443 808 l 322 808 l 416 1011 l 629 1011 l 443 808 z "},"Ň":{"ha":1003,"x_min":103,"x_max":892,"o":"m 290 0 l 103 0 l 103 994 l 298 994 l 705 330 l 705 994 l 892 994 l 892 0 l 690 0 l 290 648 l 290 0 z m 399 1055 l 256 1255 l 410 1255 l 484 1154 l 562 1255 l 715 1255 l 575 1055 l 399 1055 z "},"ň":{"ha":848,"x_min":98,"x_max":755,"o":"m 755 448 l 755 0 l 564 0 l 564 368 q 564 484 552 518 q 540 553 512 572 q 485 591 446 591 l 446 591 q 397 591 357 564 q 318 536 303 492 q 289 447 289 326 l 289 326 l 289 0 l 98 0 l 98 720 l 275 720 l 275 614 q 370 736 513 736 l 513 736 q 576 736 628 714 q 680 691 707 656 q 734 621 744 576 q 755 531 755 448 l 755 448 z m 339 811 l 197 1011 l 351 1011 l 424 910 l 503 1011 l 656 1011 l 515 811 l 339 811 z "},"Ő":{"ha":1080,"x_min":60,"x_max":1025,"o":"m 60 491 l 60 491 q 60 643 106 746 l 106 746 q 140 822 198 882 q 257 943 327 972 l 327 972 q 420 1011 541 1011 l 541 1011 q 761 1011 893 875 q 1025 739 1025 496 l 1025 496 q 1025 255 894 119 q 763 -17 544 -17 l 544 -17 q 322 -17 191 118 q 60 254 60 491 z m 267 498 l 267 498 q 267 329 345 242 q 423 155 543 155 l 543 155 q 663 155 740 241 q 817 328 817 500 l 817 500 q 817 671 742 755 q 667 840 543 840 l 543 840 q 419 840 343 754 q 267 669 267 498 z m 445 1051 l 326 1051 l 420 1253 l 619 1253 l 445 1051 z m 703 1051 l 581 1051 l 676 1253 l 870 1253 l 703 1051 z "},"ő":{"ha":848,"x_min":56,"x_max":799,"o":"m 56 370 l 56 370 q 56 465 102 554 q 149 643 235 690 q 321 736 427 736 l 427 736 q 590 736 694 630 q 799 524 799 362 l 799 362 q 799 199 693 91 q 588 -16 428 -16 l 428 -16 q 329 -16 239 28 q 149 73 102 160 q 56 246 56 370 z m 251 360 l 251 360 q 251 253 302 196 q 353 139 427 139 l 427 139 q 502 139 552 196 q 603 253 603 361 l 603 361 q 603 467 552 524 q 502 581 427 581 l 427 581 q 353 581 302 524 q 251 467 251 360 z m 313 812 l 193 812 l 288 1014 l 487 1014 l 313 812 z m 570 812 l 448 812 l 544 1014 l 738 1014 l 570 812 z "},"Ŕ":{"ha":1003,"x_min":102,"x_max":996,"o":"m 302 0 l 102 0 l 102 994 l 524 994 q 684 994 756 967 q 828 941 871 872 q 915 804 915 715 l 915 715 q 915 604 849 531 q 783 458 652 439 l 652 439 q 718 401 760 355 q 802 310 874 194 l 874 194 l 996 0 l 755 0 l 610 216 q 533 332 505 362 q 476 393 444 404 q 412 415 343 415 l 343 415 l 302 415 l 302 0 z m 302 826 l 302 574 l 451 574 q 595 574 631 586 q 667 598 688 628 q 708 658 708 703 l 708 703 q 708 753 681 784 q 654 814 606 823 l 606 823 q 581 826 459 826 l 459 826 l 302 826 z m 439 1051 l 318 1051 l 412 1254 l 625 1254 l 439 1051 z "},"ŕ":{"ha":541,"x_min":92,"x_max":558,"o":"m 282 222 l 282 0 l 92 0 l 92 720 l 269 720 l 269 618 q 314 690 350 713 q 387 736 433 736 l 433 736 q 498 736 558 701 l 558 701 l 499 534 q 451 566 410 566 l 410 566 q 370 566 342 544 q 314 522 298 464 q 282 406 282 222 l 282 222 z m 308 808 l 187 808 l 281 1011 l 494 1011 l 308 808 z "},"Ř":{"ha":1003,"x_min":102,"x_max":996,"o":"m 302 0 l 102 0 l 102 994 l 524 994 q 684 994 756 967 q 828 941 871 872 q 915 804 915 715 l 915 715 q 915 604 849 531 q 783 458 652 439 l 652 439 q 718 401 760 355 q 802 310 874 194 l 874 194 l 996 0 l 755 0 l 610 216 q 533 332 505 362 q 476 393 444 404 q 412 415 343 415 l 343 415 l 302 415 l 302 0 z m 302 826 l 302 574 l 451 574 q 595 574 631 586 q 667 598 688 628 q 708 658 708 703 l 708 703 q 708 753 681 784 q 654 814 606 823 l 606 823 q 581 826 459 826 l 459 826 l 302 826 z m 345 1055 l 202 1255 l 356 1255 l 429 1154 l 508 1255 l 661 1255 l 521 1055 l 345 1055 z "},"ř":{"ha":541,"x_min":54,"x_max":558,"o":"m 282 222 l 282 0 l 92 0 l 92 720 l 269 720 l 269 618 q 314 690 350 713 q 387 736 433 736 l 433 736 q 498 736 558 701 l 558 701 l 499 534 q 451 566 410 566 l 410 566 q 370 566 342 544 q 314 522 298 464 q 282 406 282 222 l 282 222 z m 197 811 l 54 1011 l 208 1011 l 281 910 l 360 1011 l 513 1011 l 373 811 l 197 811 z "},"Ś":{"ha":926,"x_min":50,"x_max":859,"o":"m 50 323 l 50 323 l 245 342 q 263 244 317 198 q 371 152 463 152 l 463 152 q 559 152 609 193 q 658 234 658 289 l 658 289 q 658 324 637 349 q 616 374 565 392 l 565 392 q 530 404 404 435 l 404 435 q 243 475 178 534 l 178 534 q 86 616 86 734 l 86 734 q 86 810 129 876 q 172 942 253 977 q 334 1011 449 1011 l 449 1011 q 636 1011 731 929 q 825 847 830 710 l 830 710 l 629 701 q 616 778 574 811 q 532 845 447 845 l 447 845 q 359 845 310 809 l 310 809 q 278 786 278 747 l 278 747 q 278 712 308 687 l 308 687 q 346 655 492 621 q 639 586 709 549 q 779 512 819 448 q 859 384 859 290 l 859 290 q 859 204 811 130 q 764 55 677 19 q 590 -18 460 -18 l 460 -18 q 272 -18 171 70 q 70 157 50 323 z m 494 1051 l 374 1051 l 467 1254 l 681 1254 l 494 1051 z "},"ś":{"ha":772,"x_min":33,"x_max":705,"o":"m 33 205 l 33 205 l 224 235 q 236 179 273 150 q 311 121 378 121 l 378 121 q 452 121 489 149 l 489 149 q 514 168 514 199 l 514 199 q 514 221 500 235 l 500 235 q 486 249 437 260 l 437 260 q 206 311 144 353 l 144 353 q 59 412 59 515 l 59 515 q 59 609 133 673 q 207 736 362 736 l 362 736 q 510 736 582 688 q 654 640 681 546 l 681 546 l 501 513 q 490 555 457 577 q 425 600 366 600 l 366 600 q 290 600 258 578 l 258 578 q 236 564 236 540 l 236 540 q 236 519 255 505 l 255 505 q 281 486 433 452 q 585 417 646 367 l 646 367 q 705 316 705 225 l 705 225 q 705 126 623 55 q 540 -16 378 -16 l 378 -16 q 231 -16 145 43 q 59 103 33 205 z m 429 808 l 308 808 l 401 1011 l 615 1011 l 429 808 z "},"Ţ":{"ha":848,"x_min":30,"x_max":820,"o":"m 526 0 l 325 0 l 325 826 l 30 826 l 30 994 l 820 994 l 820 826 l 526 826 l 526 0 z m 236 -273 l 236 -273 l 236 -193 q 306 -201 364 -201 l 364 -201 q 425 -201 454 -179 l 454 -179 q 476 -163 476 -137 l 476 -137 q 476 -114 455 -97 q 434 -80 390 -80 l 390 -80 q 347 -80 301 -94 l 301 -94 l 319 -26 q 372 -8 433 -8 l 433 -8 q 517 -8 562 -45 q 606 -83 606 -136 l 606 -136 q 606 -196 557 -233 l 557 -233 q 491 -284 368 -284 l 368 -284 q 281 -284 236 -273 z "},"ţ":{"ha":463,"x_min":21,"x_max":450,"o":"m 300 720 l 430 720 l 430 568 l 300 568 l 300 278 q 300 190 303 175 q 307 161 320 151 q 334 142 353 142 l 353 142 q 379 142 429 160 l 429 160 l 446 12 q 379 -16 295 -16 l 295 -16 q 243 -16 202 1 q 161 18 141 46 q 122 73 115 120 l 115 120 q 109 153 109 254 l 109 254 l 109 568 l 21 568 l 21 720 l 109 720 l 109 863 l 300 975 l 300 720 z m 80 -273 l 80 -273 l 80 -193 q 150 -201 208 -201 l 208 -201 q 269 -201 298 -179 l 298 -179 q 320 -163 320 -137 l 320 -137 q 320 -114 299 -97 q 278 -80 234 -80 l 234 -80 q 191 -80 145 -94 l 145 -94 l 163 -26 q 216 -8 277 -8 l 277 -8 q 361 -8 406 -45 q 450 -83 450 -136 l 450 -136 q 450 -196 401 -233 l 401 -233 q 335 -284 212 -284 l 212 -284 q 125 -284 80 -273 z "},"Ť":{"ha":848,"x_min":30,"x_max":820,"o":"m 526 0 l 325 0 l 325 826 l 30 826 l 30 994 l 820 994 l 820 826 l 526 826 l 526 0 z m 328 1055 l 185 1255 l 339 1255 l 412 1154 l 491 1255 l 644 1255 l 504 1055 l 328 1055 z "},"ť":{"ha":665,"x_min":20,"x_max":667,"o":"m 495 823 l 495 994 l 667 994 l 667 871 q 667 795 653 752 q 640 709 603 675 q 566 641 515 623 l 515 623 l 481 694 q 532 711 555 741 q 578 772 578 823 l 578 823 l 495 823 z m 299 720 l 429 720 l 429 568 l 299 568 l 299 278 q 299 190 303 175 q 307 161 320 151 q 333 142 352 142 l 352 142 q 378 142 429 160 l 429 160 l 445 12 q 378 -16 294 -16 l 294 -16 q 243 -16 201 1 q 160 18 141 46 q 121 73 114 120 l 114 120 q 108 153 108 254 l 108 254 l 108 568 l 20 568 l 20 720 l 108 720 l 108 863 l 299 975 l 299 720 z "},"Ů":{"ha":1003,"x_min":100,"x_max":892,"o":"m 100 464 l 100 994 l 300 994 l 300 456 q 300 328 308 290 l 308 290 q 321 229 369 192 q 418 155 502 155 l 502 155 q 587 155 631 190 q 674 224 683 275 q 692 326 692 444 l 692 444 l 692 994 l 892 994 l 892 472 q 892 293 876 219 q 860 145 816 94 q 772 43 699 13 q 626 -17 508 -17 l 508 -17 q 366 -17 292 16 q 218 49 176 101 q 133 154 119 212 l 119 212 q 100 297 100 464 l 100 464 z m 629 1144 l 629 1144 q 629 1089 590 1050 q 551 1011 496 1011 l 496 1011 q 441 1011 402 1050 q 363 1089 363 1144 l 363 1144 q 363 1199 402 1238 q 441 1277 496 1277 l 496 1277 q 551 1277 590 1238 q 629 1200 629 1144 z m 557 1144 l 557 1144 q 557 1169 539 1187 q 522 1204 496 1204 l 496 1204 q 471 1204 454 1187 q 436 1169 436 1144 l 436 1144 q 436 1119 454 1101 q 471 1084 496 1084 l 496 1084 q 522 1084 539 1101 q 557 1119 557 1144 z "},"ů":{"ha":848,"x_min":96,"x_max":751,"o":"m 751 0 l 574 0 l 574 108 q 534 50 470 17 q 406 -16 335 -16 l 335 -16 q 262 -16 205 16 q 147 47 121 105 q 96 163 96 264 l 96 264 l 96 720 l 286 720 l 286 389 q 286 237 297 203 q 307 169 335 149 q 363 129 406 129 l 406 129 q 454 129 493 156 q 532 182 546 222 q 560 262 560 416 l 560 416 l 560 720 l 751 720 l 751 0 z m 556 910 l 556 910 q 556 855 517 816 q 478 777 423 777 l 423 777 q 368 777 329 816 q 290 855 290 910 l 290 910 q 290 965 329 1004 q 368 1043 423 1043 l 423 1043 q 478 1043 517 1004 q 556 966 556 910 z m 484 910 l 484 910 q 484 935 466 953 q 448 970 423 970 l 423 970 q 398 970 380 953 q 363 935 363 910 l 363 910 q 363 885 380 867 q 398 850 423 850 l 423 850 q 448 850 466 867 q 484 885 484 910 z "},"Ű":{"ha":1003,"x_min":100,"x_max":892,"o":"m 100 464 l 100 994 l 300 994 l 300 456 q 300 328 308 290 l 308 290 q 321 229 369 192 q 418 155 502 155 l 502 155 q 587 155 631 190 q 674 224 683 275 q 692 326 692 444 l 692 444 l 692 994 l 892 994 l 892 472 q 892 293 876 219 q 860 145 816 94 q 772 43 699 13 q 626 -17 508 -17 l 508 -17 q 366 -17 292 16 q 218 49 176 101 q 133 154 119 212 l 119 212 q 100 297 100 464 l 100 464 z m 406 1051 l 286 1051 l 380 1253 l 580 1253 l 406 1051 z m 663 1051 l 541 1051 l 637 1253 l 831 1253 l 663 1051 z "},"ű":{"ha":848,"x_min":96,"x_max":761,"o":"m 751 0 l 574 0 l 574 108 q 534 50 470 17 q 406 -16 335 -16 l 335 -16 q 262 -16 205 16 q 147 47 121 105 q 96 163 96 264 l 96 264 l 96 720 l 286 720 l 286 389 q 286 237 297 203 q 307 169 335 149 q 363 129 406 129 l 406 129 q 454 129 493 156 q 532 182 546 222 q 560 262 560 416 l 560 416 l 560 720 l 751 720 l 751 0 z m 336 812 l 216 812 l 311 1014 l 510 1014 l 336 812 z m 593 812 l 471 812 l 567 1014 l 761 1014 l 593 812 z "},"Ź":{"ha":848,"x_min":15,"x_max":823,"o":"m 823 0 l 15 0 l 15 181 l 537 826 l 74 826 l 74 994 l 802 994 l 802 838 l 257 168 l 823 168 l 823 0 z m 416 1051 l 295 1051 l 389 1254 l 602 1254 l 416 1051 z "},"ź":{"ha":694,"x_min":23,"x_max":666,"o":"m 666 0 l 23 0 l 23 149 l 293 458 q 359 534 391 566 l 391 566 q 358 564 304 564 l 304 564 l 50 562 l 50 720 l 645 720 l 645 585 l 370 268 l 273 163 q 352 168 371 168 l 371 168 l 666 168 l 666 0 z m 336 808 l 216 808 l 309 1011 l 523 1011 l 336 808 z "},"Ż":{"ha":848,"x_min":15,"x_max":823,"o":"m 823 0 l 15 0 l 15 181 l 537 826 l 74 826 l 74 994 l 802 994 l 802 838 l 257 168 l 823 168 l 823 0 z m 530 1056 l 342 1056 l 342 1236 l 530 1236 l 530 1056 z "},"ż":{"ha":694,"x_min":23,"x_max":666,"o":"m 666 0 l 23 0 l 23 149 l 293 458 q 359 534 391 566 l 391 566 q 358 564 304 564 l 304 564 l 50 562 l 50 720 l 645 720 l 645 585 l 370 268 l 273 163 q 352 168 371 168 l 371 168 l 666 168 l 666 0 z m 431 831 l 244 831 l 244 1011 l 431 1011 l 431 831 z "},"Γ":{"ha":835,"x_min":104,"x_max":804,"o":"m 104 0 l 104 994 l 804 994 l 804 825 l 305 825 l 305 0 l 104 0 z "},"Θ":{"ha":1080,"x_min":58,"x_max":1023,"o":"m 58 491 l 58 491 q 58 734 186 872 q 313 1011 539 1011 l 539 1011 q 766 1011 895 871 q 1023 730 1023 496 l 1023 496 q 1023 261 895 122 q 766 -17 556 -17 l 556 -17 q 389 -17 285 41 q 181 100 120 216 q 58 332 58 491 z m 265 498 l 265 498 q 265 324 345 239 q 425 155 541 155 l 541 155 q 656 155 736 238 q 815 322 815 500 l 815 500 q 815 667 742 753 q 669 840 541 840 l 541 840 q 412 840 339 752 q 265 665 265 498 z m 702 413 l 379 413 l 379 581 l 702 581 l 702 413 z "},"Φ":{"ha":1140,"x_min":58,"x_max":1082,"o":"m 470 930 l 470 1019 l 671 1019 l 671 930 q 854 926 968 810 q 1082 694 1082 509 l 1082 509 q 1082 337 973 214 q 865 90 671 79 l 671 79 l 671 -40 l 470 -40 l 470 79 q 275 90 167 214 q 58 338 58 509 l 58 509 q 58 627 105 718 q 153 810 246 868 q 339 927 470 930 l 470 930 z m 470 256 l 470 760 q 376 751 321 685 q 265 619 265 509 l 265 509 q 265 405 319 335 q 372 265 470 256 l 470 256 z m 671 760 l 671 256 q 764 267 819 332 q 875 397 875 509 l 875 509 q 875 612 822 682 q 768 752 671 760 l 671 760 z "},"α":{"ha":854,"x_min":53,"x_max":808,"o":"m 645 720 l 645 720 l 808 720 q 770 642 744 519 q 718 397 718 348 l 718 348 q 718 285 741 183 q 765 81 801 0 l 801 0 l 641 0 q 637 14 629 38 l 629 38 q 614 79 604 119 l 604 119 q 521 -16 366 -16 l 366 -16 q 220 -16 137 102 q 53 220 53 378 l 53 378 q 53 528 136 632 q 220 736 368 736 l 368 736 q 515 736 605 596 l 605 596 q 617 646 645 720 z m 248 358 l 248 358 q 248 258 291 196 q 333 134 401 134 l 401 134 q 466 134 507 189 q 549 244 549 358 l 549 358 q 549 470 505 528 q 460 585 398 585 l 398 585 q 333 585 291 526 q 248 466 248 358 z "},"δ":{"ha":842,"x_min":53,"x_max":790,"o":"m 120 860 l 120 994 l 728 994 l 728 836 l 389 836 q 446 783 583 691 l 583 691 q 671 632 708 590 q 745 549 768 486 q 790 423 790 355 l 790 355 q 790 202 696 93 q 603 -16 423 -16 l 423 -16 q 300 -16 227 29 q 154 75 103 162 q 53 250 53 362 l 53 362 q 53 492 127 591 q 202 690 320 709 l 320 709 q 244 763 218 784 l 218 784 l 120 860 z m 237 340 l 237 340 q 237 239 290 184 q 343 130 420 130 l 420 130 q 496 130 551 187 q 606 244 606 347 l 606 347 q 606 451 553 508 q 499 565 425 565 l 425 565 q 338 565 287 502 q 237 439 237 340 z "},"ε":{"ha":659,"x_min":53,"x_max":643,"o":"m 448 445 l 448 445 l 448 297 q 332 297 290 278 q 248 259 248 212 l 248 212 q 248 178 277 156 q 307 134 347 134 l 347 134 q 418 134 517 201 l 517 201 l 643 77 q 486 -16 336 -16 l 336 -16 q 215 -16 134 43 q 53 103 53 197 l 53 197 q 53 319 180 373 l 180 373 q 80 428 80 530 l 80 530 q 80 615 145 676 q 210 736 351 736 l 351 736 q 509 736 613 664 l 613 664 l 500 543 q 431 581 364 581 l 364 581 q 317 581 293 563 q 269 545 269 519 l 269 519 q 269 445 448 445 z "},"σ":{"ha":950,"x_min":53,"x_max":918,"o":"m 545 720 l 918 720 l 918 562 l 743 562 q 796 472 796 363 l 796 363 q 796 205 693 95 q 591 -16 422 -16 l 422 -16 q 257 -16 155 87 q 53 190 53 357 l 53 357 q 53 522 153 629 q 253 736 427 736 l 427 736 q 478 736 545 720 l 545 720 z m 248 360 l 248 360 q 248 257 298 198 q 347 139 425 139 l 425 139 q 499 139 550 196 q 600 253 600 363 l 600 363 q 600 461 552 521 q 504 581 425 581 l 425 581 q 347 581 297 522 q 248 463 248 360 z "},"τ":{"ha":620,"x_min":33,"x_max":587,"o":"m 33 562 l 33 720 l 587 720 l 587 562 l 410 562 l 410 0 l 220 0 l 220 562 l 33 562 z "},"φ":{"ha":994,"x_min":53,"x_max":941,"o":"m 387 736 l 387 736 l 345 568 q 296 553 272 499 q 248 445 248 383 l 248 383 q 248 301 286 234 q 324 166 403 140 l 403 140 l 403 450 q 403 564 419 619 q 436 674 484 705 q 532 736 609 736 l 609 736 q 715 736 791 684 q 867 631 904 546 q 941 461 941 378 l 941 378 q 941 234 850 122 q 759 11 593 -19 l 593 -19 l 593 -274 l 403 -274 l 403 -19 q 241 4 147 112 q 53 220 53 372 l 53 372 q 53 544 149 648 l 149 648 q 233 738 387 736 z m 593 425 l 593 131 q 745 199 745 402 l 745 402 q 745 474 715 528 q 686 581 642 581 l 642 581 q 619 581 606 561 q 593 540 593 425 l 593 425 z "},"‗":{"ha":767,"x_min":-13,"x_max":779,"o":"m 779 -275 l -13 -275 l -13 -151 l 779 -151 l 779 -275 z m 779 -523 l -13 -523 l -13 -399 l 779 -399 l 779 -523 z "},"‼":{"ha":839,"x_min":125,"x_max":707,"o":"m 282 256 l 174 256 l 125 761 l 125 994 l 331 994 l 331 761 l 282 256 z m 323 0 l 133 0 l 133 191 l 323 191 l 323 0 z m 658 256 l 550 256 l 500 761 l 500 994 l 707 994 l 707 761 l 658 256 z m 699 0 l 509 0 l 509 191 l 699 191 l 699 0 z "},"ⁿ":{"ha":550,"x_min":54,"x_max":496,"o":"m 496 630 l 496 352 l 356 352 l 356 582 q 356 648 350 667 q 343 685 328 695 q 312 706 288 706 l 288 706 q 235 706 210 669 l 210 669 q 194 644 194 557 l 194 557 l 194 352 l 54 352 l 54 803 l 185 803 l 185 752 l 197 763 q 219 784 255 798 q 290 812 330 812 l 330 812 q 385 812 424 791 q 463 770 480 734 q 496 699 496 630 l 496 630 z "},"₧":{"ha":1519,"x_min":28,"x_max":1493,"o":"m 28 0 l 28 994 l 313 994 q 453 994 534 923 q 616 852 631 723 l 631 723 l 689 723 l 689 938 l 884 938 l 884 723 l 1074 723 q 1141 742 1205 742 l 1205 742 q 1291 742 1339 720 q 1387 699 1419 664 q 1451 630 1466 592 q 1480 554 1482 505 l 1482 505 l 1303 505 q 1299 554 1271 581 q 1243 608 1202 608 l 1202 608 q 1167 608 1144 588 q 1122 568 1122 547 l 1122 547 q 1122 516 1152 495 l 1152 495 q 1181 474 1272 444 l 1272 444 q 1413 395 1453 349 l 1453 349 q 1493 302 1493 224 l 1493 224 q 1493 119 1418 51 q 1343 -18 1206 -18 l 1206 -18 q 1131 -18 1080 3 l 1080 3 q 1040 18 1013 45 l 1013 45 q 993 64 970 106 l 970 106 l 970 -13 q 921 -18 888 -18 l 888 -18 q 808 -18 755 10 l 755 10 q 715 30 699 74 l 699 74 q 689 101 689 189 l 689 189 l 689 582 l 625 582 q 601 496 561 446 q 521 395 460 371 q 400 347 300 347 l 300 347 l 240 347 l 240 0 l 28 0 z m 240 819 l 240 819 l 240 522 q 322 520 361 545 l 361 545 q 424 587 424 673 l 424 673 q 424 753 365 793 l 365 793 q 326 819 240 819 z m 970 582 l 884 582 l 884 211 q 884 170 889 160 q 895 150 909 143 q 924 136 958 136 l 958 136 q 945 177 945 205 l 945 205 q 945 213 945 227 l 945 227 l 1112 227 q 1118 183 1133 163 l 1133 163 q 1165 125 1212 125 l 1212 125 q 1251 125 1279 149 q 1307 174 1307 202 l 1307 202 q 1307 220 1288 239 l 1288 239 q 1268 257 1200 277 l 1200 277 q 1057 320 1005 378 l 1005 378 q 954 435 954 511 l 954 511 q 954 545 970 582 l 970 582 z "},"←":{"ha":1389,"x_min":54,"x_max":1335,"o":"m 334 594 l 334 594 l 385 594 q 345 514 325 482 q 304 450 253 385 l 253 385 l 1335 385 l 1335 316 l 253 316 q 323 243 387 106 l 387 106 l 334 106 q 247 204 184 255 q 121 305 54 338 l 54 338 l 54 368 q 113 393 178 445 q 244 496 334 594 z "},"↑":{"ha":694,"x_min":104,"x_max":591,"o":"m 104 576 l 104 628 q 202 718 253 784 q 304 850 330 908 l 330 908 l 361 908 q 393 841 443 778 q 494 715 591 627 l 591 627 l 591 575 q 455 639 382 709 l 382 709 l 382 -291 l 313 -291 l 313 709 q 249 658 217 637 q 184 616 104 576 l 104 576 z "},"→":{"ha":1389,"x_min":54,"x_max":1335,"o":"m 1003 594 l 1055 594 q 1145 496 1211 445 q 1276 393 1335 368 l 1335 368 l 1335 338 q 1267 305 1204 255 q 1141 204 1054 106 l 1054 106 l 1002 106 q 1065 243 1135 316 l 1135 316 l 54 316 l 54 385 l 1135 385 q 1084 450 1063 482 q 1043 514 1003 594 l 1003 594 z "},"↓":{"ha":694,"x_min":104,"x_max":591,"o":"m 104 -11 l 104 -11 l 104 41 q 184 1 217 -20 q 249 -40 313 -92 l 313 -92 l 313 908 l 382 908 l 382 -92 q 455 -22 591 42 l 591 42 l 591 -10 q 494 -98 443 -161 q 393 -224 361 -291 l 361 -291 l 330 -291 q 304 -233 253 -167 q 202 -101 104 -11 z "},"↔":{"ha":1389,"x_min":54,"x_max":1335,"o":"m 1335 366 l 1335 366 l 1335 336 q 1271 307 1209 257 q 1147 208 1059 107 l 1059 107 l 1005 107 q 1052 224 1137 318 l 1137 318 l 252 318 q 336 224 383 107 l 383 107 l 329 107 q 241 208 179 257 q 117 307 54 336 l 54 336 l 54 366 q 117 396 179 445 q 241 494 329 595 l 329 595 l 383 595 q 336 479 252 385 l 252 385 l 1137 385 q 1052 479 1005 595 l 1005 595 l 1059 595 q 1147 494 1209 445 q 1271 396 1335 366 z "},"↕":{"ha":694,"x_min":103,"x_max":591,"o":"m 332 992 l 332 992 l 362 992 q 392 928 441 866 q 490 804 591 716 l 591 716 l 591 662 q 475 709 380 794 l 380 794 l 380 -92 q 475 -6 591 40 l 591 40 l 591 -14 q 490 -102 441 -164 q 392 -226 362 -290 l 362 -290 l 332 -290 q 302 -226 253 -164 q 203 -102 103 -14 l 103 -14 l 103 40 q 219 -6 314 -92 l 314 -92 l 314 794 q 219 709 103 662 l 103 662 l 103 716 q 203 804 253 866 q 302 928 332 992 z "},"↨":{"ha":694,"x_min":103,"x_max":591,"o":"m 332 992 l 332 992 l 362 992 q 392 928 441 866 q 490 804 591 716 l 591 716 l 591 662 q 475 709 380 794 l 380 794 l 380 -92 q 475 -6 591 40 l 591 40 l 591 -14 q 490 -102 441 -164 q 392 -226 362 -290 l 362 -290 l 332 -290 q 302 -226 253 -164 q 203 -102 103 -14 l 103 -14 l 103 40 q 219 -6 314 -92 l 314 -92 l 314 794 q 219 709 103 662 l 103 662 l 103 716 q 203 804 253 866 q 302 928 332 992 z m 104 -420 l 104 -354 l 591 -354 l 591 -420 l 104 -420 z "},"∟":{"ha":1360,"x_min":245,"x_max":1114,"o":"m 245 0 l 245 867 l 313 867 l 313 68 l 1114 68 l 1114 0 l 245 0 z "},"∩":{"ha":1003,"x_min":97,"x_max":901,"o":"m 237 411 l 237 0 l 97 0 l 97 406 q 97 578 102 626 l 102 626 q 110 711 134 767 q 158 823 210 877 q 262 931 338 965 q 414 998 499 998 l 499 998 q 581 998 655 966 q 730 935 785 880 q 841 825 865 764 q 890 703 898 610 l 898 610 q 901 573 901 406 l 901 406 l 901 0 l 762 0 l 762 411 q 762 554 758 593 l 758 593 q 752 664 734 711 l 734 711 q 722 745 689 781 q 656 816 604 839 q 553 861 498 861 l 498 861 q 444 861 390 837 q 336 812 303 773 q 269 734 256 687 q 243 640 239 576 l 239 576 q 237 541 237 411 l 237 411 z "},"≡":{"ha":810,"x_min":58,"x_max":753,"o":"m 753 703 l 58 703 l 58 879 l 753 879 l 753 703 z m 753 403 l 58 403 l 58 578 l 753 578 l 753 403 z m 753 102 l 58 102 l 58 277 l 753 277 l 753 102 z "},"⌂":{"ha":839,"x_min":106,"x_max":732,"o":"m 732 0 l 106 0 l 106 430 l 419 782 l 732 430 l 732 0 z m 161 407 l 161 55 l 677 55 l 677 407 l 419 696 l 161 407 z "},"⌐":{"ha":811,"x_min":58,"x_max":753,"o":"m 233 554 l 233 255 l 58 255 l 58 728 l 753 728 l 753 554 l 233 554 z "},"⌠":{"ha":839,"x_min":370,"x_max":662,"o":"m 469 987 l 469 -349 l 370 -349 l 370 879 q 370 1027 431 1103 q 492 1178 568 1178 l 568 1178 q 614 1178 638 1156 q 662 1134 662 1104 l 662 1104 q 662 1077 645 1059 q 627 1042 602 1042 l 602 1042 q 582 1042 564 1052 l 564 1052 q 551 1059 535 1083 q 519 1108 504 1108 l 504 1108 q 492 1108 483 1100 l 483 1100 q 476 1095 473 1082 l 473 1082 q 469 1059 469 987 l 469 987 z "},"⌡":{"ha":839,"x_min":177,"x_max":469,"o":"m 370 -159 l 370 1178 l 469 1178 l 469 -50 q 469 -199 408 -274 q 347 -349 271 -349 l 271 -349 q 225 -349 201 -327 q 177 -305 177 -275 l 177 -275 q 177 -248 194 -231 q 212 -213 236 -213 l 236 -213 q 257 -213 276 -224 l 276 -224 q 288 -231 304 -255 q 319 -279 335 -279 l 335 -279 q 347 -279 356 -271 l 356 -271 q 363 -267 366 -252 l 366 -252 q 370 -231 370 -159 l 370 -159 z "},"─":{"ha":984,"x_min":-16,"x_max":999,"o":"m 999 481 l 999 362 l -16 362 l -16 481 l 999 481 z "},"│":{"ha":868,"x_min":310,"x_max":429,"o":"m 429 -421 l 310 -421 l 310 1264 l 429 1264 l 429 -421 z "},"┌":{"ha":984,"x_min":433,"x_max":1000,"o":"m 433 481 l 1000 481 l 1000 362 l 551 362 l 551 -421 l 433 -421 l 433 481 z "},"┐":{"ha":984,"x_min":-16,"x_max":551,"o":"m 432 -421 l 432 362 l -16 362 l -16 481 l 551 481 l 551 -421 l 432 -421 z "},"└":{"ha":984,"x_min":433,"x_max":1000,"o":"m 1000 362 l 433 362 l 433 1264 l 551 1264 l 551 481 l 1000 481 l 1000 362 z "},"┘":{"ha":984,"x_min":-16,"x_max":551,"o":"m 551 1264 l 551 362 l -16 362 l -16 481 l 432 481 l 432 1264 l 551 1264 z "},"├":{"ha":984,"x_min":433,"x_max":1000,"o":"m 551 -421 l 433 -421 l 433 1264 l 551 1264 l 551 481 l 1000 481 l 1000 362 l 551 362 l 551 -421 z "},"┤":{"ha":984,"x_min":-16,"x_max":551,"o":"m 551 -421 l 432 -421 l 432 362 l -16 362 l -16 481 l 432 481 l 432 1264 l 551 1264 l 551 -421 z "},"┬":{"ha":984,"x_min":-16,"x_max":999,"o":"m 432 -421 l 432 362 l -16 362 l -16 481 l 999 481 l 999 362 l 551 362 l 551 -421 l 432 -421 z "},"┴":{"ha":984,"x_min":-16,"x_max":999,"o":"m 999 481 l 999 362 l -16 362 l -16 481 l 432 481 l 432 1264 l 551 1264 l 551 481 l 999 481 z "},"┼":{"ha":984,"x_min":-16,"x_max":999,"o":"m 432 -421 l 432 362 l -16 362 l -16 481 l 432 481 l 432 1264 l 551 1264 l 551 481 l 999 481 l 999 362 l 551 362 l 551 -421 l 432 -421 z "},"═":{"ha":984,"x_min":-16,"x_max":999,"o":"m 999 610 l 999 491 l -16 491 l -16 610 l 999 610 z m 999 352 l 999 233 l -16 233 l -16 352 l 999 352 z "},"║":{"ha":984,"x_min":304,"x_max":680,"o":"m 680 -421 l 562 -421 l 562 1264 l 680 1264 l 680 -421 z m 422 -421 l 304 -421 l 304 1264 l 422 1264 l 422 -421 z "},"╒":{"ha":984,"x_min":433,"x_max":1000,"o":"m 551 -421 l 433 -421 l 433 610 l 1000 610 l 1000 491 l 551 491 l 551 352 l 1000 352 l 1000 233 l 551 233 l 551 -421 z "},"╓":{"ha":984,"x_min":304,"x_max":1000,"o":"m 422 -421 l 304 -421 l 304 481 l 1000 481 l 1000 362 l 680 362 l 680 -421 l 562 -421 l 562 352 l 422 352 l 422 -421 z "},"╔":{"ha":984,"x_min":304,"x_max":999,"o":"m 422 491 l 422 -421 l 304 -421 l 304 610 l 999 610 l 999 491 l 422 491 z m 999 233 l 680 233 l 680 -421 l 562 -421 l 562 352 l 999 352 l 999 233 z "},"╕":{"ha":984,"x_min":-16,"x_max":551,"o":"m 432 -421 l 432 233 l -16 233 l -16 352 l 432 352 l 432 491 l -16 491 l -16 610 l 551 610 l 551 -421 l 432 -421 z "},"╖":{"ha":984,"x_min":-16,"x_max":680,"o":"m 422 -421 l 303 -421 l 304 362 l -16 362 l -16 481 l 680 481 l 680 -421 l 561 -421 l 561 362 l 422 362 l 422 -421 z "},"╗":{"ha":984,"x_min":-16,"x_max":680,"o":"m 680 -421 l 561 -421 l 561 491 l -16 491 l -16 610 l 680 610 l 680 -421 z m 303 -421 l 303 233 l -16 233 l -16 352 l 422 352 l 422 -421 l 303 -421 z "},"╘":{"ha":984,"x_min":433,"x_max":1000,"o":"m 1000 233 l 433 233 l 433 1264 l 551 1264 l 551 610 l 1000 610 l 1000 491 l 551 491 l 551 352 l 1000 352 l 1000 233 z "},"╙":{"ha":984,"x_min":304,"x_max":1000,"o":"m 1000 481 l 1000 362 l 304 362 l 304 1264 l 422 1264 l 422 481 l 562 481 l 562 1264 l 680 1264 l 680 481 l 1000 481 z "},"╚":{"ha":984,"x_min":304,"x_max":999,"o":"m 304 1264 l 422 1264 l 422 352 l 999 352 l 999 233 l 304 233 l 304 1264 z m 680 1264 l 680 610 l 999 610 l 999 491 l 562 491 l 562 1264 l 680 1264 z "},"╛":{"ha":984,"x_min":-16,"x_max":551,"o":"m 551 1264 l 551 233 l -16 233 l -16 352 l 432 352 l 432 491 l -16 491 l -16 610 l 432 610 l 432 1264 l 551 1264 z "},"╜":{"ha":984,"x_min":-16,"x_max":680,"o":"m 680 1264 l 680 362 l -16 362 l -16 481 l 303 481 l 303 1264 l 422 1264 l 422 481 l 561 481 l 561 1264 l 680 1264 z "},"╝":{"ha":984,"x_min":-16,"x_max":680,"o":"m 561 352 l 561 1264 l 680 1264 l 680 233 l -16 233 l -16 352 l 561 352 z m -16 610 l 303 610 l 303 1264 l 422 1264 l 422 491 l -16 491 l -16 610 z "},"╞":{"ha":984,"x_min":433,"x_max":1000,"o":"m 551 -421 l 433 -421 l 433 1264 l 551 1264 l 551 610 l 1000 610 l 1000 491 l 551 491 l 551 352 l 1000 352 l 1000 233 l 551 233 l 551 -421 z "},"╟":{"ha":984,"x_min":304,"x_max":1000,"o":"m 680 -421 l 562 -421 l 562 1264 l 680 1264 l 680 481 l 1000 481 l 1000 362 l 680 362 l 680 -421 z m 422 -421 l 304 -421 l 304 1264 l 422 1264 l 422 -421 z "},"╠":{"ha":984,"x_min":304,"x_max":1000,"o":"m 422 -421 l 304 -421 l 304 1264 l 422 1264 l 422 -421 z m 1000 491 l 562 491 l 562 1264 l 680 1264 l 680 610 l 1000 610 l 1000 491 z m 680 -421 l 562 -421 l 562 352 l 1000 352 l 1000 233 l 680 233 l 680 -421 z "},"╡":{"ha":984,"x_min":-16,"x_max":551,"o":"m 432 -421 l 432 233 l -16 233 l -16 352 l 433 352 l 432 491 l -16 491 l -16 610 l 432 610 l 432 1264 l 551 1264 l 551 -421 l 432 -421 z "},"╢":{"ha":984,"x_min":-16,"x_max":680,"o":"m 422 -421 l 303 -421 l 304 362 l -16 362 l -16 481 l 303 481 l 303 1264 l 422 1264 l 422 -421 z m 680 -421 l 561 -421 l 561 1264 l 680 1264 l 680 -421 z "},"╣":{"ha":984,"x_min":-16,"x_max":680,"o":"m 680 -421 l 561 -421 l 561 1264 l 680 1264 l 680 -421 z m 303 1264 l 422 1264 l 422 491 l -16 491 l -16 610 l 303 610 l 303 1264 z m 303 -421 l 303 233 l -16 233 l -16 352 l 422 352 l 422 -421 l 303 -421 z "},"╤":{"ha":984,"x_min":-16,"x_max":999,"o":"m 999 610 l 999 491 l -16 491 l -16 610 l 999 610 z m 432 -421 l 432 233 l -16 233 l -16 352 l 999 352 l 999 233 l 551 233 l 551 -421 l 432 -421 z "},"╥":{"ha":984,"x_min":-16,"x_max":999,"o":"m 422 -421 l 303 -421 l 304 362 l -16 362 l -16 481 l 999 481 l 999 362 l 680 362 l 680 -421 l 561 -421 l 561 352 l 422 352 l 422 -421 z "},"╦":{"ha":984,"x_min":-16,"x_max":999,"o":"m 999 610 l 999 491 l -16 491 l -16 610 l 999 610 z m 303 -421 l 303 233 l -16 233 l -16 352 l 422 352 l 422 -421 l 303 -421 z m 680 -421 l 561 -421 l 561 352 l 999 352 l 999 233 l 680 233 l 680 -421 z "},"╧":{"ha":984,"x_min":-16,"x_max":999,"o":"m 999 610 l 999 491 l -16 491 l -16 610 l 432 610 l 432 1264 l 551 1264 l 551 610 l 999 610 z m 999 352 l 999 233 l -16 233 l -16 352 l 999 352 z "},"╨":{"ha":984,"x_min":-16,"x_max":999,"o":"m 999 481 l 999 362 l -16 362 l -16 481 l 303 481 l 303 1264 l 422 1264 l 422 481 l 561 481 l 561 1264 l 680 1264 l 680 481 l 999 481 z "},"╩":{"ha":984,"x_min":-16,"x_max":999,"o":"m 422 1264 l 422 491 l -16 491 l -16 610 l 303 610 l 303 1264 l 422 1264 z m 999 610 l 999 491 l 561 491 l 561 1264 l 680 1264 l 680 610 l 999 610 z m 999 352 l 999 233 l -16 233 l -16 352 l 999 352 z "},"╪":{"ha":984,"x_min":-16,"x_max":999,"o":"m 432 -421 l 432 233 l -16 233 l -16 352 l 432 352 l 432 491 l -16 491 l -16 610 l 432 610 l 432 1264 l 551 1264 l 551 610 l 999 610 l 999 491 l 551 491 l 551 352 l 999 352 l 999 233 l 551 233 l 551 -421 l 432 -421 z "},"╫":{"ha":984,"x_min":-16,"x_max":999,"o":"m 422 -421 l 303 -421 l 304 362 l -16 362 l -16 481 l 303 481 l 303 1264 l 422 1264 l 422 481 l 561 481 l 561 1264 l 680 1264 l 680 481 l 999 481 l 999 362 l 680 362 l 680 -421 l 561 -421 l 561 362 l 422 362 l 422 -421 z "},"╬":{"ha":984,"x_min":-16,"x_max":999,"o":"m 680 1264 l 680 610 l 999 610 l 999 491 l 562 491 l 562 1264 l 680 1264 z m -16 610 l 303 610 l 303 1264 l 422 1264 l 422 491 l -16 491 l -16 610 z m 303 -421 l 303 233 l -16 233 l -16 352 l 422 352 l 422 -421 l 303 -421 z m 999 233 l 680 233 l 680 -421 l 562 -421 l 562 352 l 999 352 l 999 233 z "},"▀":{"ha":984,"x_min":-16,"x_max":999,"o":"m 999 1264 l 999 421 l -16 421 l -16 1264 l 999 1264 z "},"▄":{"ha":984,"x_min":-16,"x_max":999,"o":"m 999 421 l 999 -421 l -16 -421 l -16 421 l 999 421 z "},"█":{"ha":984,"x_min":-16,"x_max":999,"o":"m 999 -421 l -16 -421 l -16 1264 l 999 1264 l 999 -421 z "},"▌":{"ha":984,"x_min":-16,"x_max":492,"o":"m 492 -421 l -16 -421 l -16 1264 l 492 1264 l 492 -421 z "},"▐":{"ha":984,"x_min":492,"x_max":1000,"o":"m 1000 -421 l 492 -421 l 492 1264 l 1000 1264 l 1000 -421 z "},"░":{"ha":984,"x_min":69,"x_max":999,"o":"m 69 1179 l 69 1264 l 154 1264 l 154 1179 l 69 1179 z m 407 1179 l 407 1264 l 492 1264 l 492 1179 l 407 1179 z m 745 1179 l 745 1264 l 830 1264 l 830 1179 l 745 1179 z m 238 1010 l 238 1095 l 323 1095 l 323 1010 l 238 1010 z m 576 1010 l 576 1095 l 661 1095 l 661 1010 l 576 1010 z m 914 1010 l 914 1095 l 999 1095 l 999 1010 l 914 1010 z m 745 842 l 745 926 l 830 926 l 830 842 l 745 842 z m 407 842 l 407 926 l 492 926 l 492 842 l 407 842 z m 69 842 l 69 926 l 154 926 l 154 842 l 69 842 z m 914 673 l 914 757 l 999 757 l 999 673 l 914 673 z m 576 673 l 576 757 l 661 757 l 661 673 l 576 673 z m 238 673 l 238 757 l 323 757 l 323 673 l 238 673 z m 69 503 l 69 588 l 154 588 l 154 503 l 69 503 z m 407 503 l 407 588 l 492 588 l 492 503 l 407 503 z m 745 503 l 745 588 l 830 588 l 830 503 l 745 503 z m 914 334 l 914 419 l 999 419 l 999 334 l 914 334 z m 576 334 l 576 419 l 661 419 l 661 334 l 576 334 z m 238 334 l 238 419 l 323 419 l 323 334 l 238 334 z m 69 165 l 69 250 l 154 250 l 154 165 l 69 165 z m 407 165 l 407 250 l 492 250 l 492 165 l 407 165 z m 745 165 l 745 250 l 830 250 l 830 165 l 745 165 z m 238 -3 l 238 81 l 323 81 l 323 -3 l 238 -3 z m 576 -3 l 576 81 l 661 81 l 661 -3 l 576 -3 z m 914 -3 l 914 81 l 999 81 l 999 -3 l 914 -3 z m 745 -173 l 745 -88 l 830 -88 l 830 -173 l 745 -173 z m 407 -173 l 407 -88 l 492 -88 l 492 -173 l 407 -173 z m 69 -173 l 69 -88 l 154 -88 l 154 -173 l 69 -173 z m 238 -342 l 238 -257 l 323 -257 l 323 -342 l 238 -342 z m 576 -342 l 576 -257 l 661 -257 l 661 -342 l 576 -342 z m 914 -342 l 914 -257 l 999 -257 l 999 -342 l 914 -342 z "},"▒":{"ha":984,"x_min":-15,"x_max":999,"o":"m 70 1179 l 70 1264 l 154 1264 l 154 1179 l 70 1179 z m 239 1179 l 239 1264 l 323 1264 l 323 1179 l 239 1179 z m 408 1179 l 408 1264 l 492 1264 l 492 1179 l 408 1179 z m 576 1179 l 576 1264 l 661 1264 l 661 1179 l 576 1179 z m 746 1179 l 746 1264 l 830 1264 l 830 1179 l 746 1179 z m 915 1179 l 915 1264 l 999 1264 l 999 1179 l 915 1179 z m -15 1010 l -15 1095 l 70 1095 l 70 1010 l -15 1010 z m 154 1010 l 154 1095 l 239 1095 l 239 1010 l 154 1010 z m 323 1010 l 323 1095 l 408 1095 l 408 1010 l 323 1010 z m 492 1010 l 492 1095 l 576 1095 l 576 1010 l 492 1010 z m 661 1010 l 661 1095 l 746 1095 l 746 1010 l 661 1010 z m 830 1010 l 830 1095 l 915 1095 l 915 1010 l 830 1010 z m 70 842 l 70 926 l 154 926 l 154 842 l 70 842 z m 239 842 l 239 926 l 323 926 l 323 842 l 239 842 z m 408 842 l 408 926 l 492 926 l 492 842 l 408 842 z m 576 842 l 576 926 l 661 926 l 661 842 l 576 842 z m 746 842 l 746 926 l 830 926 l 830 842 l 746 842 z m 915 842 l 915 926 l 999 926 l 999 842 l 915 842 z m 154 673 l 154 757 l 239 757 l 239 673 l 154 673 z m 323 673 l 323 757 l 408 757 l 408 673 l 323 673 z m 492 673 l 492 757 l 576 757 l 576 673 l 492 673 z m 661 673 l 661 757 l 746 757 l 746 673 l 661 673 z m 830 673 l 830 757 l 915 757 l 915 673 l 830 673 z m -15 673 l -15 757 l 70 757 l 70 673 l -15 673 z m 70 503 l 70 588 l 154 588 l 154 503 l 70 503 z m 239 503 l 239 588 l 323 588 l 323 503 l 239 503 z m 408 503 l 408 588 l 492 588 l 492 503 l 408 503 z m 576 503 l 576 588 l 661 588 l 661 503 l 576 503 z m 746 503 l 746 588 l 830 588 l 830 503 l 746 503 z m 915 503 l 915 588 l 999 588 l 999 503 l 915 503 z m -15 334 l -15 419 l 70 419 l 70 334 l -15 334 z m 323 334 l 323 419 l 408 419 l 408 334 l 323 334 z m 492 334 l 492 419 l 576 419 l 576 334 l 492 334 z m 661 334 l 661 419 l 746 419 l 746 334 l 661 334 z m 830 334 l 830 419 l 915 419 l 915 334 l 830 334 z m 154 334 l 154 419 l 239 419 l 239 334 l 154 334 z m 915 165 l 915 250 l 999 250 l 999 165 l 915 165 z m 746 165 l 746 250 l 830 250 l 830 165 l 746 165 z m 576 165 l 576 250 l 661 250 l 661 165 l 576 165 z m 408 165 l 408 250 l 492 250 l 492 165 l 408 165 z m 239 165 l 239 250 l 323 250 l 323 165 l 239 165 z m 70 165 l 70 250 l 154 250 l 154 165 l 70 165 z m -15 -3 l -15 81 l 70 81 l 70 -3 l -15 -3 z m 154 -3 l 154 81 l 239 81 l 239 -3 l 154 -3 z m 323 -3 l 323 81 l 408 81 l 408 -3 l 323 -3 z m 492 -3 l 492 81 l 576 81 l 576 -3 l 492 -3 z m 661 -3 l 661 81 l 746 81 l 746 -3 l 661 -3 z m 830 -3 l 830 81 l 915 81 l 915 -3 l 830 -3 z m 915 -173 l 915 -88 l 999 -88 l 999 -173 l 915 -173 z m 746 -173 l 746 -88 l 830 -88 l 830 -173 l 746 -173 z m 576 -173 l 576 -88 l 661 -88 l 661 -173 l 576 -173 z m 408 -173 l 408 -88 l 492 -88 l 492 -173 l 408 -173 z m 239 -173 l 239 -88 l 323 -88 l 323 -173 l 239 -173 z m 70 -173 l 70 -88 l 154 -88 l 154 -173 l 70 -173 z m -15 -342 l -15 -257 l 70 -257 l 70 -342 l -15 -342 z m 154 -342 l 154 -257 l 239 -257 l 239 -342 l 154 -342 z m 323 -342 l 323 -257 l 408 -257 l 408 -342 l 323 -342 z m 492 -342 l 492 -257 l 576 -257 l 576 -342 l 492 -342 z m 661 -342 l 661 -257 l 746 -257 l 746 -342 l 661 -342 z m 830 -342 l 830 -257 l 915 -257 l 915 -342 l 830 -342 z "},"▓":{"ha":1013,"x_min":-1,"x_max":1013,"o":"m 929 1010 l 1013 1010 l 1013 757 l 929 757 l 929 673 l 1013 673 l 1013 419 l 929 419 l 929 334 l 1013 334 l 1013 81 l 929 81 l 929 -3 l 1013 -3 l 1013 -257 l 929 -257 l 929 -342 l 1013 -342 l 1013 -426 l -1 -426 l -1 -173 l 84 -173 l 84 -88 l -1 -88 l -1 165 l 84 165 l 84 250 l -1 250 l -1 503 l 84 503 l 84 588 l -1 588 l -1 842 l 84 842 l 84 926 l -1 926 l -1 1179 l 84 1179 l 84 1264 l 168 1264 l 168 1179 l 253 1179 l 253 1264 l 337 1264 l 337 1179 l 422 1179 l 422 1264 l 507 1264 l 507 1179 l 591 1179 l 591 1264 l 675 1264 l 675 1179 l 760 1179 l 760 1264 l 844 1264 l 844 1179 l 929 1179 l 929 1264 l 1013 1264 l 1013 1095 l 929 1095 l 929 1010 z m 168 1095 l 84 1095 l 84 1010 l 168 1010 l 168 1095 z m 337 1095 l 253 1095 l 253 1010 l 337 1010 l 337 1095 z m 507 1095 l 422 1095 l 422 1010 l 507 1010 l 507 1095 z m 675 1095 l 591 1095 l 591 1010 l 675 1010 l 675 1095 z m 844 1095 l 760 1095 l 760 1010 l 844 1010 l 844 1095 z m 929 842 l 929 926 l 844 926 l 844 842 l 929 842 z m 760 842 l 760 926 l 675 926 l 675 842 l 760 842 z m 591 842 l 591 926 l 507 926 l 507 842 l 591 842 z m 422 842 l 422 926 l 337 926 l 337 842 l 422 842 z m 253 842 l 253 926 l 168 926 l 168 842 l 253 842 z m 168 757 l 84 757 l 84 673 l 168 673 l 168 757 z m 337 757 l 253 757 l 253 673 l 337 673 l 337 757 z m 507 757 l 422 757 l 422 673 l 507 673 l 507 757 z m 675 757 l 591 757 l 591 673 l 675 673 l 675 757 z m 844 757 l 760 757 l 760 673 l 844 673 l 844 757 z m 253 503 l 253 588 l 168 588 l 168 503 l 253 503 z m 422 588 l 337 588 l 337 503 l 422 503 l 422 588 z m 591 588 l 507 588 l 507 503 l 591 503 l 591 588 z m 760 588 l 675 588 l 675 503 l 760 503 l 760 588 z m 929 588 l 844 588 l 844 503 l 929 503 l 929 588 z m 168 419 l 84 419 l 84 334 l 168 334 l 168 419 z m 507 419 l 422 419 l 422 334 l 507 334 l 507 419 z m 253 334 l 337 334 l 337 419 l 253 419 l 253 334 z m 675 419 l 591 419 l 591 334 l 675 334 l 675 419 z m 844 419 l 760 419 l 760 334 l 844 334 l 844 419 z m 844 165 l 929 165 l 929 250 l 844 250 l 844 165 z m 675 165 l 760 165 l 760 250 l 675 250 l 675 165 z m 507 165 l 591 165 l 591 250 l 507 250 l 507 165 z m 337 165 l 422 165 l 422 250 l 337 250 l 337 165 z m 168 165 l 253 165 l 253 250 l 168 250 l 168 165 z m 168 81 l 84 81 l 84 -3 l 168 -3 l 168 81 z m 337 81 l 253 81 l 253 -3 l 337 -3 l 337 81 z m 507 81 l 422 81 l 422 -3 l 507 -3 l 507 81 z m 675 81 l 591 81 l 591 -3 l 675 -3 l 675 81 z m 844 81 l 760 81 l 760 -3 l 844 -3 l 844 81 z m 844 -173 l 929 -173 l 929 -88 l 844 -88 l 844 -173 z m 675 -173 l 760 -173 l 760 -88 l 675 -88 l 675 -173 z m 507 -173 l 591 -173 l 591 -88 l 507 -88 l 507 -173 z m 337 -173 l 422 -173 l 422 -88 l 337 -88 l 337 -173 z m 168 -173 l 253 -173 l 253 -88 l 168 -88 l 168 -173 z m 168 -257 l 84 -257 l 84 -342 l 168 -342 l 168 -257 z m 337 -257 l 253 -257 l 253 -342 l 337 -342 l 337 -257 z m 507 -257 l 422 -257 l 422 -342 l 507 -342 l 507 -257 z m 675 -257 l 591 -257 l 591 -342 l 675 -342 l 675 -257 z m 844 -257 l 760 -257 l 760 -342 l 844 -342 l 844 -257 z "},"■":{"ha":839,"x_min":99,"x_max":739,"o":"m 99 0 l 99 640 l 739 640 l 739 0 l 99 0 z "},"▬":{"ha":1389,"x_min":0,"x_max":1388,"o":"m 0 215 l 0 477 l 1388 477 l 1388 215 l 0 215 z "},"▲":{"ha":1375,"x_min":206,"x_max":1169,"o":"m 1169 0 l 206 0 l 688 962 l 1169 0 z "},"►":{"ha":1375,"x_min":195,"x_max":1179,"o":"m 195 -21 l 195 961 l 1179 470 l 195 -21 z "},"▼":{"ha":1375,"x_min":206,"x_max":1169,"o":"m 206 941 l 1169 941 l 688 -21 l 206 941 z "},"◄":{"ha":1375,"x_min":195,"x_max":1179,"o":"m 195 470 l 1179 961 l 1179 -21 l 195 470 z "},"○":{"ha":839,"x_min":121,"x_max":718,"o":"m 419 690 l 419 690 q 494 690 566 652 q 638 613 678 541 q 718 469 718 392 l 718 392 q 718 268 631 180 q 543 93 420 93 l 420 93 q 296 93 208 180 q 121 268 121 392 l 121 392 q 121 470 161 542 q 201 613 273 652 q 345 690 419 690 z m 420 639 l 420 639 q 357 639 298 607 q 239 575 205 515 q 172 456 172 392 l 172 392 q 172 290 245 217 q 317 144 420 144 l 420 144 q 522 144 594 217 q 667 290 667 392 l 667 392 q 667 456 633 515 q 600 575 541 607 q 482 639 420 639 z "},"◘":{"ha":839,"x_min":87,"x_max":751,"o":"m 751 0 l 87 0 l 87 665 l 751 665 l 751 0 z m 419 469 l 419 469 q 362 469 322 429 q 282 389 282 332 l 282 332 q 282 276 322 236 q 363 195 419 195 l 419 195 q 476 195 516 236 q 556 276 556 332 l 556 332 q 556 389 516 429 q 476 469 419 469 z "},"◙":{"ha":839,"x_min":28,"x_max":812,"o":"m 812 0 l 28 0 l 28 783 l 812 783 l 812 0 z m 420 690 l 420 690 q 345 690 273 652 q 201 613 161 541 q 121 469 121 391 l 121 391 q 121 268 209 180 q 296 93 420 93 l 420 93 q 544 93 631 180 q 719 268 719 391 l 719 391 q 719 469 679 541 q 639 613 567 652 q 496 690 420 690 z m 420 639 l 420 639 q 482 639 542 607 q 601 575 634 516 q 667 456 667 391 l 667 391 q 667 289 595 217 q 523 144 420 144 l 420 144 q 317 144 245 217 q 173 289 173 391 l 173 391 q 173 456 206 516 q 239 575 299 607 q 358 639 420 639 z "},"☺":{"ha":1418,"x_min":277,"x_max":1141,"o":"m 1141 351 l 1141 351 q 1141 172 1015 46 q 888 -81 709 -81 l 709 -81 q 530 -81 404 46 q 277 172 277 351 l 277 351 q 277 531 404 657 q 530 784 709 784 l 709 784 q 888 784 1015 657 q 1141 531 1141 351 z m 1079 351 l 1079 351 q 1079 505 971 613 q 863 721 709 721 l 709 721 q 556 721 448 613 q 340 505 340 351 l 340 351 q 340 199 448 91 q 556 -18 709 -18 l 709 -18 q 863 -18 971 91 q 1079 199 1079 351 z m 598 441 l 598 441 q 598 418 582 402 q 566 386 543 386 l 543 386 q 521 386 505 402 q 488 418 488 441 l 488 441 q 488 464 505 480 q 521 496 543 496 l 543 496 q 566 496 582 480 q 598 464 598 441 z m 930 441 l 930 441 q 930 418 914 402 q 898 386 875 386 l 875 386 q 852 386 836 402 q 820 418 820 441 l 820 441 q 820 464 836 480 q 852 496 875 496 l 875 496 q 898 496 914 480 q 930 464 930 441 z m 510 212 l 510 212 l 552 237 q 606 139 709 139 l 709 139 q 813 139 866 237 l 866 237 l 909 212 q 875 148 825 114 q 775 80 709 80 l 709 80 q 643 80 593 114 q 544 148 510 212 z "},"☻":{"ha":1461,"x_min":298,"x_max":1163,"o":"m 1163 351 l 1163 351 q 1163 172 1037 46 q 910 -81 731 -81 l 731 -81 q 552 -81 425 46 q 298 172 298 351 l 298 351 q 298 531 425 657 q 552 784 731 784 l 731 784 q 910 784 1037 657 q 1163 531 1163 351 z m 620 441 l 620 441 q 620 464 604 480 q 588 496 565 496 l 565 496 q 543 496 526 480 q 510 464 510 441 l 510 441 q 510 418 526 402 q 543 386 565 386 l 565 386 q 588 386 604 402 q 620 418 620 441 z m 951 441 l 951 441 q 951 464 936 480 q 920 496 897 496 l 897 496 q 874 496 858 480 q 842 464 842 441 l 842 441 q 842 418 858 402 q 874 386 897 386 l 897 386 q 920 386 936 402 q 951 418 951 441 z m 574 237 l 532 212 q 566 148 615 114 q 665 80 731 80 l 731 80 q 797 80 847 114 q 897 148 930 212 l 930 212 l 888 237 q 835 139 731 139 l 731 139 q 627 139 574 237 l 574 237 z "},"☼":{"ha":1273,"x_min":11,"x_max":1263,"o":"m 612 871 l 612 1099 l 663 1099 l 663 871 q 732 866 786 845 q 840 823 900 775 l 900 775 l 1097 968 l 1132 932 l 938 738 q 987 673 1008 623 l 1008 623 q 1034 558 1035 495 l 1035 495 l 1263 495 l 1263 448 l 1036 448 q 1023 320 939 213 l 939 213 l 1132 16 l 1093 -18 l 901 173 q 835 124 785 105 q 736 85 663 77 l 663 77 l 663 -151 l 612 -151 l 612 77 q 536 87 484 109 q 432 130 378 171 l 378 171 l 178 -18 l 144 17 l 337 211 q 292 268 269 323 q 246 379 239 451 l 239 451 l 11 451 l 11 498 l 239 498 q 245 570 267 624 q 290 677 336 734 l 336 734 l 144 929 l 176 968 l 374 777 q 443 824 496 845 q 549 865 612 871 l 612 871 z m 983 474 l 983 474 q 983 618 881 720 q 779 821 635 821 l 635 821 q 492 821 390 720 q 288 618 288 474 l 288 474 q 288 330 390 228 q 492 126 635 126 l 635 126 q 779 126 881 228 q 983 330 983 474 z "},"♀":{"ha":1042,"x_min":165,"x_max":876,"o":"m 540 313 l 540 313 l 540 40 l 851 40 l 851 0 l 540 0 l 540 -298 l 500 -298 l 500 0 l 188 0 l 188 40 l 500 40 l 500 313 q 430 313 347 357 q 264 401 215 487 q 165 572 165 667 l 165 667 q 165 759 213 844 q 260 928 344 975 q 428 1022 521 1022 l 521 1022 q 613 1022 697 975 q 782 928 829 843 q 876 759 876 667 l 876 667 q 876 525 778 422 q 681 319 540 313 z m 520 984 l 520 984 q 440 984 364 943 q 288 902 245 825 q 202 749 202 666 l 202 666 q 202 534 295 440 q 389 347 520 347 l 520 347 q 652 347 746 440 q 839 534 839 666 l 839 666 q 839 749 796 825 q 753 902 677 943 q 601 984 520 984 z "},"♂":{"ha":1042,"x_min":75,"x_max":960,"o":"m 408 893 l 825 1099 l 849 1088 l 960 636 l 921 626 l 825 1020 l 582 499 q 682 448 734 362 q 785 276 785 178 l 785 178 q 785 85 739 1 q 692 -83 607 -131 q 523 -178 430 -178 l 430 -178 q 338 -178 253 -131 q 169 -83 122 1 q 75 85 75 178 l 75 178 q 75 325 179 429 q 283 532 432 532 l 432 532 q 485 532 545 514 l 545 514 l 789 1037 l 425 857 l 408 893 z m 430 496 l 430 496 q 350 496 274 455 q 197 414 155 337 q 112 260 112 178 l 112 178 q 112 45 205 -48 q 298 -141 430 -141 l 430 -141 q 562 -141 655 -48 q 749 45 749 178 l 749 178 q 749 260 706 337 q 663 414 587 455 q 511 496 430 496 z "},"♠":{"ha":738,"x_min":39,"x_max":699,"o":"m 370 835 l 370 835 q 387 762 424 704 q 460 646 554 561 q 648 476 673 431 q 699 385 699 338 l 699 338 q 699 273 655 230 q 612 186 549 186 l 549 186 q 496 186 453 219 q 410 252 377 315 l 377 315 q 378 216 403 157 q 429 98 485 65 q 541 31 633 25 l 633 25 l 638 0 l 100 0 l 106 25 q 231 25 299 98 q 368 171 366 315 l 366 315 q 335 251 290 219 q 245 186 188 186 l 188 186 q 127 186 83 231 q 39 275 39 336 l 39 336 q 39 386 62 426 l 62 426 q 92 481 161 538 q 229 594 262 631 l 262 631 q 311 687 334 731 q 357 775 370 835 z "},"♣":{"ha":911,"x_min":37,"x_max":873,"o":"m 739 23 l 745 0 l 170 0 l 175 23 q 287 47 323 70 l 323 70 q 378 104 413 172 q 448 240 448 315 l 448 315 q 448 326 448 347 l 448 347 q 406 262 347 224 q 288 185 226 185 l 226 185 q 147 185 92 240 q 37 295 37 375 l 37 375 q 37 454 87 508 q 138 562 201 562 l 201 562 q 242 562 312 527 l 312 527 q 283 574 275 598 q 267 623 267 650 l 267 650 q 267 728 320 781 q 374 835 454 835 l 454 835 q 534 835 588 781 q 643 728 643 654 l 643 654 q 643 593 596 527 l 596 527 q 653 554 665 557 l 665 557 q 683 563 706 563 l 706 563 q 774 563 824 510 q 873 456 873 378 l 873 378 q 873 296 819 241 q 764 186 688 186 l 688 186 q 645 186 600 207 q 555 227 522 262 l 522 262 q 498 287 463 347 l 463 347 q 465 239 495 176 q 526 113 588 72 l 588 72 q 630 44 739 23 l 739 23 z "},"♥":{"ha":825,"x_min":43,"x_max":782,"o":"m 414 -16 l 414 -16 q 393 64 354 134 q 315 204 203 352 l 203 352 q 121 460 102 490 l 102 490 q 71 537 57 577 q 43 616 43 657 l 43 657 q 43 732 93 783 q 143 834 217 834 l 217 834 q 292 834 347 781 l 347 781 q 388 742 414 664 l 414 664 q 436 741 477 781 l 477 781 q 533 835 607 835 l 607 835 q 680 835 731 784 q 782 734 782 664 l 782 664 q 782 603 752 537 q 722 471 637 363 l 637 363 q 526 223 475 133 l 475 133 q 435 62 414 -16 z "},"♦":{"ha":709,"x_min":43,"x_max":666,"o":"m 353 835 l 353 835 q 414 732 502 615 l 502 615 q 604 479 666 410 l 666 410 q 616 357 502 205 l 502 205 q 410 81 354 -16 l 354 -16 q 336 19 304 66 l 304 66 q 249 147 168 255 l 168 255 q 150 279 43 410 l 43 410 q 112 488 220 632 l 220 632 q 300 739 353 835 z "},"♪":{"ha":694,"x_min":25,"x_max":669,"o":"m 330 263 l 330 924 l 355 924 q 472 924 509 915 l 509 915 q 563 901 604 863 l 604 863 q 634 834 652 782 q 669 730 669 661 l 669 661 l 669 591 l 602 591 l 602 621 q 602 667 583 699 q 564 731 526 748 l 526 748 q 476 770 416 770 l 416 770 l 397 770 l 397 203 q 397 121 375 76 q 353 30 300 2 q 248 -25 185 -25 l 185 -25 q 111 -25 68 17 q 25 58 25 126 l 25 126 q 25 197 77 246 q 128 294 212 294 l 212 294 q 264 294 330 263 l 330 263 z "},"♫":{"ha":1042,"x_min":58,"x_max":902,"o":"m 362 201 l 362 862 l 902 1030 l 902 279 q 902 195 881 152 q 859 109 808 81 q 757 54 692 54 l 692 54 q 618 54 574 96 q 530 138 530 205 l 530 205 q 530 273 583 322 q 635 372 718 372 l 718 372 q 745 372 765 367 q 786 362 833 342 l 833 342 l 833 833 l 429 708 l 429 141 q 429 59 408 13 q 386 -33 333 -60 q 280 -87 218 -87 l 218 -87 q 144 -87 101 -45 q 58 -3 58 64 l 58 64 q 58 135 109 183 q 161 232 244 232 l 244 232 q 297 232 362 201 l 362 201 z "},"Ĳ":{"ha":1090,"x_min":95,"x_max":983,"o":"m 296 0 l 95 0 l 95 994 l 296 994 l 296 0 z m 783 352 l 783 994 l 983 994 l 983 365 q 983 241 962 175 l 962 175 q 932 88 856 36 q 779 -17 654 -17 l 654 -17 q 507 -17 427 65 q 348 148 347 307 l 347 307 l 536 329 q 540 243 562 208 l 562 208 q 594 155 661 155 l 661 155 q 728 155 755 193 q 783 231 783 352 l 783 352 z "},"ĳ":{"ha":772,"x_min":100,"x_max":663,"o":"m 290 818 l 100 818 l 100 994 l 290 994 l 290 818 z m 290 0 l 100 0 l 100 720 l 290 720 l 290 0 z m 663 818 l 473 818 l 473 994 l 663 994 l 663 818 z m 473 720 l 663 720 l 663 22 q 663 -115 645 -172 q 627 -229 576 -260 q 525 -292 446 -292 l 446 -292 q 417 -292 384 -287 q 351 -282 313 -272 l 313 -272 l 347 -109 q 360 -112 372 -114 q 384 -115 394 -115 l 394 -115 q 423 -115 442 -103 q 460 -90 467 -73 q 473 -55 473 33 l 473 33 l 473 720 z "},"ŉ":{"ha":984,"x_min":-39,"x_max":882,"o":"m -23 804 l -23 994 l 168 994 l 168 858 q 168 775 153 727 q 139 680 99 642 q 60 604 -1 582 l -1 582 l -39 661 q 19 680 43 713 q 68 746 69 804 l 69 804 l -23 804 z m 882 448 l 882 0 l 692 0 l 692 368 q 692 484 680 518 q 667 553 640 572 q 612 591 574 591 l 574 591 q 524 591 485 564 q 446 536 431 492 q 416 447 416 326 l 416 326 l 416 0 l 226 0 l 226 720 l 403 720 l 403 614 q 497 736 640 736 l 640 736 q 703 736 755 714 q 808 691 834 656 q 861 621 872 576 q 882 531 882 448 l 882 448 z "},"′":{"ha":333,"x_min":96,"x_max":342,"o":"m 236 641 l 96 641 l 99 826 l 135 994 l 342 994 l 307 826 l 236 641 z "},"″":{"ha":665,"x_min":96,"x_max":648,"o":"m 236 641 l 96 641 l 99 826 l 135 994 l 342 994 l 307 826 l 236 641 z m 542 641 l 401 641 l 405 826 l 441 994 l 648 994 l 612 826 l 542 641 z "},"℅":{"ha":1230,"x_min":24,"x_max":1206,"o":"m 491 852 l 491 852 l 360 828 q 353 867 330 887 q 307 907 269 907 l 269 907 q 220 907 190 872 q 160 838 160 758 l 160 758 q 160 669 190 632 q 220 595 272 595 l 272 595 q 309 595 333 616 q 357 637 367 690 l 367 690 l 498 668 q 477 578 420 532 q 362 486 266 486 l 266 486 q 155 486 89 556 q 24 625 24 749 l 24 749 q 24 873 90 942 q 155 1011 269 1011 l 269 1011 q 359 1011 413 971 q 468 932 491 852 z m 920 1011 l 395 -38 l 254 -38 l 784 1011 l 920 1011 z m 688 258 l 688 258 q 688 369 760 441 q 832 513 947 513 l 947 513 q 1060 513 1133 439 q 1206 366 1206 252 l 1206 252 q 1206 138 1132 63 q 1059 -12 946 -12 l 946 -12 q 830 -12 759 60 q 688 132 688 258 z m 824 251 l 824 251 q 824 176 859 137 q 895 97 947 97 l 947 97 q 999 97 1034 137 q 1069 176 1069 252 l 1069 252 q 1069 326 1034 366 q 999 405 947 405 l 947 405 q 895 405 859 366 q 824 326 824 251 z "},"ℓ":{"ha":679,"x_min":16,"x_max":629,"o":"m 46 252 l 46 252 l 16 426 l 117 475 q 119 698 144 795 q 170 892 243 951 q 316 1011 406 1011 l 406 1011 q 503 1011 566 946 q 629 881 629 776 l 629 776 q 629 709 603 655 l 603 655 q 567 582 506 526 q 445 470 308 381 l 308 381 q 307 368 307 361 l 307 361 q 307 218 339 175 q 372 131 427 131 l 427 131 q 463 131 501 147 q 539 163 608 214 l 608 214 l 608 51 q 549 12 505 -2 q 462 -16 409 -16 l 409 -16 q 273 -16 200 73 l 200 73 q 144 140 123 287 l 123 287 q 85 268 46 252 z m 308 583 l 308 583 q 406 654 441 703 l 441 703 q 467 741 467 783 l 467 783 q 467 816 449 836 q 431 856 404 856 l 404 856 q 373 856 351 831 l 351 831 q 321 797 315 745 l 315 745 q 311 715 308 583 z "},"□":{"ha":839,"x_min":99,"x_max":739,"o":"m 99 0 l 99 640 l 739 640 l 739 0 l 99 0 z m 688 589 l 151 589 l 151 52 l 688 52 l 688 589 z "},"▪":{"ha":492,"x_min":62,"x_max":431,"o":"m 62 643 l 431 643 l 431 275 l 62 275 l 62 643 z "},"▫":{"ha":492,"x_min":62,"x_max":431,"o":"m 62 643 l 431 643 l 431 275 l 62 275 l 62 643 z m 379 326 l 379 591 l 114 591 l 114 326 l 379 326 z "},"●":{"ha":839,"x_min":121,"x_max":718,"o":"m 420 690 l 420 690 q 494 690 566 652 q 638 613 678 541 q 718 469 718 392 l 718 392 q 718 268 631 180 q 543 93 420 93 l 420 93 q 296 93 208 180 q 121 268 121 392 l 121 392 q 121 470 161 542 q 201 613 273 652 q 345 690 420 690 z "},"◦":{"ha":492,"x_min":52,"x_max":439,"o":"m 246 652 l 246 652 q 327 652 383 596 q 439 539 439 458 l 439 458 q 439 378 383 321 q 326 264 246 264 l 246 264 q 165 264 109 321 q 52 378 52 458 l 52 458 q 52 539 109 596 q 165 652 246 652 z m 246 601 l 246 601 q 186 601 145 559 q 104 517 104 458 l 104 458 q 104 399 145 358 q 187 316 246 316 l 246 316 q 305 316 347 358 q 389 399 389 458 l 389 458 q 389 517 347 559 q 305 601 246 601 z "},"Ā":{"ha":1003,"x_min":0,"x_max":998,"o":"m 600 994 l 998 0 l 779 0 l 692 226 l 295 226 l 213 0 l 0 0 l 387 994 l 600 994 z m 357 393 l 628 393 l 491 762 l 357 393 z m 711 1084 l 275 1084 l 275 1209 l 711 1209 l 711 1084 z "},"ā":{"ha":772,"x_min":50,"x_max":726,"o":"m 242 500 l 242 500 l 69 532 q 98 636 170 686 q 241 736 381 736 l 381 736 q 509 736 571 706 q 633 676 659 630 q 684 583 684 459 l 684 459 l 682 237 q 682 142 691 97 q 701 52 726 0 l 726 0 l 537 0 q 530 19 519 56 l 519 56 q 514 73 512 79 l 512 79 q 463 31 408 7 q 352 -16 289 -16 l 289 -16 q 178 -16 114 44 q 50 104 50 197 l 50 197 q 50 258 79 306 q 108 353 160 379 q 213 404 312 423 l 312 423 q 446 448 497 470 l 497 470 l 497 489 q 497 544 470 567 q 443 591 368 591 l 368 591 q 317 591 288 571 q 260 551 242 500 z m 497 308 l 497 346 q 460 334 381 317 q 302 300 277 283 l 277 283 q 240 257 240 216 l 240 216 q 240 176 270 147 q 300 118 346 118 l 346 118 q 397 118 444 152 l 444 152 q 479 178 490 215 l 490 215 q 497 239 497 308 l 497 308 z m 604 839 l 168 839 l 168 964 l 604 964 l 604 839 z "},"Ĉ":{"ha":1003,"x_min":66,"x_max":932,"o":"m 737 366 l 737 366 l 932 304 q 887 141 783 62 q 679 -17 519 -17 l 519 -17 q 321 -17 193 118 q 66 254 66 488 l 66 488 q 66 736 194 874 q 322 1011 531 1011 l 531 1011 q 713 1011 827 903 l 827 903 q 895 840 929 720 l 929 720 l 730 673 q 713 750 657 795 q 601 840 521 840 l 521 840 q 410 840 341 760 q 273 681 273 503 l 273 503 q 273 315 340 235 q 408 155 517 155 l 517 155 q 597 155 654 205 q 712 256 737 366 z m 446 1084 l 292 1084 l 434 1284 l 610 1284 l 751 1084 l 597 1084 l 519 1185 l 446 1084 z "},"ĉ":{"ha":772,"x_min":58,"x_max":737,"o":"m 728 507 l 728 507 l 540 473 q 530 530 497 558 q 463 587 410 587 l 410 587 q 338 587 296 537 q 254 488 254 373 l 254 373 q 254 245 297 192 q 340 139 412 139 l 412 139 q 467 139 501 170 q 536 201 550 276 l 550 276 l 737 244 q 708 115 625 50 q 543 -16 404 -16 l 404 -16 q 245 -16 152 83 q 58 183 58 359 l 58 359 q 58 538 152 637 q 246 736 407 736 l 407 736 q 538 736 616 680 q 694 623 728 507 z m 311 811 l 157 811 l 299 1011 l 475 1011 l 616 811 l 463 811 l 384 912 l 311 811 z "},"Ċ":{"ha":1003,"x_min":66,"x_max":932,"o":"m 737 366 l 737 366 l 932 304 q 887 141 783 62 q 679 -17 519 -17 l 519 -17 q 321 -17 193 118 q 66 254 66 488 l 66 488 q 66 736 194 874 q 322 1011 531 1011 l 531 1011 q 713 1011 827 903 l 827 903 q 895 840 929 720 l 929 720 l 730 673 q 713 750 657 795 q 601 840 521 840 l 521 840 q 410 840 341 760 q 273 681 273 503 l 273 503 q 273 315 340 235 q 408 155 517 155 l 517 155 q 597 155 654 205 q 712 256 737 366 z m 613 1084 l 426 1084 l 426 1264 l 613 1264 l 613 1084 z "},"ċ":{"ha":772,"x_min":58,"x_max":737,"o":"m 728 507 l 728 507 l 540 473 q 530 530 497 558 q 463 587 410 587 l 410 587 q 338 587 296 537 q 254 488 254 373 l 254 373 q 254 245 297 192 q 340 139 412 139 l 412 139 q 467 139 501 170 q 536 201 550 276 l 550 276 l 737 244 q 708 115 625 50 q 543 -16 404 -16 l 404 -16 q 245 -16 152 83 q 58 183 58 359 l 58 359 q 58 538 152 637 q 246 736 407 736 l 407 736 q 538 736 616 680 q 694 623 728 507 z m 481 831 l 294 831 l 294 1011 l 481 1011 l 481 831 z "},"Ē":{"ha":926,"x_min":101,"x_max":857,"o":"m 857 0 l 101 0 l 101 994 l 838 994 l 838 826 l 302 826 l 302 606 l 801 606 l 801 438 l 302 438 l 302 168 l 857 168 l 857 0 z m 682 1084 l 245 1084 l 245 1209 l 682 1209 l 682 1084 z "},"ē":{"ha":772,"x_min":44,"x_max":721,"o":"m 517 229 l 517 229 l 707 197 q 670 93 591 38 q 512 -16 393 -16 l 393 -16 q 205 -16 115 106 l 115 106 q 44 205 44 355 l 44 355 q 44 534 138 635 q 231 736 374 736 l 374 736 q 535 736 628 630 q 721 524 717 305 l 717 305 l 239 305 q 241 220 286 173 q 330 126 395 126 l 395 126 q 440 126 471 151 q 501 175 517 229 z m 243 422 l 528 422 q 526 505 485 548 q 444 591 386 591 l 386 591 q 323 591 283 545 l 283 545 q 242 500 243 422 l 243 422 z m 603 839 l 166 839 l 166 964 l 603 964 l 603 839 z "},"Ĕ":{"ha":926,"x_min":101,"x_max":857,"o":"m 857 0 l 101 0 l 101 994 l 838 994 l 838 826 l 302 826 l 302 606 l 801 606 l 801 438 l 302 438 l 302 168 l 857 168 l 857 0 z m 580 1275 l 580 1275 l 673 1275 q 665 1183 608 1130 q 551 1078 461 1078 l 461 1078 q 371 1078 314 1130 q 258 1183 250 1275 l 250 1275 l 342 1275 q 347 1227 376 1202 q 406 1177 461 1177 l 461 1177 q 517 1177 546 1202 q 575 1227 580 1275 z "},"ĕ":{"ha":772,"x_min":44,"x_max":721,"o":"m 517 229 l 517 229 l 707 197 q 670 93 591 38 q 512 -16 393 -16 l 393 -16 q 205 -16 115 106 l 115 106 q 44 205 44 355 l 44 355 q 44 534 138 635 q 231 736 374 736 l 374 736 q 535 736 628 630 q 721 524 717 305 l 717 305 l 239 305 q 241 220 286 173 q 330 126 395 126 l 395 126 q 440 126 471 151 q 501 175 517 229 z m 243 422 l 528 422 q 526 505 485 548 q 444 591 386 591 l 386 591 q 323 591 283 545 l 283 545 q 242 500 243 422 l 243 422 z m 494 1011 l 494 1011 l 587 1011 q 579 919 523 866 q 466 814 376 814 l 376 814 q 286 814 229 866 q 172 919 164 1011 l 164 1011 l 257 1011 q 262 963 291 938 q 320 913 376 913 l 376 913 q 431 913 460 938 q 490 963 494 1011 z "},"Ė":{"ha":926,"x_min":101,"x_max":857,"o":"m 857 0 l 101 0 l 101 994 l 838 994 l 838 826 l 302 826 l 302 606 l 801 606 l 801 438 l 302 438 l 302 168 l 857 168 l 857 0 z m 558 1084 l 371 1084 l 371 1264 l 558 1264 l 558 1084 z "},"ė":{"ha":772,"x_min":44,"x_max":721,"o":"m 517 229 l 517 229 l 707 197 q 670 93 591 38 q 512 -16 393 -16 l 393 -16 q 205 -16 115 106 l 115 106 q 44 205 44 355 l 44 355 q 44 534 138 635 q 231 736 374 736 l 374 736 q 535 736 628 630 q 721 524 717 305 l 717 305 l 239 305 q 241 220 286 173 q 330 126 395 126 l 395 126 q 440 126 471 151 q 501 175 517 229 z m 243 422 l 528 422 q 526 505 485 548 q 444 591 386 591 l 386 591 q 323 591 283 545 l 283 545 q 242 500 243 422 l 243 422 z m 479 831 l 292 831 l 292 1011 l 479 1011 l 479 831 z "},"Ĝ":{"ha":1080,"x_min":66,"x_max":996,"o":"m 793 366 l 564 366 l 564 533 l 996 533 l 996 137 q 933 76 813 30 q 694 -17 571 -17 l 571 -17 q 415 -17 299 48 q 183 114 125 236 q 66 357 66 500 l 66 500 q 66 656 132 777 q 197 897 322 962 l 322 962 q 418 1011 560 1011 l 560 1011 q 745 1011 849 933 q 954 856 983 719 l 983 719 l 784 682 q 763 755 705 797 q 647 840 560 840 l 560 840 q 429 840 351 756 q 273 673 273 509 l 273 509 q 273 332 352 243 q 431 155 558 155 l 558 155 q 621 155 685 179 q 748 204 793 239 l 793 239 l 793 366 z m 479 1084 l 326 1084 l 468 1284 l 644 1284 l 785 1084 l 631 1084 l 553 1185 l 479 1084 z "},"ĝ":{"ha":848,"x_min":57,"x_max":760,"o":"m 82 -47 l 82 -47 l 300 -74 q 305 -112 325 -126 l 325 -126 q 352 -146 410 -146 l 410 -146 q 485 -146 522 -124 l 522 -124 q 547 -109 560 -76 l 560 -76 q 569 -52 569 12 l 569 12 l 569 117 q 484 0 353 0 l 353 0 q 208 0 123 123 l 123 123 q 57 220 57 364 l 57 364 q 57 545 144 641 q 231 736 361 736 l 361 736 q 494 736 581 619 l 581 619 l 581 720 l 760 720 l 760 74 q 760 -54 739 -117 q 718 -180 680 -216 q 642 -252 578 -272 q 515 -292 418 -292 l 418 -292 q 235 -292 158 -230 q 81 -167 81 -71 l 81 -71 q 81 -61 82 -47 z m 252 375 l 252 375 q 252 260 297 207 q 341 154 406 154 l 406 154 q 476 154 524 209 q 572 263 572 370 l 572 370 q 572 482 526 536 q 480 591 410 591 l 410 591 q 341 591 297 537 q 252 484 252 375 z m 349 811 l 195 811 l 338 1011 l 514 1011 l 654 811 l 501 811 l 422 912 l 349 811 z "},"Ġ":{"ha":1080,"x_min":66,"x_max":996,"o":"m 793 366 l 564 366 l 564 533 l 996 533 l 996 137 q 933 76 813 30 q 694 -17 571 -17 l 571 -17 q 415 -17 299 48 q 183 114 125 236 q 66 357 66 500 l 66 500 q 66 656 132 777 q 197 897 322 962 l 322 962 q 418 1011 560 1011 l 560 1011 q 745 1011 849 933 q 954 856 983 719 l 983 719 l 784 682 q 763 755 705 797 q 647 840 560 840 l 560 840 q 429 840 351 756 q 273 673 273 509 l 273 509 q 273 332 352 243 q 431 155 558 155 l 558 155 q 621 155 685 179 q 748 204 793 239 l 793 239 l 793 366 z m 650 1084 l 463 1084 l 463 1264 l 650 1264 l 650 1084 z "},"ġ":{"ha":848,"x_min":57,"x_max":760,"o":"m 82 -47 l 82 -47 l 300 -74 q 305 -112 325 -126 l 325 -126 q 352 -146 410 -146 l 410 -146 q 485 -146 522 -124 l 522 -124 q 547 -109 560 -76 l 560 -76 q 569 -52 569 12 l 569 12 l 569 117 q 484 0 353 0 l 353 0 q 208 0 123 123 l 123 123 q 57 220 57 364 l 57 364 q 57 545 144 641 q 231 736 361 736 l 361 736 q 494 736 581 619 l 581 619 l 581 720 l 760 720 l 760 74 q 760 -54 739 -117 q 718 -180 680 -216 q 642 -252 578 -272 q 515 -292 418 -292 l 418 -292 q 235 -292 158 -230 q 81 -167 81 -71 l 81 -71 q 81 -61 82 -47 z m 252 375 l 252 375 q 252 260 297 207 q 341 154 406 154 l 406 154 q 476 154 524 209 q 572 263 572 370 l 572 370 q 572 482 526 536 q 480 591 410 591 l 410 591 q 341 591 297 537 q 252 484 252 375 z m 519 831 l 332 831 l 332 1011 l 519 1011 l 519 831 z "},"Ģ":{"ha":1080,"x_min":66,"x_max":996,"o":"m 793 366 l 564 366 l 564 533 l 996 533 l 996 137 q 933 76 813 30 q 694 -17 571 -17 l 571 -17 q 415 -17 299 48 q 183 114 125 236 q 66 357 66 500 l 66 500 q 66 656 132 777 q 197 897 322 962 l 322 962 q 418 1011 560 1011 l 560 1011 q 745 1011 849 933 q 954 856 983 719 l 983 719 l 784 682 q 763 755 705 797 q 647 840 560 840 l 560 840 q 429 840 351 756 q 273 673 273 509 l 273 509 q 273 332 352 243 q 431 155 558 155 l 558 155 q 621 155 685 179 q 748 204 793 239 l 793 239 l 793 366 z m 462 -201 l 462 -77 l 664 -77 l 664 -138 q 664 -217 650 -258 q 635 -300 595 -332 q 555 -365 485 -384 l 485 -384 l 460 -294 q 551 -269 551 -201 l 551 -201 l 462 -201 z "},"ģ":{"ha":848,"x_min":57,"x_max":760,"o":"m 488 930 l 488 806 l 286 806 l 286 867 q 286 946 300 988 q 314 1029 355 1062 q 395 1094 465 1113 l 465 1113 l 490 1023 q 440 1009 421 990 q 402 970 398 930 l 398 930 l 488 930 z m 82 -47 l 82 -47 l 300 -74 q 304 -146 414 -146 l 414 -146 q 481 -146 514 -129 q 547 -111 558 -81 q 569 -52 569 12 l 569 12 l 569 117 q 484 0 351 0 l 351 0 q 263 0 193 52 q 122 103 90 188 q 57 273 57 366 l 57 366 q 57 543 143 640 q 229 736 361 736 l 361 736 q 494 736 581 619 l 581 619 l 581 720 l 760 720 l 760 74 q 760 -66 730 -141 q 700 -216 623 -254 q 546 -292 420 -292 l 420 -292 q 245 -292 163 -234 q 81 -175 81 -71 l 81 -71 q 81 -61 82 -47 z m 252 371 l 252 371 q 252 273 292 214 q 331 154 408 154 l 408 154 q 474 154 523 208 q 572 262 572 373 l 572 373 q 572 469 531 530 q 490 591 408 591 l 408 591 q 332 591 292 530 q 252 470 252 371 z "},"Ĥ":{"ha":1003,"x_min":102,"x_max":897,"o":"m 302 0 l 102 0 l 102 994 l 302 994 l 302 603 l 696 603 l 696 994 l 897 994 l 897 0 l 696 0 l 696 435 l 302 435 l 302 0 z m 426 1084 l 272 1084 l 414 1284 l 591 1284 l 731 1084 l 578 1084 l 499 1185 l 426 1084 z "},"ĥ":{"ha":848,"x_min":99,"x_max":755,"o":"m 99 994 l 290 994 l 290 629 q 382 736 510 736 l 510 736 q 576 736 629 712 q 682 688 708 650 q 735 612 745 566 q 755 519 755 422 l 755 422 l 755 0 l 564 0 l 564 380 q 564 494 553 524 q 543 555 515 573 q 488 591 446 591 l 446 591 q 399 591 361 568 q 324 545 307 498 q 290 452 290 361 l 290 361 l 290 0 l 99 0 l 99 994 z m 349 1051 l 195 1051 l 338 1251 l 514 1251 l 654 1051 l 501 1051 l 422 1152 l 349 1051 z "},"Ħ":{"ha":1003,"x_min":3,"x_max":994,"o":"m 102 0 l 102 735 l 3 735 l 3 861 l 102 861 l 102 994 l 302 994 l 302 861 l 696 861 l 696 994 l 896 994 l 896 861 l 994 861 l 994 735 l 896 735 l 896 0 l 696 0 l 696 435 l 302 435 l 302 0 l 102 0 z m 696 735 l 302 735 l 302 603 l 696 603 l 696 735 z "},"ħ":{"ha":848,"x_min":17,"x_max":755,"o":"m 290 994 l 290 924 l 488 924 l 488 797 l 290 797 l 290 629 q 381 736 513 736 l 513 736 q 597 736 656 698 q 714 660 735 601 q 755 542 755 422 l 755 422 l 755 0 l 564 0 l 564 380 q 564 478 556 513 q 549 549 520 570 q 492 591 446 591 l 446 591 q 370 591 330 541 q 290 490 290 361 l 290 361 l 290 0 l 99 0 l 99 797 l 17 797 l 17 924 l 99 924 l 99 994 l 290 994 z "},"Ĩ":{"ha":386,"x_min":-47,"x_max":422,"o":"m 296 0 l 95 0 l 95 994 l 296 994 l 296 0 z m 40 1082 l 40 1082 l -47 1082 q -47 1098 -47 1107 l -47 1107 q -47 1178 -13 1216 q 22 1255 76 1255 l 76 1255 q 100 1255 120 1250 q 140 1244 194 1220 q 248 1196 279 1196 l 279 1196 q 300 1196 315 1210 q 330 1223 334 1255 l 334 1255 l 422 1255 q 421 1164 388 1124 q 354 1085 301 1085 l 301 1085 q 278 1085 256 1090 l 256 1090 q 240 1094 178 1118 q 115 1141 87 1141 l 87 1141 q 65 1141 53 1128 q 41 1115 40 1082 z "},"ĩ":{"ha":386,"x_min":-47,"x_max":422,"o":"m 290 0 l 100 0 l 100 720 l 290 720 l 290 0 z m 41 817 l 41 817 l -46 817 q -47 833 -47 842 l -47 842 q -47 913 -12 951 q 22 989 77 989 l 77 989 q 100 989 121 984 q 141 979 195 955 q 249 931 279 931 l 279 931 q 301 931 316 945 q 330 958 334 990 l 334 990 l 422 990 q 422 899 388 859 q 355 820 302 820 l 302 820 q 279 820 256 825 l 256 825 q 241 829 178 852 q 116 876 87 876 l 87 876 q 66 876 54 863 q 41 850 41 817 z "},"Ī":{"ha":386,"x_min":-26,"x_max":411,"o":"m 296 0 l 95 0 l 95 994 l 296 994 l 296 0 z m 411 1084 l -26 1084 l -26 1209 l 411 1209 l 411 1084 z "},"ī":{"ha":386,"x_min":-26,"x_max":411,"o":"m 290 0 l 100 0 l 100 720 l 290 720 l 290 0 z m 411 839 l -26 839 l -26 964 l 411 964 l 411 839 z "},"Ĭ":{"ha":386,"x_min":-21,"x_max":402,"o":"m 296 0 l 95 0 l 95 994 l 296 994 l 296 0 z m 309 1275 l 309 1275 l 402 1275 q 394 1183 337 1130 q 281 1078 191 1078 l 191 1078 q 100 1078 44 1130 q -13 1183 -21 1275 l -21 1275 l 72 1275 q 77 1227 106 1202 q 135 1177 191 1177 l 191 1177 q 246 1177 275 1202 q 304 1227 309 1275 z "},"ĭ":{"ha":386,"x_min":-20,"x_max":403,"o":"m 290 0 l 100 0 l 100 720 l 290 720 l 290 0 z m 310 1011 l 310 1011 l 403 1011 q 395 919 338 866 q 281 814 191 814 l 191 814 q 101 814 44 866 q -12 919 -20 1011 l -20 1011 l 73 1011 q 77 963 106 938 q 136 913 191 913 l 191 913 q 247 913 276 938 q 305 963 310 1011 z "},"Į":{"ha":386,"x_min":49,"x_max":300,"o":"m 296 0 l 95 0 l 95 994 l 296 994 l 296 0 z m 136 0 l 250 0 q 237 -9 226 -22 q 216 -35 208 -49 q 201 -63 197 -78 q 193 -92 193 -106 l 193 -106 q 193 -128 204 -143 q 216 -159 244 -159 l 244 -159 q 256 -159 272 -154 q 287 -150 300 -146 l 300 -146 l 300 -259 q 243 -286 198 -286 l 198 -286 q 160 -286 132 -276 q 104 -266 86 -248 q 67 -231 58 -207 q 49 -184 49 -157 l 49 -157 q 49 -118 73 -75 q 96 -33 136 0 l 136 0 z "},"į":{"ha":386,"x_min":48,"x_max":300,"o":"m 290 818 l 100 818 l 100 994 l 290 994 l 290 818 z m 290 0 l 100 0 l 100 720 l 290 720 l 290 0 z m 136 0 l 249 0 q 236 -9 225 -22 q 215 -35 208 -49 q 200 -63 196 -78 q 192 -92 192 -106 l 192 -106 q 192 -128 204 -143 q 216 -159 243 -159 l 243 -159 q 256 -159 271 -154 q 286 -150 300 -146 l 300 -146 l 300 -259 q 243 -286 197 -286 l 197 -286 q 159 -286 132 -276 q 104 -266 85 -248 q 66 -231 57 -207 q 48 -184 48 -157 l 48 -157 q 48 -118 72 -75 q 96 -33 136 0 l 136 0 z "},"Ĵ":{"ha":772,"x_min":24,"x_max":789,"o":"m 460 352 l 460 994 l 660 994 l 660 365 q 660 241 638 175 l 638 175 q 609 88 532 36 q 456 -17 330 -17 l 330 -17 q 183 -17 104 65 q 24 148 24 307 l 24 307 l 213 329 q 216 243 238 208 l 238 208 q 271 155 337 155 l 337 155 q 404 155 432 193 q 460 231 460 352 l 460 352 z m 484 1084 l 330 1084 l 472 1284 l 648 1284 l 789 1084 l 635 1084 l 557 1185 l 484 1084 z "},"ĵ":{"ha":386,"x_min":-64,"x_max":422,"o":"m 118 811 l -37 811 l 106 1011 l 282 1011 l 422 811 l 270 811 l 191 912 l 118 811 z m 96 720 l 286 720 l 286 22 q 286 -103 271 -162 q 256 -221 206 -257 q 155 -292 67 -292 l 67 -292 q 12 -292 -64 -272 l -64 -272 l -31 -109 q -5 -115 17 -115 l 17 -115 q 49 -115 68 -100 q 88 -85 92 -62 q 96 -39 96 33 l 96 33 l 96 720 z "},"Ķ":{"ha":1003,"x_min":104,"x_max":1000,"o":"m 304 0 l 104 0 l 104 994 l 304 994 l 304 553 l 710 994 l 980 994 l 606 607 l 1000 0 l 741 0 l 467 467 l 304 300 l 304 0 z m 408 -201 l 408 -77 l 610 -77 l 610 -138 q 610 -217 595 -258 q 581 -300 541 -332 q 500 -365 431 -384 l 431 -384 l 406 -294 q 497 -269 497 -201 l 497 -201 l 408 -201 z "},"ķ":{"ha":772,"x_min":93,"x_max":759,"o":"m 283 0 l 93 0 l 93 994 l 283 994 l 283 467 l 507 720 l 741 720 l 495 457 l 759 0 l 553 0 l 372 323 l 283 231 l 283 0 z m 313 -201 l 313 -77 l 515 -77 l 515 -138 q 515 -217 500 -258 q 486 -300 446 -332 q 406 -365 336 -384 l 336 -384 l 311 -294 q 402 -269 402 -201 l 402 -201 l 313 -201 z "},"ĸ":{"ha":772,"x_min":96,"x_max":762,"o":"m 286 0 l 96 0 l 96 720 l 286 720 l 286 467 l 509 720 l 744 720 l 498 457 l 762 0 l 556 0 l 375 323 l 286 231 l 286 0 z "},"Ļ":{"ha":848,"x_min":106,"x_max":806,"o":"m 806 0 l 106 0 l 106 986 l 307 986 l 307 168 l 806 168 l 806 0 z m 374 -201 l 374 -77 l 576 -77 l 576 -138 q 576 -217 562 -258 q 547 -300 507 -332 q 467 -365 397 -384 l 397 -384 l 372 -294 q 463 -269 463 -201 l 463 -201 l 374 -201 z "},"ļ":{"ha":386,"x_min":87,"x_max":291,"o":"m 290 0 l 100 0 l 100 994 l 290 994 l 290 0 z m 89 -201 l 89 -77 l 291 -77 l 291 -138 q 291 -217 277 -258 q 262 -300 222 -332 q 182 -365 112 -384 l 112 -384 l 87 -294 q 178 -269 178 -201 l 178 -201 l 89 -201 z "},"Ņ":{"ha":1003,"x_min":103,"x_max":892,"o":"m 290 0 l 103 0 l 103 994 l 298 994 l 705 330 l 705 994 l 892 994 l 892 0 l 690 0 l 290 648 l 290 0 z m 380 -201 l 380 -77 l 583 -77 l 583 -138 q 583 -217 568 -258 q 554 -300 514 -332 q 473 -365 404 -384 l 404 -384 l 378 -294 q 470 -269 470 -201 l 470 -201 l 380 -201 z "},"ņ":{"ha":848,"x_min":98,"x_max":755,"o":"m 755 448 l 755 0 l 564 0 l 564 368 q 564 484 552 518 q 540 553 512 572 q 485 591 446 591 l 446 591 q 397 591 357 564 q 318 536 303 492 q 289 447 289 326 l 289 326 l 289 0 l 98 0 l 98 720 l 275 720 l 275 614 q 370 736 513 736 l 513 736 q 576 736 628 714 q 680 691 707 656 q 734 621 744 576 q 755 531 755 448 l 755 448 z m 326 -201 l 326 -77 l 528 -77 l 528 -138 q 528 -217 514 -258 q 500 -300 459 -332 q 419 -365 349 -384 l 349 -384 l 324 -294 q 416 -269 416 -201 l 416 -201 l 326 -201 z "},"Ŋ":{"ha":1004,"x_min":106,"x_max":939,"o":"m 106 0 l 106 994 l 305 994 l 305 852 q 446 1011 627 1011 l 627 1011 q 738 1011 808 949 q 878 887 908 782 q 939 676 939 490 l 939 490 q 939 265 909 173 q 880 81 819 32 q 758 -18 652 -18 l 652 -18 q 538 -18 455 29 l 455 29 l 515 178 q 578 151 624 151 l 624 151 q 681 151 705 214 q 730 277 730 453 l 730 453 q 730 701 678 768 q 627 835 538 835 l 538 835 q 461 835 401 790 q 342 745 323 693 q 305 640 305 543 l 305 543 l 305 0 l 106 0 z "},"ŋ":{"ha":848,"x_min":96,"x_max":753,"o":"m 403 -272 l 403 -272 l 437 -104 q 473 -115 496 -115 l 496 -115 q 532 -115 547 -88 q 562 -61 562 5 l 562 5 l 562 368 q 562 464 554 503 q 547 542 517 567 q 488 591 443 591 l 443 591 q 395 591 353 562 q 311 532 299 483 q 287 434 287 326 l 287 326 l 287 0 l 96 0 l 96 720 l 273 720 l 273 614 q 368 736 512 736 l 512 736 q 595 736 653 700 q 710 664 731 608 q 753 553 753 448 l 753 448 l 753 36 q 753 -104 740 -163 q 726 -222 671 -259 q 616 -296 526 -296 l 526 -296 q 472 -296 403 -272 z "},"Ō":{"ha":1080,"x_min":60,"x_max":1025,"o":"m 60 491 l 60 491 q 60 643 106 746 l 106 746 q 140 822 198 882 q 257 943 327 972 l 327 972 q 420 1011 541 1011 l 541 1011 q 761 1011 893 875 q 1025 739 1025 496 l 1025 496 q 1025 255 894 119 q 763 -17 544 -17 l 544 -17 q 322 -17 191 118 q 60 254 60 491 z m 267 498 l 267 498 q 267 329 345 242 q 423 155 543 155 l 543 155 q 663 155 740 241 q 817 328 817 500 l 817 500 q 817 671 742 755 q 667 840 543 840 l 543 840 q 419 840 343 754 q 267 669 267 498 z m 758 1084 l 321 1084 l 321 1209 l 758 1209 l 758 1084 z "},"ō":{"ha":848,"x_min":56,"x_max":799,"o":"m 56 370 l 56 370 q 56 465 102 554 q 149 643 235 690 q 321 736 427 736 l 427 736 q 590 736 694 630 q 799 524 799 362 l 799 362 q 799 199 693 91 q 588 -16 428 -16 l 428 -16 q 329 -16 239 28 q 149 73 102 160 q 56 246 56 370 z m 251 360 l 251 360 q 251 253 302 196 q 353 139 427 139 l 427 139 q 502 139 552 196 q 603 253 603 361 l 603 361 q 603 467 552 524 q 502 581 427 581 l 427 581 q 353 581 302 524 q 251 467 251 360 z m 642 839 l 205 839 l 205 964 l 642 964 l 642 839 z "},"Ŏ":{"ha":1080,"x_min":60,"x_max":1025,"o":"m 60 491 l 60 491 q 60 643 106 746 l 106 746 q 140 822 198 882 q 257 943 327 972 l 327 972 q 420 1011 541 1011 l 541 1011 q 761 1011 893 875 q 1025 739 1025 496 l 1025 496 q 1025 255 894 119 q 763 -17 544 -17 l 544 -17 q 322 -17 191 118 q 60 254 60 491 z m 267 498 l 267 498 q 267 329 345 242 q 423 155 543 155 l 543 155 q 663 155 740 241 q 817 328 817 500 l 817 500 q 817 671 742 755 q 667 840 543 840 l 543 840 q 419 840 343 754 q 267 669 267 498 z m 656 1275 l 656 1275 l 749 1275 q 741 1183 685 1130 q 628 1078 538 1078 l 538 1078 q 448 1078 391 1130 q 334 1183 326 1275 l 326 1275 l 419 1275 q 424 1227 453 1202 q 482 1177 538 1177 l 538 1177 q 593 1177 623 1202 q 652 1227 656 1275 z "},"ŏ":{"ha":848,"x_min":56,"x_max":799,"o":"m 56 370 l 56 370 q 56 465 102 554 q 149 643 235 690 q 321 736 427 736 l 427 736 q 590 736 694 630 q 799 524 799 362 l 799 362 q 799 199 693 91 q 588 -16 428 -16 l 428 -16 q 329 -16 239 28 q 149 73 102 160 q 56 246 56 370 z m 251 360 l 251 360 q 251 253 302 196 q 353 139 427 139 l 427 139 q 502 139 552 196 q 603 253 603 361 l 603 361 q 603 467 552 524 q 502 581 427 581 l 427 581 q 353 581 302 524 q 251 467 251 360 z m 541 1011 l 541 1011 l 634 1011 q 626 919 569 866 q 513 814 422 814 l 422 814 q 332 814 276 866 q 219 919 211 1011 l 211 1011 l 304 1011 q 309 963 338 938 q 367 913 422 913 l 422 913 q 478 913 507 938 q 536 963 541 1011 z "},"Ŗ":{"ha":1003,"x_min":102,"x_max":996,"o":"m 302 0 l 102 0 l 102 994 l 524 994 q 684 994 756 967 q 828 941 871 872 q 915 804 915 715 l 915 715 q 915 604 849 531 q 783 458 652 439 l 652 439 q 718 401 760 355 q 802 310 874 194 l 874 194 l 996 0 l 755 0 l 610 216 q 533 332 505 362 q 476 393 444 404 q 412 415 343 415 l 343 415 l 302 415 l 302 0 z m 302 826 l 302 574 l 451 574 q 595 574 631 586 q 667 598 688 628 q 708 658 708 703 l 708 703 q 708 753 681 784 q 654 814 606 823 l 606 823 q 581 826 459 826 l 459 826 l 302 826 z m 414 -201 l 414 -77 l 616 -77 l 616 -138 q 616 -217 602 -258 q 588 -300 548 -332 q 507 -365 437 -384 l 437 -384 l 412 -294 q 504 -269 504 -201 l 504 -201 l 414 -201 z "},"ŗ":{"ha":541,"x_min":83,"x_max":558,"o":"m 282 222 l 282 0 l 92 0 l 92 720 l 269 720 l 269 618 q 314 690 350 713 q 387 736 433 736 l 433 736 q 498 736 558 701 l 558 701 l 499 534 q 451 566 410 566 l 410 566 q 370 566 342 544 q 314 522 298 464 q 282 406 282 222 l 282 222 z m 85 -201 l 85 -77 l 288 -77 l 288 -138 q 288 -217 273 -258 q 259 -300 219 -332 q 178 -365 109 -384 l 109 -384 l 83 -294 q 175 -269 175 -201 l 175 -201 l 85 -201 z "},"Ŝ":{"ha":926,"x_min":50,"x_max":859,"o":"m 50 323 l 50 323 l 245 342 q 263 244 317 198 q 371 152 463 152 l 463 152 q 559 152 609 193 q 658 234 658 289 l 658 289 q 658 324 637 349 q 616 374 565 392 l 565 392 q 530 404 404 435 l 404 435 q 243 475 178 534 l 178 534 q 86 616 86 734 l 86 734 q 86 810 129 876 q 172 942 253 977 q 334 1011 449 1011 l 449 1011 q 636 1011 731 929 q 825 847 830 710 l 830 710 l 629 701 q 616 778 574 811 q 532 845 447 845 l 447 845 q 359 845 310 809 l 310 809 q 278 786 278 747 l 278 747 q 278 712 308 687 l 308 687 q 346 655 492 621 q 639 586 709 549 q 779 512 819 448 q 859 384 859 290 l 859 290 q 859 204 811 130 q 764 55 677 19 q 590 -18 460 -18 l 460 -18 q 272 -18 171 70 q 70 157 50 323 z m 388 1084 l 234 1084 l 376 1284 l 553 1284 l 693 1084 l 540 1084 l 461 1185 l 388 1084 z "},"ŝ":{"ha":772,"x_min":33,"x_max":705,"o":"m 33 205 l 33 205 l 224 235 q 236 179 273 150 q 311 121 378 121 l 378 121 q 452 121 489 149 l 489 149 q 514 168 514 199 l 514 199 q 514 221 500 235 l 500 235 q 486 249 437 260 l 437 260 q 206 311 144 353 l 144 353 q 59 412 59 515 l 59 515 q 59 609 133 673 q 207 736 362 736 l 362 736 q 510 736 582 688 q 654 640 681 546 l 681 546 l 501 513 q 490 555 457 577 q 425 600 366 600 l 366 600 q 290 600 258 578 l 258 578 q 236 564 236 540 l 236 540 q 236 519 255 505 l 255 505 q 281 486 433 452 q 585 417 646 367 l 646 367 q 705 316 705 225 l 705 225 q 705 126 623 55 q 540 -16 378 -16 l 378 -16 q 231 -16 145 43 q 59 103 33 205 z m 311 811 l 157 811 l 300 1011 l 476 1011 l 616 811 l 463 811 l 385 912 l 311 811 z "},"Ŧ":{"ha":848,"x_min":30,"x_max":820,"o":"m 325 0 l 325 374 l 112 374 l 112 501 l 325 501 l 325 826 l 30 826 l 30 994 l 820 994 l 820 826 l 526 826 l 526 501 l 739 501 l 739 374 l 526 374 l 526 0 l 325 0 z "},"ŧ":{"ha":463,"x_min":5,"x_max":436,"o":"m 290 568 l 290 411 l 410 411 l 410 293 l 290 293 l 290 277 q 290 202 292 185 q 294 168 307 155 q 320 142 343 142 l 343 142 q 370 142 420 160 l 420 160 l 436 12 q 370 -16 286 -16 l 286 -16 q 212 -16 169 13 q 125 42 112 88 q 100 134 100 254 l 100 254 l 100 293 l 5 293 l 5 411 l 100 411 l 100 568 l 12 568 l 12 720 l 100 720 l 100 863 l 290 975 l 290 720 l 420 720 l 420 568 l 290 568 z "},"Ũ":{"ha":1003,"x_min":100,"x_max":892,"o":"m 100 464 l 100 994 l 300 994 l 300 456 q 300 328 308 290 l 308 290 q 321 229 369 192 q 418 155 502 155 l 502 155 q 587 155 631 190 q 674 224 683 275 q 692 326 692 444 l 692 444 l 692 994 l 892 994 l 892 472 q 892 293 876 219 q 860 145 816 94 q 772 43 699 13 q 626 -17 508 -17 l 508 -17 q 366 -17 292 16 q 218 49 176 101 q 133 154 119 212 l 119 212 q 100 297 100 464 l 100 464 z m 349 1082 l 349 1082 l 262 1082 q 262 1098 262 1107 l 262 1107 q 262 1178 296 1216 q 331 1255 385 1255 l 385 1255 q 409 1255 429 1250 q 450 1244 504 1220 q 557 1196 588 1196 l 588 1196 q 610 1196 624 1210 q 639 1223 643 1255 l 643 1255 l 731 1255 q 730 1164 697 1124 q 663 1085 610 1085 l 610 1085 q 587 1085 565 1090 l 565 1090 q 549 1094 487 1118 q 425 1141 396 1141 l 396 1141 q 374 1141 362 1128 q 350 1115 349 1082 z "},"ũ":{"ha":848,"x_min":96,"x_max":751,"o":"m 751 0 l 574 0 l 574 108 q 534 50 470 17 q 406 -16 335 -16 l 335 -16 q 262 -16 205 16 q 147 47 121 105 q 96 163 96 264 l 96 264 l 96 720 l 286 720 l 286 389 q 286 237 297 203 q 307 169 335 149 q 363 129 406 129 l 406 129 q 454 129 493 156 q 532 182 546 222 q 560 262 560 416 l 560 416 l 560 720 l 751 720 l 751 0 z m 272 817 l 272 817 l 185 817 q 184 833 184 842 l 184 842 q 184 913 219 951 q 254 989 308 989 l 308 989 q 332 989 352 984 q 372 979 426 955 q 480 931 511 931 l 511 931 q 532 931 547 945 q 562 958 566 990 l 566 990 l 654 990 q 653 899 620 859 q 586 820 533 820 l 533 820 q 510 820 488 825 l 488 825 q 472 829 410 852 q 347 876 319 876 l 319 876 q 297 876 285 863 q 273 850 272 817 z "},"Ū":{"ha":1003,"x_min":100,"x_max":892,"o":"m 100 464 l 100 994 l 300 994 l 300 456 q 300 328 308 290 l 308 290 q 321 229 369 192 q 418 155 502 155 l 502 155 q 587 155 631 190 q 674 224 683 275 q 692 326 692 444 l 692 444 l 692 994 l 892 994 l 892 472 q 892 293 876 219 q 860 145 816 94 q 772 43 699 13 q 626 -17 508 -17 l 508 -17 q 366 -17 292 16 q 218 49 176 101 q 133 154 119 212 l 119 212 q 100 297 100 464 l 100 464 z m 720 1084 l 283 1084 l 283 1209 l 720 1209 l 720 1084 z "},"ū":{"ha":848,"x_min":96,"x_max":751,"o":"m 751 0 l 574 0 l 574 108 q 534 50 470 17 q 406 -16 335 -16 l 335 -16 q 262 -16 205 16 q 147 47 121 105 q 96 163 96 264 l 96 264 l 96 720 l 286 720 l 286 389 q 286 237 297 203 q 307 169 335 149 q 363 129 406 129 l 406 129 q 454 129 493 156 q 532 182 546 222 q 560 262 560 416 l 560 416 l 560 720 l 751 720 l 751 0 z m 642 839 l 205 839 l 205 964 l 642 964 l 642 839 z "},"Ŭ":{"ha":1003,"x_min":100,"x_max":892,"o":"m 100 464 l 100 994 l 300 994 l 300 456 q 300 328 308 290 l 308 290 q 321 229 369 192 q 418 155 502 155 l 502 155 q 587 155 631 190 q 674 224 683 275 q 692 326 692 444 l 692 444 l 692 994 l 892 994 l 892 472 q 892 293 876 219 q 860 145 816 94 q 772 43 699 13 q 626 -17 508 -17 l 508 -17 q 366 -17 292 16 q 218 49 176 101 q 133 154 119 212 l 119 212 q 100 297 100 464 l 100 464 z m 618 1275 l 618 1275 l 711 1275 q 703 1183 647 1130 q 590 1078 500 1078 l 500 1078 q 410 1078 353 1130 q 296 1183 288 1275 l 288 1275 l 381 1275 q 386 1227 415 1202 q 444 1177 500 1177 l 500 1177 q 555 1177 585 1202 q 614 1227 618 1275 z "},"ŭ":{"ha":848,"x_min":96,"x_max":751,"o":"m 751 0 l 574 0 l 574 108 q 534 50 470 17 q 406 -16 335 -16 l 335 -16 q 262 -16 205 16 q 147 47 121 105 q 96 163 96 264 l 96 264 l 96 720 l 286 720 l 286 389 q 286 237 297 203 q 307 169 335 149 q 363 129 406 129 l 406 129 q 454 129 493 156 q 532 182 546 222 q 560 262 560 416 l 560 416 l 560 720 l 751 720 l 751 0 z m 541 1011 l 541 1011 l 634 1011 q 626 919 569 866 q 513 814 422 814 l 422 814 q 332 814 276 866 q 219 919 211 1011 l 211 1011 l 304 1011 q 309 963 338 938 q 367 913 422 913 l 422 913 q 478 913 507 938 q 536 963 541 1011 z "},"Ų":{"ha":1003,"x_min":100,"x_max":892,"o":"m 100 464 l 100 994 l 300 994 l 300 456 q 300 328 308 290 l 308 290 q 321 229 369 192 q 418 155 502 155 l 502 155 q 587 155 631 190 q 674 224 683 275 q 692 326 692 444 l 692 444 l 692 994 l 892 994 l 892 472 q 892 293 876 219 q 860 145 816 94 q 772 43 699 13 q 626 -17 508 -17 l 508 -17 q 366 -17 292 16 q 218 49 176 101 q 133 154 119 212 l 119 212 q 100 297 100 464 l 100 464 z m 510 0 l 623 0 q 610 -9 600 -22 q 589 -35 582 -49 q 574 -63 570 -78 q 566 -92 566 -106 l 566 -106 q 566 -128 578 -143 q 590 -159 618 -159 l 618 -159 q 630 -159 645 -154 q 661 -150 674 -146 l 674 -146 l 674 -259 q 617 -286 572 -286 l 572 -286 q 534 -286 506 -276 q 478 -266 459 -248 q 441 -231 432 -207 q 422 -184 422 -157 l 422 -157 q 422 -118 446 -75 q 470 -33 510 0 l 510 0 z "},"ų":{"ha":848,"x_min":96,"x_max":766,"o":"m 751 0 l 574 0 l 574 108 q 534 50 470 17 q 406 -16 335 -16 l 335 -16 q 262 -16 205 16 q 147 47 121 105 q 96 163 96 264 l 96 264 l 96 720 l 286 720 l 286 389 q 286 237 297 203 q 307 169 335 149 q 363 129 406 129 l 406 129 q 454 129 493 156 q 532 182 546 222 q 560 262 560 416 l 560 416 l 560 720 l 751 720 l 751 0 z m 602 0 l 715 0 q 703 -9 692 -22 q 682 -35 674 -49 q 667 -63 663 -78 q 659 -92 659 -106 l 659 -106 q 659 -128 670 -143 q 682 -159 710 -159 l 710 -159 q 722 -159 738 -154 q 753 -150 766 -146 l 766 -146 l 766 -259 q 709 -286 664 -286 l 664 -286 q 626 -286 598 -276 q 570 -266 552 -248 q 533 -231 524 -207 q 515 -184 515 -157 l 515 -157 q 515 -118 538 -75 q 562 -33 602 0 l 602 0 z "},"Ŵ":{"ha":1311,"x_min":5,"x_max":1310,"o":"m 460 0 l 242 0 l 5 994 l 210 994 l 360 311 l 542 994 l 781 994 l 955 300 l 1107 994 l 1310 994 l 1068 0 l 855 0 l 657 743 l 460 0 z m 580 1084 l 426 1084 l 568 1284 l 745 1284 l 885 1084 l 732 1084 l 653 1185 l 580 1084 z "},"ŵ":{"ha":1080,"x_min":6,"x_max":1080,"o":"m 419 0 l 234 0 l 6 720 l 191 720 l 326 248 l 450 720 l 634 720 l 754 248 l 892 720 l 1080 720 l 848 0 l 665 0 l 541 463 l 419 0 z m 465 811 l 311 811 l 454 1011 l 630 1011 l 770 811 l 617 811 l 538 912 l 465 811 z "},"Ŷ":{"ha":926,"x_min":-2,"x_max":928,"o":"m 562 0 l 362 0 l 362 418 l -2 994 l 233 994 l 467 601 l 696 994 l 928 994 l 562 417 l 562 0 z m 394 1084 l 240 1084 l 382 1284 l 559 1284 l 699 1084 l 546 1084 l 467 1185 l 394 1084 z "},"ŷ":{"ha":772,"x_min":9,"x_max":750,"o":"m 283 -2 l 9 720 l 212 720 l 385 209 l 553 720 l 750 720 l 496 27 l 450 -98 q 425 -161 402 -195 q 380 -228 350 -249 q 321 -269 278 -281 q 235 -292 180 -292 l 180 -292 q 125 -292 73 -281 l 73 -281 l 56 -132 q 100 -140 136 -140 l 136 -140 q 203 -140 235 -101 q 267 -62 283 -2 l 283 -2 z m 311 811 l 157 811 l 299 1011 l 475 1011 l 616 811 l 463 811 l 384 912 l 311 811 z "},"ſ":{"ha":386,"x_min":96,"x_max":477,"o":"m 477 987 l 477 987 l 451 854 q 406 865 362 865 l 362 865 q 320 865 303 844 q 286 824 286 771 l 286 771 l 286 0 l 96 0 l 96 774 q 96 865 116 912 q 136 959 190 985 q 244 1011 316 1011 l 316 1011 q 399 1011 477 987 z "},"Ǻ":{"ha":1003,"x_min":0,"x_max":998,"o":"m 600 994 l 998 0 l 779 0 l 692 226 l 295 226 l 213 0 l 0 0 l 387 994 l 600 994 z m 357 393 l 628 393 l 491 762 l 357 393 z m 625 1059 l 625 1059 q 625 1004 586 965 q 547 926 492 926 l 492 926 q 437 926 398 965 q 359 1004 359 1059 l 359 1059 q 359 1114 398 1153 q 437 1192 492 1192 l 492 1192 q 547 1192 586 1154 q 625 1115 625 1059 z m 552 1059 l 552 1059 q 552 1084 534 1102 q 517 1120 492 1120 l 492 1120 q 467 1120 449 1102 q 431 1084 431 1059 l 431 1059 q 431 1034 449 1017 q 467 999 492 999 l 492 999 q 517 999 534 1017 q 552 1034 552 1059 z m 518 1192 l 397 1192 l 491 1395 l 705 1395 l 518 1192 z "},"ǻ":{"ha":772,"x_min":50,"x_max":726,"o":"m 242 500 l 242 500 l 69 532 q 98 636 170 686 q 241 736 381 736 l 381 736 q 509 736 571 706 q 633 676 659 630 q 684 583 684 459 l 684 459 l 682 237 q 682 142 691 97 q 701 52 726 0 l 726 0 l 537 0 q 530 19 519 56 l 519 56 q 514 73 512 79 l 512 79 q 463 31 408 7 q 352 -16 289 -16 l 289 -16 q 178 -16 114 44 q 50 104 50 197 l 50 197 q 50 258 79 306 q 108 353 160 379 q 213 404 312 423 l 312 423 q 446 448 497 470 l 497 470 l 497 489 q 497 544 470 567 q 443 591 368 591 l 368 591 q 317 591 288 571 q 260 551 242 500 z m 497 308 l 497 346 q 460 334 381 317 q 302 300 277 283 l 277 283 q 240 257 240 216 l 240 216 q 240 176 270 147 q 300 118 346 118 l 346 118 q 397 118 444 152 l 444 152 q 479 178 490 215 l 490 215 q 497 239 497 308 l 497 308 z m 520 910 l 520 910 q 520 855 481 816 q 442 777 387 777 l 387 777 q 332 777 293 816 q 254 855 254 910 l 254 910 q 254 965 293 1004 q 332 1043 387 1043 l 387 1043 q 442 1043 481 1004 q 520 966 520 910 z m 448 910 l 448 910 q 448 935 430 953 q 412 970 387 970 l 387 970 q 362 970 345 953 q 327 935 327 910 l 327 910 q 327 885 345 867 q 362 850 387 850 l 387 850 q 412 850 430 867 q 448 885 448 910 z m 402 1084 l 281 1084 l 375 1286 l 589 1286 l 402 1084 z "},"Ǽ":{"ha":1389,"x_min":-58,"x_max":1322,"o":"m 164 0 l -58 0 l 406 994 l 1303 994 l 1303 826 l 811 826 l 811 605 l 1265 605 l 1265 437 l 811 437 l 811 168 l 1322 168 l 1322 0 l 610 0 l 610 234 l 266 234 l 164 0 z m 534 844 l 340 408 l 612 408 l 612 844 l 534 844 z m 711 1084 l 590 1084 l 684 1286 l 897 1286 l 711 1084 z "},"ǽ":{"ha":1235,"x_min":60,"x_max":1170,"o":"m 974 230 l 974 230 l 1160 197 q 1122 90 1043 37 q 964 -16 842 -16 l 842 -16 q 766 -16 702 8 q 637 33 585 83 l 585 83 q 537 41 461 13 q 385 -16 304 -16 l 304 -16 q 189 -16 124 44 q 60 104 60 195 l 60 195 q 60 250 82 293 q 105 336 137 360 q 170 384 227 401 l 227 401 q 254 410 389 438 l 389 438 q 456 452 503 468 l 503 468 l 503 487 q 503 539 475 565 q 446 591 385 591 l 385 591 q 330 591 298 569 q 267 547 253 500 l 253 500 l 80 534 q 114 638 187 687 q 260 736 409 736 l 409 736 q 479 736 535 720 q 590 703 629 670 l 629 670 q 671 703 720 720 q 769 736 825 736 l 825 736 q 934 736 1009 691 q 1084 645 1127 556 q 1170 467 1169 304 l 1169 304 l 690 304 q 702 212 742 170 q 782 129 840 129 l 840 129 q 888 129 922 154 q 956 178 974 230 z m 694 423 l 981 423 q 977 483 965 509 l 965 509 q 948 547 914 569 q 880 591 833 591 l 833 591 q 793 591 763 572 q 733 553 715 516 l 715 516 q 692 467 694 423 l 694 423 z m 502 345 l 502 345 q 345 303 332 298 l 332 298 q 286 283 268 262 q 250 241 250 213 l 250 213 q 250 174 280 146 q 309 118 357 118 l 357 118 q 407 118 451 150 l 451 150 q 484 174 493 209 q 502 245 502 345 z m 633 808 l 513 808 l 606 1011 l 820 1011 l 633 808 z "},"Ǿ":{"ha":1080,"x_min":43,"x_max":1042,"o":"m 840 922 l 840 922 l 947 1042 l 1042 959 l 928 831 q 974 770 999 681 q 1024 592 1024 492 l 1024 492 q 1024 255 893 119 q 762 -17 547 -17 l 547 -17 q 361 -17 249 68 l 249 68 l 139 -56 l 43 28 l 159 159 q 60 291 60 503 l 60 503 q 60 739 191 875 q 321 1011 540 1011 l 540 1011 q 721 1011 840 922 z m 298 314 l 715 782 q 647 840 542 840 l 542 840 q 418 840 342 755 q 267 670 267 498 l 267 498 q 267 391 298 314 l 298 314 z m 789 675 l 789 675 l 372 207 q 442 146 541 146 l 541 146 q 661 146 739 233 q 817 321 817 494 l 817 494 q 817 604 789 675 z m 557 1084 l 436 1084 l 530 1286 l 743 1286 l 557 1084 z "},"ǿ":{"ha":848,"x_min":59,"x_max":802,"o":"m 642 677 l 642 677 l 712 759 l 788 696 l 715 612 q 755 564 779 498 q 802 432 802 359 l 802 359 q 802 198 696 91 q 589 -16 429 -16 l 429 -16 q 312 -16 220 41 l 220 41 l 142 -50 l 68 15 l 146 106 q 106 155 82 224 q 59 292 59 364 l 59 364 q 59 527 163 632 q 267 736 430 736 l 430 736 q 551 736 642 677 z m 267 245 l 534 554 q 489 591 431 591 l 431 591 q 355 591 301 532 q 248 473 248 366 l 248 366 q 248 299 267 245 l 267 245 z m 593 471 l 593 471 l 327 164 q 372 132 429 132 l 429 132 q 507 132 560 190 q 613 249 613 355 l 613 355 q 613 418 593 471 z m 440 808 l 319 808 l 413 1011 l 627 1011 l 440 808 z "}}}
